if (_typeface_js && _typeface_js.loadFace) _typeface_js.loadFace({"glyphs":{"0":{"ha":650,"x_min":57,"x_max":607,"o":"m 67 410 q 92 523 75 464 q 133 639 108 582 q 191 748 158 696 q 264 839 224 800 q 285 894 269 867 q 319 941 300 922 q 360 967 339 960 q 397 963 381 975 q 487 872 450 926 q 547 751 524 817 q 583 615 571 686 q 601 475 596 543 q 595 332 607 410 q 551 184 583 254 q 464 63 518 114 q 333 1 410 13 q 224 8 271 -7 q 146 51 178 22 q 94 123 114 81 q 66 213 75 165 q 58 312 57 261 q 67 410 58 363 m 450 442 q 404 597 432 521 q 325 725 376 674 q 273 671 294 704 q 237 599 251 638 q 215 519 222 560 q 208 442 208 478 q 209 392 208 418 q 214 342 210 367 q 228 294 218 317 q 256 254 238 271 q 306 218 278 232 q 360 202 333 204 q 409 212 386 200 q 444 254 432 224 q 459 337 457 290 q 450 442 461 383 z "},"1":{"ha":383,"x_min":29,"x_max":343,"o":"m 71 753 q 46 757 57 751 q 29 779 35 763 q 49 868 29 825 q 92 935 68 911 q 158 968 131 971 q 204 939 186 965 q 233 869 222 913 q 247 780 243 825 q 253 695 251 735 q 254 636 254 656 q 263 488 260 547 q 273 379 267 428 q 292 283 279 331 q 329 169 304 235 q 330 85 343 129 q 292 11 317 42 q 240 -28 268 -19 q 197 -4 211 -36 q 160 91 174 43 q 139 188 147 139 q 125 291 131 238 q 114 403 119 344 q 108 510 111 447 q 99 628 104 572 q 88 720 94 683 q 71 753 81 757 z "},"2":{"ha":624,"x_min":22,"x_max":621,"o":"m 261 556 q 240 632 253 599 q 215 685 228 665 q 192 708 203 704 q 175 697 181 711 q 131 634 156 664 q 85 589 107 604 q 47 578 63 574 q 26 621 31 583 q 27 694 22 651 q 45 781 32 736 q 82 869 58 825 q 142 951 106 914 q 193 972 168 972 q 239 958 218 971 q 276 926 260 946 q 304 889 293 907 q 374 726 347 814 q 412 545 400 638 q 422 361 424 453 q 406 186 419 269 q 447 178 421 182 q 500 169 472 174 q 553 161 528 165 q 593 153 578 157 q 615 138 610 151 q 616 103 621 124 q 599 60 611 82 q 569 20 586 38 q 529 -6 551 3 q 483 -7 507 -15 q 441 4 467 -1 q 389 15 415 10 q 337 26 363 21 q 294 38 311 32 q 272 66 274 44 q 278 115 269 88 q 293 226 289 175 q 294 327 297 276 q 283 433 292 378 q 261 556 274 488 z "},"3":{"ha":732,"x_min":13,"x_max":714,"o":"m 194 681 q 167 597 188 632 q 106 532 147 563 q 84 522 99 526 q 54 516 69 517 q 26 522 39 515 q 13 547 14 528 q 56 700 19 631 q 149 823 93 769 q 276 913 206 876 q 424 967 347 949 q 458 960 446 971 q 464 926 469 950 q 458 826 461 879 q 459 719 456 772 q 476 615 463 665 q 518 524 489 565 q 588 445 560 478 q 638 381 617 413 q 674 313 658 349 q 706 225 690 276 q 706 173 714 199 q 680 124 699 147 q 634 82 661 101 q 576 50 607 63 q 464 18 525 31 q 340 3 403 6 q 218 14 278 1 q 108 60 158 26 q 89 99 90 75 q 98 149 88 124 q 127 199 108 175 q 168 239 146 224 q 213 258 190 254 q 253 247 235 263 q 363 203 301 211 q 492 203 425 196 q 423 319 460 265 q 349 426 386 374 q 315 489 328 451 q 295 570 301 526 q 288 661 289 614 q 292 753 288 708 q 263 746 279 753 q 233 729 247 739 q 207 706 218 719 q 194 681 196 693 z "},"4":{"ha":585,"x_min":72,"x_max":556,"o":"m 106 829 q 140 908 118 865 q 197 974 161 950 q 222 977 211 982 q 238 960 232 972 q 247 929 244 947 q 244 893 249 911 q 234 738 233 811 q 271 593 235 664 q 285 567 276 581 q 303 542 293 554 q 326 523 314 531 q 349 515 338 515 q 360 532 357 519 q 363 558 363 544 q 361 585 363 572 q 360 606 360 599 q 367 638 358 622 q 388 665 375 653 q 415 688 400 678 q 444 704 431 697 q 490 712 468 715 q 522 674 511 708 q 534 536 528 596 q 545 419 540 476 q 553 299 550 361 q 556 154 556 236 q 526 71 556 106 q 460 13 496 36 q 431 3 443 3 q 412 8 419 3 q 401 24 404 14 q 397 44 397 33 q 400 138 400 96 q 399 218 400 181 q 394 290 397 256 q 386 363 390 325 q 292 311 344 314 q 193 344 240 308 q 113 451 140 392 q 79 576 86 511 q 81 706 72 640 q 106 829 89 771 z "},"5":{"ha":718,"x_min":31,"x_max":699,"o":"m 669 953 q 699 919 699 953 q 681 843 699 885 q 634 767 664 801 q 575 733 604 733 q 525 730 553 733 q 469 721 497 726 q 413 708 440 715 q 363 694 385 701 q 458 619 410 660 q 545 531 506 578 q 612 434 585 485 q 643 329 639 383 q 638 244 646 288 q 610 160 629 200 q 563 89 592 121 q 496 39 535 57 q 397 6 449 15 q 290 -6 344 -4 q 179 -3 235 -7 q 69 8 124 1 q 38 29 46 11 q 35 72 31 47 q 52 125 39 97 q 84 176 65 153 q 124 215 103 200 q 165 231 146 231 q 235 216 199 224 q 309 203 271 208 q 388 201 347 199 q 468 217 428 203 q 481 231 479 222 q 481 244 483 240 q 417 353 457 303 q 328 449 376 404 q 225 532 279 493 q 118 607 171 571 q 85 646 88 619 q 97 703 82 672 q 144 765 113 735 q 213 814 175 796 q 310 860 256 838 q 426 902 365 883 q 549 934 486 921 q 669 953 611 947 z "},"6":{"ha":683,"x_min":63,"x_max":660,"o":"m 486 1025 q 519 1002 510 1021 q 526 958 528 983 q 512 903 524 932 q 483 851 500 875 q 447 814 467 828 q 407 804 426 800 q 303 813 347 836 q 233 728 258 790 q 210 632 217 685 q 210 522 204 579 q 232 408 215 465 q 279 300 249 351 q 319 365 297 333 q 369 420 342 396 q 430 459 397 444 q 501 474 463 474 q 555 469 531 479 q 597 440 579 460 q 627 396 615 421 q 644 346 639 371 q 651 232 660 288 q 618 131 643 176 q 553 51 593 85 q 463 0 513 17 q 359 -15 414 -17 q 250 15 304 -12 q 169 79 203 39 q 115 170 136 119 q 81 278 93 221 q 66 392 69 335 q 66 502 63 449 q 78 599 69 556 q 101 706 85 650 q 141 814 117 761 q 199 912 165 867 q 274 988 232 957 q 369 1029 317 1018 q 486 1025 422 1040 m 439 268 q 396 252 408 268 q 372 213 383 236 q 394 196 376 203 q 432 186 411 189 q 472 187 453 183 q 500 203 492 190 q 484 243 497 221 q 439 268 471 265 z "},"7":{"ha":610,"x_min":38,"x_max":596,"o":"m 88 688 q 49 691 60 679 q 38 724 38 703 q 47 774 38 746 q 70 826 56 801 q 102 870 85 851 q 136 893 119 889 q 233 918 183 904 q 334 944 282 932 q 439 963 386 956 q 544 971 492 971 q 580 961 568 971 q 594 936 592 951 q 590 901 596 921 q 576 861 585 882 q 496 676 529 767 q 437 496 463 586 q 392 313 411 406 q 354 118 372 219 q 315 44 347 75 q 249 0 283 13 q 226 -3 233 -6 q 214 7 218 -1 q 210 28 210 15 q 211 54 210 40 q 242 239 226 151 q 278 411 258 326 q 324 581 299 496 q 386 760 350 667 q 237 727 311 749 q 88 688 163 706 z "},"8":{"ha":588,"x_min":22,"x_max":564,"o":"m 499 913 q 514 824 517 875 q 497 722 511 774 q 460 619 482 669 q 421 532 439 569 q 478 437 451 483 q 524 342 504 390 q 544 283 535 313 q 559 224 554 253 q 561 167 564 194 q 544 113 558 139 q 498 52 531 79 q 424 7 465 25 q 338 -17 383 -11 q 253 -17 293 -24 q 181 12 213 -10 q 138 74 150 33 q 140 165 131 118 q 165 258 149 211 q 202 350 182 306 q 239 435 222 394 q 133 586 186 514 q 32 746 81 658 q 28 787 22 764 q 49 832 33 810 q 86 873 64 854 q 132 903 108 892 q 185 926 153 913 q 255 952 218 940 q 330 972 292 964 q 402 976 368 979 q 462 959 436 974 q 499 913 488 944 m 246 794 q 288 731 267 763 q 331 667 310 699 q 342 708 338 686 q 350 756 347 731 q 288 801 356 806 q 267 799 278 800 q 246 794 257 797 m 324 192 q 376 160 338 164 q 354 225 368 192 q 325 289 340 258 q 315 230 317 257 q 324 192 314 203 z "},"9":{"ha":760,"x_min":49,"x_max":653,"o":"m 636 879 q 649 850 646 869 q 653 815 653 831 l 653 139 q 644 101 653 121 q 623 61 636 81 q 593 25 610 42 q 558 -4 576 8 q 515 -18 535 -28 q 496 28 496 -8 l 496 503 q 436 426 468 463 q 369 358 404 389 q 328 324 351 342 q 277 293 304 307 q 222 271 250 279 q 164 264 193 263 q 120 274 140 264 q 85 303 100 285 q 61 344 69 321 q 53 390 53 367 q 71 543 49 457 q 134 711 93 629 q 232 860 175 793 q 356 960 289 928 q 494 977 422 992 q 636 879 565 963 m 369 532 q 406 575 388 551 q 439 623 424 599 q 466 671 454 647 q 483 715 478 694 l 479 719 l 479 718 l 479 719 q 428 751 456 739 q 374 766 401 764 q 322 758 347 768 q 275 721 296 747 q 217 620 235 676 q 211 517 200 564 q 238 474 217 481 q 285 476 260 468 q 333 502 310 485 q 369 532 357 519 z "}," ":{"ha":694,"x_min":0,"x_max":0,"o":""},"e":{"ha":718,"x_min":3,"x_max":814,"o":"m 28 258 q 6 290 10 269 q 9 335 3 311 q 29 382 15 358 q 60 423 43 406 q 94 447 76 440 q 126 442 113 453 q 144 432 135 436 q 164 422 154 428 q 187 455 175 439 q 211 485 199 471 q 261 540 235 514 q 319 588 288 567 q 391 625 351 610 q 481 649 431 640 q 588 645 544 656 q 650 613 632 635 q 674 533 678 581 q 650 442 671 485 q 567 332 619 378 q 454 257 515 286 q 329 214 393 228 q 211 199 265 200 q 273 135 233 156 q 360 110 313 114 q 463 118 408 107 q 569 149 517 129 q 670 196 622 169 q 754 250 718 222 q 797 269 782 271 q 813 236 811 268 q 785 161 814 204 q 707 76 757 118 q 590 6 654 36 q 457 -40 525 -25 q 322 -53 389 -56 q 197 -24 256 -50 q 99 85 122 18 q 88 226 76 153 q 58 241 72 233 q 28 258 43 249 m 538 424 q 528 447 542 439 q 490 455 515 454 q 433 449 465 456 q 368 433 400 443 q 306 409 336 424 q 258 379 276 394 q 351 357 303 364 q 451 364 399 350 q 507 389 486 375 q 538 424 528 403 z "},"f":{"ha":906,"x_min":-206,"x_max":1094,"o":"m 533 482 q 509 417 528 446 q 470 373 490 388 q 435 364 450 358 q 424 406 421 369 q 409 517 425 468 q 369 603 393 567 q 318 663 346 640 q 269 696 290 686 q 247 694 254 703 q 238 668 240 686 q 235 617 235 647 q 238 553 235 586 q 248 487 242 519 q 265 428 254 454 q 322 294 289 357 q 394 172 354 232 q 451 180 422 176 q 507 188 479 183 q 786 220 646 210 q 1058 244 926 231 q 1086 236 1078 247 q 1094 206 1094 225 q 1084 163 1093 186 q 1060 119 1075 140 q 1027 81 1046 97 q 988 61 1008 65 q 880 49 938 54 q 762 37 822 43 q 640 24 701 31 q 519 10 578 18 q 711 -192 611 -94 q 903 -392 811 -290 q 909 -447 917 -414 q 875 -513 901 -481 q 805 -572 849 -546 q 704 -604 761 -597 q 528 -606 619 -615 q 351 -576 436 -597 q 162 -523 256 -554 q -17 -449 68 -492 q -73 -411 -43 -432 q -129 -365 -103 -390 q -175 -311 -156 -340 q -200 -250 -194 -282 q -199 -176 -206 -212 q -176 -107 -192 -140 q -137 -45 -160 -74 q -87 4 -114 -17 q 42 88 -29 57 q 192 138 113 118 q 120 326 144 228 q 96 528 96 424 q 101 613 96 569 q 117 697 107 657 q 144 769 128 736 q 181 824 160 801 q 268 883 224 867 q 365 867 313 899 q 447 792 413 840 q 503 690 482 744 q 531 579 524 635 q 533 482 539 524 m 646 -412 q 463 -224 554 -319 q 293 -24 371 -128 q 224 -37 258 -31 q 153 -53 189 -43 q 65 -83 104 -67 q 0 -115 25 -99 q -34 -149 -25 -132 q -31 -179 -43 -165 q 29 -227 -4 -206 q 98 -266 63 -249 q 169 -297 133 -283 q 238 -321 206 -311 q 415 -374 324 -353 q 592 -406 506 -394 q 619 -410 606 -408 q 646 -412 632 -411 z "},"g":{"ha":919,"x_min":28,"x_max":1146,"o":"m 789 468 q 817 449 810 464 q 820 411 824 433 q 805 365 817 389 q 776 319 793 340 q 884 167 833 243 q 986 15 935 92 q 1069 -144 1029 -58 q 1128 -318 1110 -229 q 1133 -495 1146 -407 q 1057 -662 1121 -583 q 901 -765 993 -737 q 708 -790 808 -793 q 509 -762 607 -787 q 336 -706 411 -737 q 261 -665 299 -689 q 191 -612 224 -642 q 133 -549 158 -583 q 96 -479 108 -515 q 97 -310 64 -394 q 215 -157 129 -226 q 331 -81 269 -112 q 458 -26 392 -49 q 592 14 524 -3 q 731 47 661 31 q 674 125 703 88 q 613 200 644 163 q 531 137 574 168 q 440 80 488 106 q 342 37 393 54 q 238 15 292 19 q 178 21 211 15 q 117 40 146 26 q 66 76 88 54 q 39 129 44 97 q 42 223 28 176 q 83 309 56 269 q 149 379 111 349 q 224 426 186 410 q 358 473 288 458 q 501 490 428 488 q 647 485 574 492 q 789 468 719 478 m 989 -549 q 993 -482 1000 -528 q 963 -374 986 -436 q 903 -236 940 -311 q 817 -83 865 -161 q 733 -104 785 -90 q 620 -137 681 -118 q 497 -178 560 -156 q 381 -223 435 -200 q 287 -269 326 -246 q 233 -311 247 -292 q 229 -352 222 -328 q 252 -401 236 -376 q 291 -446 268 -425 q 336 -475 314 -467 q 452 -524 388 -504 q 584 -557 517 -544 q 717 -575 651 -569 q 839 -579 783 -581 q 934 -570 894 -578 q 989 -549 974 -562 m 336 214 q 434 242 385 221 q 528 293 483 263 q 440 294 486 294 q 349 288 393 293 q 265 272 304 282 q 194 249 225 263 q 260 212 219 219 q 336 214 300 204 z "},"h":{"ha":971,"x_min":14,"x_max":915,"o":"m 340 417 q 315 360 326 385 q 290 319 303 335 q 347 231 317 269 q 419 358 379 294 q 509 470 460 422 q 616 542 558 518 q 740 550 674 567 q 846 478 808 533 q 899 353 883 424 q 915 210 915 283 q 910 83 915 136 q 890 9 910 40 q 839 -44 871 -22 q 788 -56 807 -65 q 768 -15 768 -47 q 775 74 774 22 q 769 179 776 126 q 741 278 761 232 q 683 351 721 325 q 587 366 631 383 q 508 305 543 349 q 446 203 472 261 q 401 97 419 144 q 383 53 393 75 q 358 15 372 31 q 326 -6 344 0 q 288 -1 308 -12 q 197 99 235 40 q 131 224 158 158 q 83 360 103 290 q 47 493 64 429 q 23 638 32 563 q 19 785 14 713 q 48 925 25 858 q 118 1044 71 992 q 191 1108 147 1078 q 281 1151 235 1139 q 367 1151 326 1164 q 429 1088 407 1139 q 450 1028 443 1063 q 460 956 457 994 q 460 878 463 918 q 454 799 458 838 q 438 699 449 746 q 413 606 428 651 q 380 514 399 560 q 340 417 361 468 m 189 960 q 157 842 160 913 q 167 696 154 772 q 202 547 181 619 q 243 424 224 475 q 283 552 263 486 q 314 688 304 618 q 319 811 319 756 q 301 932 319 867 q 278 971 290 953 q 246 989 267 989 q 212 981 229 992 q 189 960 194 969 z "},"i":{"ha":489,"x_min":-6,"x_max":642,"o":"m 81 238 q 90 303 74 268 q 131 361 107 338 q 178 390 156 385 q 208 365 201 394 q 229 308 218 339 q 253 248 240 278 q 285 190 267 218 q 331 142 304 163 q 458 106 394 99 q 585 156 521 114 q 624 163 606 167 q 642 126 642 158 q 622 62 642 94 q 571 0 603 29 q 499 -47 539 -28 q 415 -73 458 -65 q 328 -74 372 -81 q 246 -42 285 -67 q 135 81 171 11 q 81 238 99 151 m 32 468 q 3 482 11 468 q -3 516 -6 496 q 9 560 -1 536 q 34 605 19 585 q 67 639 49 625 q 103 653 85 653 q 230 654 167 653 q 357 667 293 656 q 388 662 379 672 q 396 632 397 651 q 384 589 394 613 q 358 543 374 565 q 324 504 343 521 q 286 483 306 488 q 159 470 222 472 q 32 468 96 468 z "},"j":{"ha":539,"x_min":-99,"x_max":493,"o":"m 121 185 q 100 166 113 174 q 75 158 88 158 q 52 163 63 157 q 36 185 42 168 q 36 215 32 196 q 49 256 40 235 q 69 296 58 276 q 92 326 81 315 q 191 397 138 376 q 297 396 244 418 q 383 327 350 375 q 436 226 417 279 q 477 90 463 163 q 492 -56 492 18 q 478 -203 493 -131 q 432 -339 464 -275 q 391 -411 415 -376 q 338 -475 367 -446 q 279 -528 310 -504 q 219 -565 249 -551 q 132 -589 178 -586 q 45 -577 86 -592 q -28 -531 4 -562 q -78 -451 -61 -500 q -93 -344 -99 -399 q -65 -238 -87 -290 q -8 -140 -43 -186 q 64 -56 26 -93 q 223 76 139 19 q 403 185 307 132 q 442 185 425 196 q 460 142 460 174 q 440 73 460 110 q 389 15 421 36 q 324 -23 357 -6 q 258 -57 290 -40 q 195 -92 226 -74 q 138 -133 164 -111 q 90 -176 113 -151 q 56 -230 68 -201 q 48 -290 44 -258 q 78 -353 51 -321 q 126 -387 99 -374 q 183 -403 154 -400 q 239 -398 211 -407 q 290 -367 267 -389 q 315 -330 306 -350 q 331 -289 325 -310 q 340 -249 338 -268 q 343 -215 343 -229 q 340 -53 346 -133 q 290 114 333 28 q 277 139 285 124 q 258 169 269 154 q 234 195 247 183 q 206 213 221 207 q 158 215 174 224 q 121 185 142 206 m 60 468 q 31 482 39 468 q 24 516 22 496 q 37 560 26 536 q 62 605 47 585 q 94 639 76 625 q 131 653 113 653 q 258 654 194 653 q 385 667 321 656 q 416 662 407 672 q 424 632 425 651 q 412 589 422 613 q 386 543 401 565 q 352 504 371 521 q 314 483 333 488 q 187 470 250 472 q 60 468 124 468 z "},"k":{"ha":775,"x_min":10,"x_max":733,"o":"m 286 321 q 265 270 274 293 q 250 224 256 247 q 242 177 244 201 q 238 122 239 153 q 203 62 236 92 q 128 11 169 32 q 105 6 117 7 q 83 6 93 4 q 67 15 74 8 q 63 33 61 21 l 15 856 q 31 931 10 897 q 85 985 53 964 q 116 998 97 993 q 153 1003 135 1003 q 183 996 171 1003 q 196 974 196 989 q 199 816 196 888 q 208 682 203 744 q 220 562 214 619 q 231 447 226 504 q 245 464 238 456 q 261 481 253 472 q 383 571 311 531 q 556 617 456 611 q 617 608 583 618 q 678 573 651 597 q 717 510 704 549 q 718 417 731 471 q 684 343 708 376 q 626 281 660 310 q 553 226 593 251 q 476 176 514 201 q 580 91 519 122 q 708 38 640 60 q 733 3 733 29 q 715 -51 732 -24 q 670 -95 699 -78 q 611 -104 642 -112 q 513 -65 558 -89 q 431 -13 467 -40 q 369 40 394 14 q 333 85 343 67 q 313 169 308 129 q 361 240 317 208 q 398 269 374 249 q 449 317 422 290 q 501 374 476 344 q 538 431 525 404 q 545 478 550 457 q 508 510 540 500 q 451 506 482 518 q 390 466 421 493 q 333 401 360 439 q 286 321 306 363 z "},"l":{"ha":843,"x_min":65,"x_max":1007,"o":"m 479 476 q 465 451 474 465 q 447 424 457 438 q 423 401 436 410 q 394 392 410 392 q 365 401 374 392 q 354 425 356 411 q 357 453 353 439 q 365 476 361 468 q 387 539 372 494 q 415 639 401 583 q 440 755 429 694 q 449 864 450 815 q 431 942 447 913 q 375 969 414 972 q 292 919 326 964 q 235 803 257 874 q 207 644 214 733 q 210 463 200 556 q 269 308 226 372 q 369 206 311 244 q 499 152 428 167 q 643 146 569 138 q 789 185 717 154 q 924 268 861 215 q 980 287 953 293 q 1006 244 1007 281 q 992 203 1004 225 q 962 161 979 182 q 924 122 944 140 q 888 94 904 104 q 756 24 824 51 q 616 -12 688 -3 q 471 -10 544 -21 q 324 32 397 0 q 197 113 249 64 q 115 226 146 163 q 75 366 85 290 q 75 528 65 442 q 94 663 79 594 q 132 792 110 731 q 181 907 154 854 q 233 997 207 960 q 281 1060 254 1029 q 340 1115 308 1092 q 408 1148 371 1138 q 488 1149 446 1158 q 561 1088 538 1135 q 590 978 585 1042 q 585 840 594 914 q 557 695 575 765 q 518 567 539 625 q 479 476 497 508 z "},"m":{"ha":1206,"x_min":31,"x_max":1156,"o":"m 35 210 q 37 249 31 226 q 55 295 43 272 q 82 336 67 318 q 113 363 97 354 q 141 367 128 372 q 161 338 154 363 q 178 290 167 321 q 201 227 189 258 q 228 174 214 196 q 254 156 242 153 q 300 195 276 165 q 352 264 324 225 q 413 344 381 303 q 486 422 446 386 q 559 472 518 454 q 642 479 600 490 q 726 434 694 468 q 769 351 758 400 q 786 292 778 319 q 806 251 794 265 q 833 238 818 236 q 868 267 847 240 q 948 353 911 310 q 1033 436 985 396 q 1064 447 1044 447 q 1094 436 1083 447 q 1147 336 1138 393 q 1151 225 1156 279 q 1131 156 1149 193 q 1081 97 1113 118 q 1029 92 1049 76 q 1010 139 1010 107 q 1009 181 1010 157 q 1006 224 1008 204 q 1000 256 1004 244 q 989 260 996 267 q 920 174 954 224 q 840 83 886 125 q 783 47 813 58 q 729 37 754 35 q 685 57 704 39 q 657 111 665 75 q 644 163 651 132 q 626 224 638 194 q 594 274 614 253 q 543 294 575 294 q 494 277 511 294 q 458 239 476 260 q 410 169 432 206 q 363 99 388 133 q 311 35 339 65 q 246 -17 283 4 q 183 -31 211 -35 q 132 -8 154 -26 q 93 39 110 11 q 65 98 76 67 q 45 159 53 129 q 35 210 38 189 z "},"n":{"ha":865,"x_min":47,"x_max":840,"o":"m 60 321 q 82 390 65 353 q 131 449 99 426 q 181 459 163 469 q 200 406 200 449 q 197 325 200 374 q 196 236 193 276 q 206 208 196 215 q 249 222 215 200 q 347 291 292 251 q 456 363 403 331 q 519 398 482 379 q 598 427 557 417 q 679 435 639 438 q 751 406 719 432 q 802 344 783 379 q 830 269 821 308 q 840 188 839 229 q 838 108 840 147 q 824 40 835 76 q 781 -18 813 3 q 751 -33 767 -28 q 724 -35 736 -37 q 703 -25 711 -33 q 696 0 696 -17 q 696 67 697 26 q 684 144 694 107 q 650 209 674 182 q 582 236 626 236 q 513 228 544 236 q 449 205 481 221 q 385 165 418 189 q 314 108 353 142 q 272 74 297 93 q 219 42 247 56 q 164 25 192 28 q 115 38 136 22 q 69 95 83 58 q 51 172 54 132 q 51 253 47 213 q 60 321 56 293 z "},"o":{"ha":789,"x_min":40,"x_max":742,"o":"m 58 43 q 50 153 40 97 q 86 263 60 208 q 149 367 113 317 q 222 464 186 418 q 197 466 210 465 q 171 467 183 467 q 154 476 158 467 q 149 501 150 486 q 151 529 149 515 q 157 551 154 543 q 171 585 163 568 q 191 617 179 603 q 219 641 203 632 q 256 650 235 650 q 370 648 308 656 q 492 619 432 640 q 604 563 551 597 q 694 481 657 528 q 739 353 736 422 q 717 218 742 285 q 644 94 692 151 q 539 0 597 36 q 463 -41 507 -21 q 369 -74 418 -61 q 272 -90 321 -86 q 179 -81 222 -93 q 104 -40 136 -69 q 58 43 72 -10 m 496 382 q 343 446 429 425 q 326 425 335 433 q 281 373 311 404 q 224 308 251 342 q 183 238 197 274 q 185 169 169 201 q 260 107 211 122 q 365 98 310 92 q 474 126 419 104 q 565 174 528 147 q 602 228 597 200 q 594 283 607 256 q 554 335 581 310 q 496 382 528 361 z "},"p":{"ha":1101,"x_min":47,"x_max":1089,"o":"m 939 138 q 788 68 876 88 q 613 50 699 49 q 690 -118 656 -35 q 726 -272 724 -201 q 713 -353 725 -311 q 678 -429 700 -394 q 625 -487 656 -464 q 557 -512 594 -511 q 471 -506 515 -518 q 385 -474 426 -494 q 308 -425 344 -453 q 246 -371 272 -397 q 112 -192 161 -292 q 55 13 63 -92 q 83 220 47 118 q 204 407 119 322 q 330 516 263 475 q 474 574 397 557 q 640 590 551 592 q 826 572 728 589 q 897 554 858 567 q 970 523 935 542 q 1033 481 1006 504 q 1074 428 1061 457 q 1084 345 1089 386 q 1059 267 1079 304 q 1008 197 1039 229 q 939 138 976 164 m 406 28 q 397 79 393 51 q 338 108 365 90 q 289 153 310 126 q 279 189 278 167 q 290 234 281 211 q 315 279 300 257 q 348 316 331 301 q 383 333 365 331 q 415 322 401 336 q 490 271 451 289 q 557 249 528 253 q 650 239 603 243 q 744 237 697 235 q 836 249 790 239 q 925 279 882 258 q 935 296 939 286 q 917 316 931 306 q 885 335 903 326 q 854 350 868 344 q 697 384 775 375 q 543 393 618 393 q 467 390 506 393 q 391 377 428 386 q 320 351 354 368 q 260 308 286 335 q 193 199 207 258 q 192 76 179 139 q 242 -47 206 14 q 326 -160 278 -108 q 428 -251 374 -212 q 532 -307 482 -289 q 590 -321 576 -326 q 598 -295 603 -315 q 576 -247 593 -275 q 544 -196 560 -219 q 475 -84 513 -143 q 406 28 438 -25 z "},"q":{"ha":806,"x_min":47,"x_max":1265,"o":"m 725 594 q 749 569 746 590 q 742 522 751 549 q 716 469 733 496 q 678 426 699 443 q 697 396 689 417 q 683 270 690 346 q 670 107 675 194 q 666 -73 665 19 q 676 -250 667 -165 q 799 -224 724 -240 q 958 -190 875 -207 q 1116 -162 1040 -174 q 1239 -150 1192 -150 q 1265 -187 1265 -156 q 1249 -254 1264 -218 q 1207 -319 1233 -290 q 1154 -349 1181 -349 q 1028 -360 1106 -349 q 868 -386 951 -371 q 708 -418 785 -401 q 583 -444 631 -435 q 556 -441 572 -444 q 540 -417 540 -437 q 531 -252 531 -339 q 536 -81 531 -165 q 550 79 542 3 q 567 213 558 156 q 444 113 503 164 q 315 28 385 63 q 231 4 278 13 q 144 4 185 -4 q 75 41 103 13 q 47 128 47 69 q 63 227 47 181 q 108 315 79 274 q 176 394 138 356 q 261 468 215 432 q 495 601 383 565 q 725 594 607 636 m 457 283 q 535 346 496 311 q 619 411 574 381 q 444 424 526 442 q 285 340 363 406 q 249 301 268 328 q 220 249 231 275 q 213 203 210 222 q 244 183 217 183 q 299 193 271 183 q 356 217 328 203 q 410 249 383 232 q 457 283 436 267 z "},"r":{"ha":965,"x_min":47,"x_max":964,"o":"m 53 411 q 65 475 47 438 q 107 539 82 513 q 158 570 132 565 q 194 538 183 575 q 217 434 206 485 q 242 333 229 383 q 373 462 296 408 q 540 545 450 515 q 729 581 629 575 q 929 567 829 586 q 957 547 950 564 q 961 506 964 529 q 947 457 958 483 q 921 410 936 431 q 889 376 906 389 q 858 368 872 364 q 749 384 808 379 q 627 385 689 389 q 506 367 565 382 q 398 324 446 353 q 318 250 350 294 q 279 142 286 206 q 252 73 278 110 q 194 15 226 36 q 179 8 189 10 q 160 7 169 6 q 144 13 151 8 q 138 29 138 18 q 95 220 117 125 q 53 411 74 315 z "},"s":{"ha":760,"x_min":13,"x_max":744,"o":"m 728 497 q 733 463 744 486 q 698 420 722 440 q 644 388 674 400 q 596 388 615 376 q 550 418 579 400 q 492 452 521 436 q 442 478 464 468 q 417 485 419 489 q 428 463 414 479 q 468 422 443 446 q 526 371 493 399 q 592 315 558 343 q 659 263 626 288 q 717 219 692 238 q 740 183 738 204 q 732 138 742 161 q 703 91 722 114 q 663 49 685 68 q 594 3 631 21 q 516 -26 557 -14 q 432 -44 475 -37 q 344 -56 389 -50 q 271 -55 310 -56 q 192 -49 232 -54 q 113 -33 153 -44 q 39 -3 74 -22 q 13 50 14 13 q 26 124 13 88 q 65 183 40 161 q 117 190 90 206 q 256 132 183 150 q 385 110 328 114 q 475 114 443 107 q 494 132 507 121 q 402 187 449 156 q 320 260 356 218 q 265 353 285 301 q 254 467 246 404 q 280 535 260 501 q 329 592 300 568 q 394 628 358 617 q 464 629 429 639 q 529 610 493 624 q 601 578 565 597 q 669 539 636 560 q 728 497 703 518 z "},"u":{"ha":879,"x_min":18,"x_max":881,"o":"m 125 454 q 176 515 149 489 q 235 539 203 542 q 258 524 256 538 q 254 492 261 510 q 237 455 247 474 q 221 425 226 436 q 199 376 210 404 q 182 319 189 347 q 176 263 175 290 q 188 216 176 236 q 223 187 199 196 q 290 185 247 178 q 411 233 360 196 q 506 319 463 269 q 587 428 549 369 q 667 539 625 486 q 690 560 672 549 q 726 578 707 572 q 763 578 746 583 q 788 550 781 572 q 797 469 797 513 q 800 381 797 426 q 814 292 803 336 q 858 211 825 249 q 878 176 875 197 q 872 133 881 156 q 848 90 864 111 q 813 56 832 69 q 776 38 794 42 q 743 44 757 33 q 688 98 710 68 q 652 161 665 128 q 633 229 639 194 q 625 299 626 264 q 567 215 599 258 q 486 119 535 172 q 415 53 456 82 q 330 6 375 24 q 238 -18 285 -12 q 150 -12 192 -24 q 65 27 93 -3 q 27 99 36 57 q 26 189 18 140 q 49 286 33 238 q 86 378 65 335 q 125 454 107 422 z "},"t":{"ha":729,"x_min":1,"x_max":1579,"o":"m 417 990 q 436 1017 425 1001 q 464 1049 447 1033 q 503 1075 481 1064 q 556 1089 526 1086 q 588 1072 583 1093 q 556 996 592 1051 q 508 918 529 964 q 467 833 486 872 q 1026 887 764 856 q 1538 953 1289 918 q 1563 950 1554 956 q 1576 934 1572 944 q 1578 910 1579 924 q 1571 883 1576 896 q 1526 829 1560 851 q 1447 799 1493 807 q 1181 752 1318 776 q 907 706 1043 728 q 642 667 771 685 q 404 642 514 650 q 387 569 396 604 q 372 494 378 533 q 363 407 365 454 q 363 300 360 360 q 371 236 364 267 q 393 185 378 206 q 435 156 408 164 q 504 158 463 147 q 672 220 589 179 q 829 314 754 261 q 865 317 847 328 q 886 271 883 307 q 866 203 888 235 q 815 144 844 171 q 731 77 776 110 q 633 19 685 44 q 528 -23 582 -7 q 419 -40 474 -39 q 333 -27 367 -42 q 280 15 300 -12 q 251 78 260 42 q 236 158 242 115 q 229 301 229 236 q 235 424 229 367 q 252 531 242 481 q 278 629 263 581 q 156 615 211 622 q 35 599 101 607 q 8 610 14 599 q 3 638 1 622 q 10 670 4 654 q 19 694 17 686 q 58 764 35 735 q 106 797 82 793 q 166 803 139 800 q 219 808 193 806 q 274 813 246 810 q 335 818 301 815 q 369 899 346 850 q 417 990 393 949 z "},"v":{"ha":893,"x_min":39,"x_max":894,"o":"m 49 443 q 41 482 39 458 q 52 531 43 506 q 76 578 61 556 q 109 614 92 600 q 144 629 126 628 q 175 613 161 631 q 253 508 215 563 q 331 397 292 453 q 414 290 371 342 q 508 197 457 239 q 553 346 529 272 q 615 481 576 419 q 710 586 653 543 q 854 642 768 629 q 884 640 875 647 q 894 618 893 632 q 890 587 894 604 q 882 557 886 569 q 846 496 871 525 q 783 457 821 467 q 710 399 739 442 q 663 301 682 356 q 631 185 644 246 q 600 75 617 125 q 547 -25 579 8 q 472 -37 515 -58 q 381 26 426 -12 q 292 111 335 65 q 211 206 250 157 q 140 299 172 254 q 85 382 108 344 q 49 443 61 419 z "},"w":{"ha":1383,"x_min":42,"x_max":1361,"o":"m 43 376 q 61 443 43 406 q 103 507 79 481 q 150 538 126 533 q 185 504 174 542 q 199 453 190 485 q 219 385 207 421 q 247 313 231 349 q 283 250 263 276 q 353 328 321 288 q 417 413 386 369 q 481 497 449 456 q 551 575 514 538 q 591 601 567 592 q 638 589 615 610 q 723 455 689 525 q 793 321 757 385 q 831 256 814 288 q 866 198 847 224 q 908 152 885 172 q 963 122 931 132 q 1039 118 1004 108 q 1101 153 1074 128 q 1148 215 1128 178 q 1182 290 1168 251 q 1204 367 1196 329 q 1217 433 1213 406 q 1244 504 1219 469 q 1301 561 1269 539 q 1344 567 1328 579 q 1358 532 1361 554 q 1317 336 1347 436 q 1244 150 1288 236 q 1122 -10 1186 46 q 963 -75 1057 -65 q 855 -61 903 -82 q 768 -1 807 -40 q 697 88 729 38 q 636 192 664 139 q 584 297 608 246 q 535 386 560 347 q 522 379 532 394 q 494 336 511 364 q 453 272 476 308 q 405 199 431 235 q 352 131 379 163 q 297 81 325 99 q 216 54 253 50 q 151 84 179 58 q 101 151 122 110 q 67 235 81 192 q 48 317 54 278 q 43 376 42 356 z "},"x":{"ha":946,"x_min":-107,"x_max":958,"o":"m 461 546 q 506 574 478 565 q 560 581 535 582 q 601 573 586 581 q 606 556 615 565 q 538 471 572 515 q 467 379 503 426 q 692 262 578 314 q 928 178 806 210 q 953 157 947 174 q 953 117 958 140 q 935 69 949 94 q 904 26 922 44 q 867 -3 886 7 q 829 -6 847 -12 q 574 83 694 28 q 339 206 453 138 q 177 -24 256 90 q 35 -237 99 -137 q 13 -260 29 -250 q -23 -276 -4 -271 q -61 -281 -42 -281 q -92 -274 -81 -281 q -106 -254 -104 -268 q -90 -218 -107 -240 q 72 28 -11 -92 q 243 267 156 149 q 160 321 201 293 q 79 376 119 349 q 58 407 61 386 q 62 451 56 428 q 82 499 68 475 q 113 540 96 524 q 147 563 129 557 q 179 560 165 569 q 276 497 228 528 q 372 436 324 467 q 416 491 394 464 q 461 546 438 518 z "},"y":{"ha":1157,"x_min":31,"x_max":1010,"o":"m 39 233 q 42 311 31 278 q 96 375 53 344 q 153 397 128 397 q 181 375 178 397 q 192 319 186 349 q 211 269 199 290 q 243 239 224 247 q 294 247 263 231 q 358 288 326 264 q 424 338 390 313 q 491 384 457 363 q 563 417 525 406 q 753 403 669 449 q 901 261 838 357 q 985 73 960 176 q 995 -131 1010 -31 q 924 -319 981 -232 q 761 -460 867 -407 q 582 -513 675 -503 q 393 -503 489 -524 q 312 -474 356 -492 q 225 -431 268 -456 q 144 -374 182 -406 q 82 -304 106 -342 q 69 -219 61 -262 q 101 -135 76 -175 q 163 -61 126 -94 q 238 -7 200 -28 q 414 74 322 46 q 590 135 506 103 q 627 132 615 142 q 640 103 639 122 q 633 58 640 83 q 613 10 626 33 q 583 -30 600 -12 q 549 -50 567 -47 q 489 -67 524 -57 q 417 -90 454 -78 q 342 -116 379 -103 q 278 -141 306 -129 q 234 -162 250 -153 q 222 -178 218 -172 q 290 -235 253 -212 q 365 -276 326 -257 q 522 -319 440 -308 q 690 -318 604 -329 q 747 -304 717 -312 q 801 -281 776 -296 q 843 -245 826 -267 q 860 -192 860 -224 q 849 -83 863 -142 q 810 31 836 -25 q 746 133 783 86 q 663 208 708 181 q 567 238 618 236 q 464 204 517 239 q 402 158 432 183 q 342 111 372 133 q 279 72 311 89 q 210 49 247 54 q 137 53 167 38 q 88 99 107 69 q 56 165 68 128 q 39 233 44 201 z "},"z":{"ha":832,"x_min":32,"x_max":814,"o":"m 53 463 q 35 486 39 469 q 36 524 32 503 q 51 567 40 544 q 78 605 63 589 q 115 628 94 621 q 156 629 135 636 q 315 608 232 608 q 482 610 399 608 q 644 607 565 613 q 792 572 724 601 q 811 529 814 560 q 789 463 808 499 q 719 371 758 413 q 633 293 679 329 q 538 226 588 257 q 442 165 489 194 q 591 172 517 167 q 736 178 665 178 q 772 149 768 178 q 764 87 776 121 q 726 24 751 53 q 675 -4 701 -4 q 428 -10 547 -4 q 181 -4 308 -15 q 145 20 154 1 q 142 64 136 39 q 165 116 147 89 q 208 165 182 143 q 338 262 272 218 q 478 349 403 306 q 537 384 506 365 q 600 425 568 403 q 463 435 533 435 q 322 437 393 436 q 183 442 251 438 q 53 463 115 446 z "},"d":{"ha":1043,"x_min":32,"x_max":1057,"o":"m 113 371 q 183 441 143 411 q 269 490 224 471 q 365 515 315 508 q 460 514 414 521 q 430 571 444 539 q 402 638 415 603 q 378 706 389 672 q 364 768 368 740 q 358 851 358 811 q 364 928 357 892 q 389 995 371 964 q 439 1053 407 1026 q 567 1089 496 1099 q 708 1021 639 1079 q 768 954 740 994 q 818 867 796 914 q 858 772 840 821 q 886 682 875 724 q 899 587 893 631 q 904 504 904 543 q 898 429 904 465 q 875 356 892 393 l 867 335 q 903 292 883 314 q 944 251 922 271 q 988 213 967 231 q 1031 186 1010 196 q 1053 161 1049 179 q 1052 120 1057 143 q 1035 74 1047 97 q 1005 32 1022 50 q 969 5 988 14 q 932 3 950 -4 q 838 64 885 26 q 750 146 792 101 q 550 -11 661 44 q 438 -44 497 -32 q 318 -54 378 -57 q 201 -31 258 -51 q 97 31 144 -11 q 46 112 60 68 q 36 201 32 156 q 60 290 40 246 q 113 371 81 333 m 676 229 q 590 328 628 281 q 510 438 553 376 q 494 396 504 417 q 469 359 483 375 q 440 334 456 343 q 408 328 424 325 q 342 328 379 329 q 271 322 306 326 q 210 307 236 317 q 175 281 183 297 q 174 264 172 272 q 183 243 176 256 q 213 210 194 222 q 253 186 232 197 q 360 150 303 161 q 473 144 417 139 q 582 171 529 150 q 676 229 635 192 m 618 624 q 685 530 644 578 q 764 442 726 482 q 744 554 758 492 q 708 679 731 617 q 653 798 685 742 q 581 892 621 854 q 535 927 561 910 q 481 933 508 944 q 498 863 483 904 q 533 779 513 822 q 576 694 553 736 q 618 624 599 653 z "},"A":{"ha":1283,"x_min":-189,"x_max":1265,"o":"m 139 17 q 103 -28 125 -7 q 57 -47 81 -50 q 40 -37 46 -46 q 35 -17 35 -29 q 38 7 35 -6 q 46 28 40 19 l 106 133 q -33 199 35 165 q -169 269 -101 232 q -186 297 -189 275 q -169 340 -183 318 q -134 381 -154 363 q -99 399 -114 399 q 92 410 -3 407 q 285 414 188 414 q 350 522 311 469 q 437 617 389 574 q 540 690 485 660 q 654 733 594 721 q 776 738 714 746 q 901 696 839 729 q 972 636 942 671 q 1027 562 1003 601 q 1072 479 1051 522 q 1113 397 1093 436 l 1238 401 q 1260 390 1254 399 q 1265 369 1265 381 q 1260 344 1264 357 q 1251 325 1256 332 q 1208 278 1226 289 q 1167 261 1190 267 l 1151 258 q 1147 187 1154 222 q 1124 118 1140 151 q 1061 23 1100 61 q 972 -36 1022 -15 q 865 -62 922 -57 q 749 -60 808 -67 q 485 -9 614 -50 q 233 79 356 32 q 209 88 221 83 q 185 99 197 93 q 162 57 174 78 q 139 17 150 36 m 300 297 q 261 233 281 269 q 313 212 288 222 q 365 190 338 201 q 490 149 426 171 q 618 110 553 128 q 749 83 683 93 q 883 72 815 72 q 938 78 913 75 q 981 88 963 81 q 1013 110 1000 96 q 1032 153 1026 125 q 1031 206 1035 181 q 1015 260 1026 232 q 658 278 836 265 q 300 297 479 290 m 772 604 q 647 628 706 633 q 538 594 588 624 q 449 517 488 565 q 386 414 411 469 q 670 406 522 413 q 954 396 818 399 q 868 531 915 479 q 772 604 821 582 m 106 301 q 144 284 125 293 q 183 267 164 275 q 194 283 189 274 q 204 300 199 292 q 156 301 181 300 q 106 301 131 301 z "},"B":{"ha":1157,"x_min":-431,"x_max":1054,"o":"m 36 461 q 44 521 36 494 q 78 569 53 547 q 119 588 100 585 q 142 569 139 592 q 156 492 147 529 q 181 419 165 454 q 359 413 271 410 q 527 427 447 417 q 675 453 607 438 q 792 485 743 469 q 867 516 842 501 q 890 538 893 531 q 842 576 881 558 q 729 607 803 594 q 544 624 656 619 q 281 622 433 628 q -64 587 104 615 q -408 526 -232 558 q -424 534 -419 526 q -430 553 -429 542 q -427 576 -431 564 q -418 600 -424 589 q -394 646 -411 624 q -344 675 -376 668 q 12 735 -169 707 q 375 769 193 763 q 585 768 481 774 q 779 745 689 763 q 939 699 869 728 q 1042 631 1008 671 q 1053 601 1054 619 q 1046 565 1053 583 q 1028 530 1039 546 q 1010 506 1018 514 q 856 393 939 438 q 679 321 772 349 q 749 290 714 308 q 818 249 785 271 q 881 203 851 228 q 935 157 911 179 q 950 115 951 140 q 936 64 949 89 q 903 20 924 39 q 863 0 883 1 q 589 -5 728 -15 q 322 63 450 6 q 188 144 243 96 q 96 263 132 193 q 63 282 68 263 q 69 329 57 301 q 50 390 58 358 q 36 461 42 421 m 721 142 q 671 170 707 156 q 588 199 635 185 q 489 227 540 214 q 394 249 438 240 q 322 260 351 257 q 292 257 293 263 q 299 244 290 254 q 323 224 307 235 q 360 200 339 213 q 407 178 382 188 q 499 153 444 164 q 602 136 553 142 q 686 131 651 131 q 721 142 721 132 z "},"C":{"ha":829,"x_min":44,"x_max":988,"o":"m 782 982 q 801 954 801 978 q 790 903 801 931 q 758 855 778 876 q 718 833 738 833 q 579 818 644 833 q 456 770 514 803 q 347 687 399 738 q 247 564 294 636 q 184 434 207 496 q 167 307 161 372 q 205 219 175 251 q 280 172 235 186 q 382 158 325 157 q 501 170 439 158 q 624 201 563 182 q 741 241 686 219 q 841 283 796 263 q 914 321 886 304 q 969 340 950 342 q 988 306 988 338 q 965 255 988 282 q 897 203 942 228 q 783 144 850 175 q 644 86 717 114 q 501 37 572 58 q 372 7 429 15 q 314 1 344 3 q 253 3 283 0 q 194 14 222 6 q 142 38 165 22 q 72 128 94 78 q 47 235 50 179 q 58 350 44 292 q 93 463 71 408 q 143 567 115 518 q 197 653 171 615 q 467 903 324 818 q 782 982 611 988 z "},"D":{"ha":915,"x_min":-512,"x_max":914,"o":"m 321 665 q 331 679 325 671 q 344 696 338 688 q 159 708 253 708 q -22 703 65 708 q -252 684 -139 696 q -474 635 -365 672 q -505 644 -497 628 q -506 685 -512 661 q -481 730 -499 706 q -429 761 -462 754 q -210 810 -328 789 q 31 838 -93 831 q 321 839 188 846 q 572 801 454 832 q 679 765 626 788 q 776 712 732 743 q 851 640 819 681 q 893 549 882 600 q 903 411 914 476 q 858 290 892 346 q 774 186 825 233 q 661 103 722 139 q 531 40 603 65 q 379 3 458 15 q 219 -8 300 -10 q 63 11 138 -7 q 42 26 50 15 q 43 60 33 36 q 107 220 74 146 q 175 365 140 294 q 247 509 210 436 q 321 665 283 582 m 518 656 q 469 670 494 664 q 418 683 444 676 q 415 667 417 674 q 410 656 413 660 q 353 527 379 585 q 301 414 326 469 q 248 298 275 358 q 190 160 221 238 q 224 145 186 153 q 326 140 261 138 q 474 161 390 143 q 646 224 557 179 q 693 256 668 235 q 738 301 718 276 q 772 354 758 326 q 785 407 785 382 q 763 501 785 461 q 706 569 742 540 q 621 619 669 599 q 518 656 572 640 z "},"E":{"ha":1215,"x_min":-1,"x_max":1261,"o":"m 1135 801 q 1151 796 1147 804 q 1156 775 1156 788 q 1152 749 1156 763 q 1144 726 1149 735 q 1120 683 1138 703 q 1069 663 1103 663 q 936 648 1003 654 q 801 632 869 642 q 965 607 883 617 q 1135 589 1047 597 q 1159 569 1158 589 q 1148 524 1160 549 q 1117 478 1136 500 q 1082 451 1097 456 q 916 421 1010 438 q 724 386 822 404 q 532 349 626 368 q 362 313 438 331 q 238 281 286 296 q 186 254 190 265 q 216 224 181 242 q 316 191 251 207 q 469 162 381 175 q 658 144 557 149 q 944 148 801 138 q 1239 165 1088 158 q 1260 149 1260 169 q 1249 101 1261 128 q 1217 51 1238 74 q 1178 28 1197 28 q 875 6 1025 13 q 572 7 725 -1 q 428 20 501 11 q 283 48 354 29 q 145 98 211 67 q 24 176 79 129 q 3 215 8 188 q 5 271 -1 242 q 28 326 11 300 q 72 361 44 351 q 328 454 186 417 q 618 517 469 492 q 468 558 543 533 q 454 584 453 565 q 463 621 456 603 q 490 666 471 644 q 532 696 508 688 q 673 740 599 724 q 824 768 747 757 q 980 786 901 779 q 1135 801 1058 793 z "},"F":{"ha":851,"x_min":-312,"x_max":1288,"o":"m 1261 879 q 1287 851 1286 875 q 1274 801 1288 828 q 1240 752 1261 774 q 1199 731 1218 731 q 735 810 967 775 q 267 864 503 844 q 304 819 286 842 q 342 774 322 797 q 459 619 400 699 q 568 453 518 539 q 665 464 617 458 q 761 476 713 469 q 780 475 774 481 q 790 459 786 469 q 793 436 793 449 q 792 414 793 424 q 766 365 785 382 q 710 339 747 347 q 673 331 690 335 q 636 325 656 328 q 647 300 642 313 q 658 275 653 288 q 696 154 682 213 q 710 32 710 96 q 687 -102 710 -33 q 615 -211 664 -171 q 503 -268 565 -256 q 377 -272 442 -281 q 249 -240 313 -264 q 129 -189 185 -217 q -7 -119 57 -157 q -136 -42 -71 -82 q -228 29 -183 -10 q -306 117 -272 68 q -310 144 -312 129 q -299 174 -307 158 q -280 201 -290 189 q -261 222 -269 214 q -111 318 -190 281 q 53 379 -32 356 q 225 416 138 403 q 403 438 313 429 q 372 478 388 458 q 342 518 357 499 q 197 709 269 615 q 46 890 125 803 q 38 924 33 901 q 55 970 42 947 q 86 1010 68 993 q 119 1028 104 1028 q 689 973 406 1013 q 1261 879 972 933 m 606 -72 q 608 1 615 -46 q 583 101 600 47 q 540 209 565 154 q 490 307 515 264 q 350 292 419 299 q 214 275 281 285 q 135 262 178 269 q 50 245 92 254 q -30 226 8 236 q -96 206 -68 215 q -137 186 -124 196 q -144 169 -151 176 q -33 78 -93 121 q 92 -2 26 35 q 227 -68 158 -39 q 364 -117 296 -97 q 424 -126 389 -121 q 496 -131 460 -132 q 562 -118 532 -131 q 606 -72 592 -106 z "},"G":{"ha":1315,"x_min":21,"x_max":1317,"o":"m 1178 579 q 1192 566 1192 579 q 1182 534 1192 553 q 1158 495 1172 515 q 1129 460 1143 475 q 1208 424 1169 444 q 1274 372 1246 404 q 1314 276 1317 324 q 1281 185 1311 228 q 1204 110 1251 143 q 1114 57 1157 76 q 897 -3 1010 17 q 672 -22 785 -22 q 565 -22 622 -25 q 451 -11 508 -19 q 340 12 394 -3 q 238 46 285 26 q 153 93 193 65 q 83 157 113 121 q 37 237 53 193 q 25 332 21 281 q 47 433 29 383 q 94 528 65 482 q 160 615 124 574 q 238 693 197 657 q 445 820 331 771 q 683 881 560 869 q 928 864 806 893 q 1157 756 1050 835 q 1168 716 1174 743 q 1147 663 1163 689 q 1109 622 1131 638 q 1072 618 1088 606 q 930 699 1006 669 q 774 738 854 729 q 613 736 694 747 q 453 694 532 725 q 386 663 417 678 q 326 631 356 649 q 269 592 297 614 q 211 542 242 571 q 186 510 199 529 q 165 467 174 490 q 151 420 156 444 q 147 374 146 396 q 174 291 150 326 q 235 229 199 256 q 313 187 271 203 q 394 163 356 171 q 632 127 515 131 q 863 131 749 124 q 942 142 908 136 q 1003 154 975 147 q 1056 168 1031 161 q 1114 183 1082 175 q 1162 201 1136 190 q 1192 221 1188 213 q 1151 280 1204 247 q 1004 344 1099 313 q 883 386 940 368 q 754 428 826 404 q 738 457 735 436 q 755 500 740 478 q 788 541 769 522 q 818 564 807 560 q 903 572 857 568 q 997 576 950 575 q 1091 578 1044 578 q 1178 579 1138 579 z "},"H":{"ha":1663,"x_min":-6,"x_max":1650,"o":"m 472 618 q 463 674 454 644 q 492 728 472 703 q 510 746 500 736 q 531 762 521 756 q 551 768 542 768 q 564 756 560 768 q 624 629 592 694 q 682 493 656 564 q 765 506 724 500 q 847 517 807 511 q 1061 544 954 533 q 1276 563 1168 556 q 1291 620 1274 592 q 1324 664 1308 649 q 1364 685 1342 681 q 1393 664 1386 690 q 1402 617 1397 640 q 1411 571 1407 594 q 1450 573 1425 571 q 1504 577 1475 575 q 1563 581 1533 579 q 1619 582 1593 582 q 1647 562 1644 585 q 1638 510 1650 539 q 1605 458 1626 482 q 1563 433 1583 433 q 1499 429 1535 431 q 1436 425 1463 428 q 1459 288 1447 356 q 1486 153 1471 221 q 1483 92 1493 126 q 1446 35 1474 57 q 1406 22 1429 19 q 1371 50 1382 25 q 1336 235 1351 143 q 1306 417 1321 326 q 1060 395 1182 407 q 813 368 939 383 q 768 362 790 365 q 722 356 746 358 q 727 227 733 290 q 689 106 721 164 q 634 35 667 67 q 560 -18 601 4 q 474 -52 519 -40 q 382 -64 429 -64 q 275 -40 326 -60 q 176 9 224 -19 q 87 72 129 38 q 7 142 44 107 q -5 180 -6 158 q 5 223 -4 201 q 27 262 14 244 q 53 286 40 279 q 287 399 165 357 q 536 468 408 440 q 504 543 521 506 q 472 618 488 581 m 610 142 q 613 239 622 189 q 589 333 604 289 q 376 286 482 314 q 175 215 271 258 q 281 140 224 174 q 406 96 339 107 q 472 90 440 92 q 531 93 504 89 q 578 109 558 97 q 610 142 599 121 z "},"I":{"ha":668,"x_min":-8,"x_max":663,"o":"m 33 785 q -1 797 6 776 q -1 844 -8 817 q 24 898 7 872 q 61 928 42 924 q 156 947 110 943 q 264 944 203 951 q 446 876 368 933 q 573 737 524 819 q 642 556 622 654 q 651 361 663 457 q 597 168 642 265 q 471 0 551 71 q 384 -55 432 -36 q 285 -78 336 -74 q 180 -75 233 -82 q 76 -51 126 -68 q 62 -18 60 -43 q 77 33 64 7 q 113 76 90 58 q 158 88 135 94 q 243 72 197 76 q 338 75 289 67 q 428 120 390 89 q 492 194 467 151 q 528 291 517 238 q 542 404 540 344 q 504 581 543 496 q 392 721 465 665 q 308 776 351 757 q 219 801 265 794 q 127 802 174 807 q 33 785 81 797 z "},"J":{"ha":1094,"x_min":-231,"x_max":1129,"o":"m -168 410 q -208 394 -189 394 q -226 410 -226 394 q -226 445 -231 426 q -212 481 -221 464 q -190 515 -203 499 q -165 543 -178 531 q -78 631 -122 586 q 13 713 -35 675 q 115 781 61 751 q 233 824 169 811 q 317 827 276 832 q 394 808 357 822 q 465 771 432 793 q 526 724 499 749 q 709 512 629 628 q 847 268 789 396 q 972 278 911 275 q 1094 286 1033 282 q 1119 281 1111 288 q 1128 265 1126 275 q 1126 242 1129 254 q 1118 218 1122 229 q 1089 167 1111 193 q 1040 142 1067 142 q 973 133 1007 138 q 904 126 939 129 q 951 -40 932 44 q 977 -207 971 -124 q 975 -372 983 -290 q 939 -531 967 -454 q 868 -678 910 -611 q 768 -792 826 -746 q 633 -858 710 -837 q 458 -865 557 -878 q 305 -826 382 -853 q 159 -757 228 -799 q 34 -658 90 -715 q -57 -531 -22 -601 q -92 -385 -86 -460 q -84 -241 -99 -311 q -35 -108 -69 -171 q 53 6 0 -44 q 171 94 108 57 q 300 157 233 131 q 435 201 367 183 q 571 231 504 218 q 631 241 601 236 q 692 250 661 246 q 563 457 636 360 q 393 624 489 554 q 315 665 350 650 q 249 683 281 679 q 188 680 218 686 q 122 657 157 674 q -31 540 39 604 q -168 410 -101 476 m 782 39 q 768 75 775 57 q 754 113 761 93 q 470 69 610 97 q 200 -26 331 40 q 66 -133 121 -67 q 11 -285 11 -199 q 40 -397 15 -343 q 104 -498 65 -451 q 192 -581 143 -544 q 290 -643 240 -618 q 426 -690 349 -672 q 580 -704 504 -707 q 719 -674 656 -701 q 815 -586 783 -647 q 862 -438 853 -519 q 862 -273 871 -357 q 830 -108 853 -189 q 782 39 807 -28 z "},"K":{"ha":1157,"x_min":-61,"x_max":1415,"o":"m 93 518 q 108 573 93 543 q 151 618 124 603 q 185 623 176 636 q 194 586 194 610 l 194 542 q 788 823 490 682 q 1382 1111 1086 964 q 1403 1115 1396 1119 q 1413 1100 1410 1110 q 1415 1078 1415 1090 q 1414 1057 1414 1065 q 1394 1008 1410 1032 q 1349 968 1379 983 q 774 688 1061 824 q 193 415 486 551 l 193 392 q 426 281 310 333 q 665 183 542 228 q 840 136 749 158 q 1024 106 931 114 q 1088 106 1053 106 q 1157 113 1122 107 q 1224 128 1192 118 q 1279 160 1256 139 q 1294 176 1285 168 q 1313 185 1303 183 q 1329 182 1322 188 q 1336 160 1336 176 q 1332 105 1346 136 q 1293 50 1318 74 q 1143 -31 1226 -10 q 970 -47 1060 -51 q 791 -21 881 -43 q 621 26 701 1 q 401 113 508 65 q 186 213 294 161 q 176 102 182 157 q 161 -7 171 47 q 138 -61 154 -33 q 93 -97 121 -89 q 68 -97 76 -101 q 57 -82 60 -92 q 56 -61 54 -72 q 61 -42 57 -50 q 80 110 74 36 q 89 258 86 183 q 24 288 57 274 q -40 318 -8 303 q -60 349 -61 326 q -45 395 -58 371 q -10 440 -32 419 q 29 463 11 460 q 60 477 44 469 q 93 493 76 485 l 93 518 l 93 518 z "},"L":{"ha":897,"x_min":39,"x_max":1024,"o":"m 374 928 q 383 947 378 936 q 399 965 389 957 q 421 976 408 972 q 453 972 433 979 q 462 937 472 961 q 439 883 451 913 q 378 740 413 821 q 310 574 344 660 q 242 404 275 489 q 186 249 210 319 q 386 179 285 206 q 588 151 488 153 q 786 179 688 150 q 978 278 885 208 q 1010 283 996 296 q 1024 244 1024 269 q 1008 191 1024 221 q 968 144 993 161 q 750 33 864 65 q 519 3 636 0 q 286 38 403 6 q 60 121 169 71 q 41 146 43 132 q 53 190 39 160 q 117 367 78 271 q 200 563 156 464 q 290 758 244 663 q 374 928 336 853 z "},"M":{"ha":1939,"x_min":79,"x_max":1833,"o":"m 258 244 q 247 185 263 219 q 210 126 232 151 q 167 94 189 101 q 136 115 146 86 q 94 367 108 242 q 99 628 79 493 q 109 673 100 647 q 133 721 118 699 q 166 755 147 743 q 208 757 185 767 q 304 696 256 728 q 402 634 353 664 q 501 578 451 604 q 601 538 551 553 q 816 508 714 500 q 1018 564 918 515 q 1186 667 1106 607 q 1345 790 1267 726 q 1504 915 1424 854 q 1672 1024 1585 976 q 1699 1037 1689 1038 q 1721 1024 1710 1036 q 1774 923 1753 976 q 1809 812 1796 869 q 1828 695 1822 754 q 1833 579 1833 636 q 1826 454 1831 513 q 1815 339 1821 396 q 1800 222 1808 282 q 1782 90 1792 161 q 1762 26 1775 58 q 1721 -26 1749 -7 q 1699 -36 1711 -36 q 1678 -30 1688 -36 q 1665 -12 1669 -24 q 1664 13 1660 -1 q 1683 231 1671 118 q 1701 439 1694 344 q 1701 605 1708 526 q 1682 740 1694 683 q 1653 828 1669 797 q 1625 853 1638 858 q 1460 734 1539 799 q 1303 606 1382 669 q 1139 483 1224 542 q 957 385 1054 425 q 747 333 856 344 q 529 360 639 321 q 366 434 443 388 q 214 529 289 481 q 229 386 217 457 q 258 244 242 315 z "},"N":{"ha":1157,"x_min":71,"x_max":1124,"o":"m 232 175 q 217 116 232 147 q 183 65 201 85 q 161 49 174 57 q 137 40 149 42 q 117 43 125 38 q 110 65 110 49 q 83 380 94 221 q 82 703 71 539 q 91 738 82 715 q 115 779 100 760 q 151 810 131 799 q 194 811 171 821 q 364 728 283 779 q 517 615 444 678 q 656 483 590 553 q 778 343 721 413 q 886 207 836 274 q 979 86 936 140 q 990 101 986 85 q 996 146 994 118 q 996 209 997 174 q 991 280 994 244 q 983 348 988 315 q 974 403 979 381 q 840 786 938 604 q 844 835 832 804 q 877 892 857 867 q 919 929 897 918 q 950 919 940 940 q 1052 686 1008 811 q 1110 433 1096 561 q 1099 179 1124 304 q 999 -54 1075 54 q 966 -85 989 -72 q 924 -87 943 -99 q 776 96 856 4 q 617 269 697 188 q 461 421 536 351 q 328 538 386 490 q 236 604 271 585 q 201 608 201 624 q 210 393 201 500 q 232 175 218 286 z "},"O":{"ha":1208,"x_min":44,"x_max":1161,"o":"m 553 726 q 584 727 571 736 q 600 690 597 718 q 584 633 600 663 q 542 583 568 603 q 494 551 518 565 q 443 524 469 538 q 390 495 417 510 q 335 463 363 481 q 282 427 310 444 q 228 390 254 410 q 186 333 194 364 q 190 276 178 303 q 234 227 203 249 q 311 199 265 206 q 453 192 379 188 q 602 215 528 197 q 746 263 676 233 q 876 331 815 293 q 929 365 899 343 q 987 415 960 388 q 1031 473 1014 442 q 1043 536 1049 504 q 1023 598 1039 571 q 982 647 1007 625 q 926 685 957 668 q 863 715 896 701 q 694 751 783 740 q 517 761 606 761 q 487 786 489 761 q 497 842 485 811 q 532 900 510 872 q 576 932 554 928 q 738 926 658 932 q 900 893 818 921 q 963 868 926 885 q 1033 826 999 851 q 1097 770 1068 801 q 1142 703 1126 739 q 1160 613 1158 658 q 1150 526 1161 568 q 1117 442 1139 483 q 1068 365 1096 401 q 787 140 950 221 q 433 31 624 58 q 356 26 396 26 q 278 30 317 25 q 202 47 239 35 q 133 81 165 58 q 56 202 68 133 q 71 343 44 271 q 163 474 107 419 q 285 571 219 528 q 421 650 351 614 q 553 726 490 686 z "},"P":{"ha":1157,"x_min":36,"x_max":1107,"o":"m 271 64 q 267 5 278 36 q 238 -50 257 -26 q 219 -64 231 -58 q 196 -70 207 -69 q 175 -65 185 -71 q 163 -44 165 -60 q 128 97 147 26 q 92 237 110 167 q 60 377 74 307 q 40 519 46 447 q 44 651 36 582 q 74 785 51 721 q 135 902 96 849 q 232 986 174 956 q 462 1044 342 1039 q 700 1024 582 1049 q 804 1001 750 1015 q 911 965 858 986 q 1012 913 964 943 q 1096 843 1060 883 q 1106 810 1104 833 q 1096 772 1107 788 q 1018 665 1064 714 q 917 576 972 615 q 801 507 863 536 q 676 460 739 478 q 559 435 622 446 q 431 422 496 424 q 302 434 365 421 q 185 483 239 447 q 176 494 179 488 q 201 385 186 439 q 228 279 215 332 q 253 173 242 226 q 271 64 265 119 m 246 854 q 181 789 200 831 q 160 699 163 747 q 163 603 157 651 q 172 519 168 556 q 183 567 172 542 q 211 613 194 593 q 246 641 228 632 q 279 639 264 650 q 369 599 321 611 q 469 585 418 588 q 574 588 521 583 q 676 601 626 593 q 772 633 719 614 q 869 672 825 651 q 938 711 913 693 q 956 739 964 729 q 806 819 892 788 q 640 867 719 851 q 545 883 596 876 q 443 889 494 889 q 341 881 392 889 q 246 854 290 872 z "},"Q":{"ha":1157,"x_min":17,"x_max":1222,"o":"m 864 1022 q 885 1010 879 1022 q 888 978 890 997 q 877 938 886 960 q 856 899 868 917 q 949 871 904 890 q 1031 819 993 851 q 1084 760 1061 794 q 1123 685 1107 725 q 1149 603 1139 646 q 1163 519 1158 560 q 1144 321 1167 421 q 1072 131 1121 221 q 1144 51 1108 92 q 1214 -31 1179 11 q 1211 -82 1222 -49 q 1181 -144 1200 -115 q 1139 -185 1161 -172 q 1104 -176 1117 -199 q 1036 -93 1071 -133 q 965 -14 1001 -53 q 890 -79 931 -50 q 804 -129 850 -108 q 610 -167 706 -169 q 428 -130 514 -165 q 267 -32 342 -94 q 133 113 192 31 q 47 270 76 183 q 24 447 17 357 q 81 617 35 539 q 190 760 128 696 q 339 869 258 822 q 506 949 419 917 q 683 1000 593 982 q 864 1022 774 1018 m 540 399 q 533 426 532 408 q 542 463 535 443 q 563 503 550 483 q 591 535 576 522 q 620 552 606 549 q 647 543 635 556 q 826 372 736 456 q 1004 200 917 288 q 1019 238 1013 218 q 1031 279 1026 257 q 1042 372 1040 324 q 1037 468 1044 421 q 1010 559 1029 515 q 960 639 992 603 q 898 698 933 675 q 822 733 863 721 q 738 749 782 746 q 647 749 693 753 q 627 750 635 743 q 617 770 619 757 q 616 799 614 783 q 625 831 618 815 q 628 835 626 833 q 631 840 629 838 q 531 818 579 832 q 433 785 482 804 q 360 747 397 765 q 288 706 322 728 q 226 660 254 685 q 182 603 199 635 q 143 486 146 546 q 161 369 140 426 q 222 258 182 311 q 312 159 263 204 q 414 81 361 114 q 515 29 467 47 q 712 1 613 -8 q 890 63 811 10 q 716 230 804 149 q 540 399 628 311 z "},"R":{"ha":1350,"x_min":-18,"x_max":1526,"o":"m 365 140 q 367 90 378 121 q 336 33 357 58 q 292 -4 315 7 q 256 7 268 -15 q 182 150 219 79 q 110 293 144 221 q 44 440 75 365 q -10 596 13 515 q -3 661 -18 624 q 51 714 13 699 q 203 790 124 760 q 367 840 283 821 q 538 870 451 860 q 710 885 624 881 q 1028 874 864 894 q 1346 799 1192 854 q 1365 765 1364 789 q 1355 713 1365 740 q 1326 663 1344 686 q 1288 632 1307 639 q 1166 593 1225 608 q 1050 567 1107 578 q 938 546 993 556 q 831 524 883 536 q 651 483 740 504 q 486 422 561 463 q 707 283 583 333 q 965 206 831 232 q 1238 169 1100 179 q 1501 151 1375 160 q 1522 139 1517 151 q 1523 108 1526 126 q 1510 69 1519 90 q 1488 30 1501 47 q 1460 2 1475 13 q 1429 -6 1444 -8 q 1237 8 1336 1 q 1037 27 1138 14 q 837 62 936 40 q 646 120 738 83 q 472 211 554 157 q 325 343 390 265 q 318 368 317 353 q 326 400 319 383 q 347 434 333 417 q 375 464 360 451 q 522 561 443 524 q 684 624 600 599 q 856 665 768 649 q 1032 699 944 681 q 834 717 933 714 q 639 714 735 721 q 378 693 508 714 q 133 622 249 672 q 183 500 154 560 q 242 381 211 440 q 306 263 274 322 q 365 140 338 203 z "},"S":{"ha":1165,"x_min":-76,"x_max":1142,"o":"m 1029 825 q 1047 785 1050 813 q 1027 732 1043 758 q 989 688 1011 706 q 951 679 967 671 q 779 788 865 742 q 594 842 693 835 q 593 803 582 833 q 633 732 604 774 q 707 644 663 690 q 804 556 751 597 q 972 408 886 481 q 1129 242 1058 335 q 1139 205 1142 225 q 1126 166 1136 185 q 1100 131 1115 147 q 1072 107 1085 115 q 857 -12 972 25 q 624 -47 742 -49 q 395 -5 507 -44 q 190 106 283 35 q 27 276 96 176 q -72 500 -42 376 q -62 551 -76 521 q -30 602 -49 581 q 6 631 -11 624 q 28 613 24 638 q 133 419 69 501 q 272 281 197 338 q 429 191 347 225 q 590 140 511 157 q 740 120 669 122 q 865 124 811 118 q 948 144 918 131 q 976 172 978 157 q 866 279 926 228 q 745 382 806 331 q 631 488 685 433 q 539 604 576 543 q 485 736 501 665 q 488 892 469 807 q 513 958 497 928 q 569 996 529 989 q 697 992 636 1004 q 815 956 758 981 q 924 897 871 932 q 1029 825 978 863 z "},"T":{"ha":1157,"x_min":-203,"x_max":1400,"o":"m -171 649 q -198 663 -193 643 q -194 710 -203 683 q -165 764 -186 738 q -112 797 -143 790 q 244 835 65 815 q 608 873 424 856 q 981 901 792 890 q 1369 913 1171 913 q 1397 890 1394 913 q 1388 840 1400 867 q 1355 790 1376 813 q 1313 767 1333 767 q 1178 761 1263 761 q 1002 756 1094 761 q 820 738 910 751 q 669 692 731 724 q 585 606 607 661 q 604 465 563 551 q 697 321 642 401 q 843 126 753 240 q 849 85 857 114 q 824 29 842 56 q 782 -9 806 3 q 742 0 758 -21 q 648 110 688 60 q 579 203 608 160 q 529 288 550 247 q 490 371 508 329 q 454 474 467 426 q 445 563 442 521 q 472 640 449 604 q 540 707 494 675 q 184 677 361 692 q -171 649 7 663 z "},"U":{"ha":1314,"x_min":89,"x_max":1300,"o":"m 89 631 q 105 687 89 657 q 149 735 121 717 q 189 739 172 751 q 206 700 206 726 q 210 601 206 660 q 228 481 214 543 q 266 358 242 418 q 328 254 290 297 q 440 182 379 194 q 569 188 500 169 q 740 278 658 221 q 890 409 821 336 q 1013 565 958 482 q 1107 735 1068 649 q 1128 756 1114 743 q 1157 775 1142 768 q 1186 780 1172 782 q 1208 757 1200 778 q 1235 633 1221 706 q 1261 482 1249 560 q 1284 328 1274 404 q 1300 197 1294 253 q 1285 133 1300 163 q 1253 85 1271 103 q 1240 75 1249 81 q 1220 67 1231 69 q 1199 69 1210 65 q 1185 85 1189 72 q 1172 189 1181 129 q 1153 313 1164 249 q 1131 437 1143 376 q 1111 542 1119 497 q 1031 407 1079 475 q 919 276 982 339 q 837 198 881 239 q 746 120 793 157 q 647 55 699 83 q 542 14 596 26 q 451 2 497 1 q 359 15 404 3 q 274 53 314 28 q 206 117 235 78 q 138 231 161 168 q 103 360 114 293 q 91 497 93 428 q 89 631 89 567 z "},"V":{"ha":1281,"x_min":7,"x_max":1432,"o":"m 25 481 q 10 522 7 493 q 30 579 14 551 q 69 624 46 607 q 114 628 93 640 q 282 520 199 575 q 449 410 365 465 q 617 303 533 356 q 789 204 701 250 q 898 396 838 293 q 1028 603 958 499 q 1176 810 1099 708 q 1335 999 1253 911 q 1349 1013 1339 1003 q 1371 1028 1360 1022 q 1394 1035 1382 1035 q 1414 1022 1406 1035 q 1424 976 1432 999 q 1392 918 1417 954 q 1320 828 1364 886 q 1224 699 1276 771 q 1115 544 1171 626 q 1006 380 1058 461 q 908 224 953 299 q 833 93 863 150 q 821 72 829 83 q 802 50 813 60 q 779 35 792 40 q 754 36 767 31 q 563 138 656 83 q 380 249 469 192 q 202 365 290 307 q 25 481 114 424 z "},"W":{"ha":1583,"x_min":49,"x_max":1529,"o":"m 114 618 q 142 676 122 650 q 193 718 161 703 q 214 719 207 724 q 224 704 221 714 q 228 682 228 694 q 229 661 229 669 q 206 573 221 631 q 179 451 192 515 q 160 326 167 386 q 158 229 153 265 q 197 182 169 186 q 251 196 224 178 q 358 285 313 231 q 446 389 403 339 q 550 533 504 458 q 640 685 596 608 q 654 706 644 693 q 677 730 664 719 q 705 743 690 740 q 732 733 719 746 q 806 607 774 672 q 867 475 838 542 q 929 343 897 408 q 1004 218 961 278 q 1043 172 1022 196 q 1088 126 1064 147 q 1140 88 1113 104 q 1197 68 1168 72 q 1276 84 1244 61 q 1328 150 1308 107 q 1357 253 1347 193 q 1369 378 1367 313 q 1372 511 1372 443 q 1369 640 1371 579 q 1360 853 1367 743 q 1344 1075 1354 963 q 1355 1131 1344 1100 q 1392 1181 1365 1163 q 1415 1187 1399 1183 q 1448 1190 1431 1190 q 1481 1183 1465 1190 q 1500 1160 1496 1176 q 1523 822 1517 999 q 1522 481 1529 644 q 1508 347 1518 411 q 1477 223 1497 283 q 1424 107 1457 163 q 1340 0 1392 51 q 1298 -39 1324 -21 q 1242 -69 1272 -57 q 1179 -84 1211 -81 q 1118 -79 1147 -87 q 1055 -54 1083 -71 q 1002 -16 1026 -37 q 956 31 978 6 q 913 82 933 57 q 858 173 886 118 q 801 287 829 228 q 749 402 774 346 q 704 498 724 458 q 672 554 685 538 q 657 551 658 571 q 567 410 615 479 q 465 275 519 340 q 413 213 440 246 q 353 148 385 179 q 285 90 321 117 q 206 46 249 64 q 122 28 154 21 q 74 67 90 36 q 53 146 57 97 q 53 251 49 194 q 66 365 57 307 q 85 475 75 424 q 103 565 94 526 q 114 618 111 603 z "},"X":{"ha":906,"x_min":-106,"x_max":990,"o":"m -25 679 q -30 721 -37 692 q -4 775 -22 750 q 38 813 14 800 q 78 804 61 825 q 215 667 144 740 q 361 514 286 593 q 542 656 456 582 q 704 817 629 729 q 718 835 708 825 q 738 850 728 844 q 758 854 749 856 q 772 839 768 853 q 783 817 782 831 q 779 788 783 803 q 767 760 775 774 q 750 738 758 746 q 598 581 678 654 q 432 440 518 507 q 565 306 497 372 q 700 176 632 239 q 836 58 768 114 q 972 -42 904 3 q 984 -85 990 -56 q 960 -144 978 -115 q 920 -189 943 -172 q 881 -193 897 -206 q 589 51 736 -90 q 299 342 442 193 q 119 219 210 279 q -61 99 29 160 q -92 89 -78 82 q -106 121 -106 96 q -90 182 -106 154 q -49 235 -75 210 q 88 327 19 282 q 225 418 156 372 q 96 554 158 489 q -25 679 33 619 z "},"Y":{"ha":1283,"x_min":31,"x_max":1224,"o":"m 114 917 q 122 935 117 925 q 136 956 128 946 q 155 972 144 965 q 176 979 165 979 q 190 971 186 979 q 193 952 193 963 q 190 931 193 942 q 185 917 188 921 q 158 810 169 864 q 139 704 146 757 q 131 622 132 667 q 138 535 129 576 q 165 460 146 493 q 219 410 185 426 q 366 382 289 376 q 522 419 443 388 q 678 501 601 450 q 825 609 756 551 q 952 726 894 667 q 1049 833 1010 785 q 1095 881 1072 863 q 1138 903 1118 899 q 1173 899 1158 908 q 1193 865 1188 890 q 1209 742 1200 817 q 1221 583 1218 668 q 1217 406 1224 497 q 1185 233 1210 315 q 1116 82 1161 150 q 997 -26 1071 14 q 684 -98 846 -111 q 361 26 522 -85 q 354 60 349 42 q 376 94 360 78 q 415 126 392 111 q 462 150 439 140 q 505 163 485 160 q 535 160 525 165 q 684 94 618 118 q 801 64 750 71 q 890 64 851 57 q 957 90 928 71 q 1018 156 994 114 q 1055 251 1042 199 q 1072 362 1068 303 q 1076 478 1076 421 q 1069 586 1075 535 q 1058 675 1064 638 q 1027 633 1044 657 q 994 594 1010 610 q 834 444 914 514 q 667 324 754 375 q 480 242 579 272 q 263 211 381 213 q 135 258 183 218 q 63 357 88 297 q 34 491 38 417 q 40 641 31 565 q 70 789 50 717 q 114 917 90 861 z "},"Z":{"ha":1308,"x_min":51,"x_max":1342,"o":"m 121 672 q 92 695 94 672 q 102 745 90 718 q 135 795 114 772 q 178 818 157 818 q 450 824 315 818 q 718 833 585 831 q 985 828 851 835 q 1251 796 1118 821 q 1282 768 1281 790 q 1270 720 1283 746 q 1237 673 1257 694 q 1204 647 1217 651 q 963 553 1092 594 q 706 471 835 513 q 453 379 576 429 q 225 258 329 329 q 415 202 328 225 q 583 166 503 179 q 742 148 664 153 q 905 146 819 143 q 1087 159 990 149 q 1300 188 1183 169 q 1335 170 1329 192 q 1333 121 1342 149 q 1306 68 1325 93 q 1265 39 1286 43 q 1006 3 1136 18 q 733 -4 876 -11 q 427 40 589 3 q 72 160 265 78 q 53 185 54 169 q 59 218 51 200 q 81 253 67 236 q 108 286 96 271 q 287 426 189 367 q 491 532 385 486 q 708 613 597 578 q 922 679 818 647 q 722 685 822 685 q 520 682 621 685 q 319 676 419 679 q 121 672 219 672 z "},"a":{"ha":994,"x_min":17,"x_max":957,"o":"m 639 504 q 663 477 658 497 q 660 432 667 457 q 713 478 686 456 q 767 519 739 500 q 794 527 782 529 q 822 504 807 525 q 861 446 843 479 q 896 375 879 413 q 926 299 913 338 q 950 222 939 260 q 948 155 957 190 q 893 81 939 119 q 869 69 882 75 q 845 61 857 63 q 824 67 833 60 q 808 94 814 74 q 764 217 789 151 q 700 335 739 283 q 655 275 675 303 q 608 218 635 247 q 543 157 581 189 q 446 85 506 125 q 367 45 408 64 q 284 15 326 26 q 199 5 242 4 q 115 24 157 6 q 32 116 47 58 q 35 236 17 174 q 97 358 54 299 q 188 456 139 418 q 404 546 288 535 q 639 504 521 557 m 342 208 q 443 256 396 226 q 535 322 490 286 q 447 352 493 339 q 354 367 400 365 q 265 356 308 369 q 186 307 222 343 q 165 246 154 269 q 206 210 175 222 q 276 197 236 197 q 342 208 315 197 z "},"b":{"ha":1176,"x_min":31,"x_max":1199,"o":"m 589 568 q 531 511 564 532 q 465 501 497 490 q 458 520 456 504 q 469 556 461 536 q 488 594 478 575 q 504 625 499 614 q 520 680 514 646 q 526 752 526 714 q 515 828 525 790 q 485 896 506 867 q 424 940 458 928 q 353 949 389 953 q 283 928 318 946 q 222 885 249 911 q 171 778 181 843 q 173 644 161 714 q 213 508 185 574 q 278 399 242 442 q 354 319 314 354 q 441 256 394 285 q 542 202 488 226 q 660 157 596 178 q 701 149 676 151 q 751 147 726 146 q 799 153 776 147 q 831 172 821 160 q 840 208 838 185 q 835 258 842 231 q 808 316 828 286 q 751 372 789 346 q 735 416 731 388 q 759 472 740 444 q 803 521 778 500 q 850 542 829 542 q 917 535 871 547 q 1013 506 963 524 q 1110 468 1064 488 q 1176 439 1156 449 q 1198 401 1197 433 q 1184 332 1199 368 q 1143 269 1169 296 q 1085 247 1117 242 q 1065 258 1082 249 q 1027 277 1047 267 q 988 297 1007 288 q 963 306 969 306 q 975 216 978 263 q 943 115 972 169 q 878 44 917 72 q 797 -1 840 15 q 706 -23 753 -18 q 618 -22 660 -28 q 459 19 533 -12 q 323 96 385 51 q 213 194 261 140 q 131 304 164 249 q 86 394 107 343 q 52 500 65 444 q 35 610 39 556 q 42 714 31 665 q 72 817 51 767 q 124 912 93 868 q 195 990 154 956 q 289 1046 236 1025 q 381 1076 326 1067 q 491 1079 436 1085 q 592 1051 546 1074 q 657 990 638 1029 q 681 892 679 950 q 672 774 683 835 q 638 658 660 714 q 589 568 615 603 z "},"c":{"ha":654,"x_min":53,"x_max":799,"o":"m 500 582 q 522 561 518 578 q 522 522 526 544 q 504 475 517 500 q 474 431 492 450 q 438 401 457 411 q 401 399 419 392 q 351 408 381 404 q 292 411 321 413 q 238 401 263 410 q 203 371 214 392 q 196 324 192 350 q 212 275 200 299 q 241 231 224 251 q 274 200 258 211 q 385 151 326 158 q 501 158 444 143 q 612 202 558 172 q 708 264 665 232 q 738 280 722 274 q 767 285 754 286 q 790 278 781 285 q 799 254 799 271 q 780 187 799 211 q 726 129 761 163 q 634 64 689 96 q 517 8 579 32 q 388 -24 454 -15 q 262 -21 322 -33 q 153 31 201 -8 q 76 144 104 69 q 54 235 56 186 q 66 331 53 283 q 104 422 79 379 q 161 497 129 465 q 320 588 236 572 q 500 582 404 604 z "},"!":{"ha":554,"x_min":111,"x_max":406,"o":"m 150 -22 q 120 -11 129 -24 q 112 22 111 1 q 122 65 113 42 q 144 110 131 89 q 174 148 157 132 q 210 167 192 164 q 278 176 236 172 q 365 185 321 181 q 400 162 394 188 q 394 102 406 136 q 358 37 382 68 q 306 -3 335 6 q 240 -14 282 -8 q 150 -22 199 -19 m 118 1099 q 124 1153 111 1124 q 151 1200 136 1183 q 160 1215 151 1204 q 181 1233 169 1225 q 203 1244 192 1242 q 219 1233 215 1246 q 279 1030 256 1133 q 317 822 303 926 q 336 610 331 717 q 342 399 342 504 q 321 345 342 374 q 275 301 300 317 q 258 291 267 292 q 243 296 250 290 q 232 312 236 301 q 228 335 228 322 q 222 517 228 426 q 207 700 217 608 q 176 904 192 801 q 118 1099 160 1007 z "},",":{"ha":490,"x_min":142,"x_max":361,"o":"m 178 57 q 165 92 161 65 q 185 145 169 118 q 223 191 200 172 q 267 201 246 210 q 335 152 314 185 q 359 78 357 119 q 348 -8 361 38 q 313 -95 335 -53 q 263 -174 290 -137 q 211 -232 236 -210 q 192 -242 203 -236 q 173 -249 182 -247 q 156 -248 164 -251 q 146 -232 149 -244 q 144 -199 142 -215 q 154 -169 147 -183 q 171 -142 161 -154 q 189 -122 181 -131 q 230 -75 214 -101 q 247 -24 246 -49 q 231 23 247 1 q 178 57 215 44 z "},"?":{"ha":846,"x_min":142,"x_max":825,"o":"m 696 757 q 626 839 676 796 q 513 913 576 882 q 382 951 450 943 q 258 926 314 958 q 237 908 244 918 q 224 886 229 897 q 214 865 218 875 q 201 846 210 854 q 183 834 193 836 q 163 835 172 832 q 148 847 154 839 q 142 868 142 856 q 183 982 147 939 q 270 1046 218 1025 q 385 1068 322 1067 q 511 1056 449 1069 q 631 1018 574 1043 q 726 963 688 993 q 819 823 814 894 q 775 676 825 751 q 706 604 747 635 q 615 550 664 574 q 511 510 565 526 q 403 481 457 493 q 449 438 425 458 q 501 397 472 417 q 512 356 518 385 q 489 301 506 328 q 450 258 472 275 q 411 254 428 242 q 305 349 350 296 q 217 460 260 403 q 209 492 207 472 q 221 531 211 511 q 247 568 231 551 q 283 590 263 585 q 492 638 389 610 q 683 719 594 667 q 697 737 690 726 q 696 757 703 747 m 283 -22 q 253 -11 263 -24 q 245 22 244 1 q 255 65 246 42 q 277 110 264 89 q 308 148 290 132 q 343 167 325 164 q 412 176 369 172 q 499 185 454 181 q 533 162 528 188 q 527 102 539 136 q 492 37 515 68 q 439 -3 468 6 q 374 -14 415 -8 q 283 -22 332 -19 z "},"":{"ha":778,"x_min":133,"x_max":722,"o":"m 150 514 q 138 548 133 522 q 157 601 142 574 q 195 647 172 628 q 239 657 218 665 q 339 585 290 624 q 436 510 388 547 q 534 602 485 557 q 639 690 583 647 q 680 694 664 707 q 696 657 696 682 q 675 603 696 632 q 628 556 654 575 q 570 507 600 532 q 511 454 540 482 q 605 394 557 422 q 706 347 653 367 q 718 312 722 339 q 699 257 714 285 q 661 210 683 229 q 618 200 639 192 q 501 258 556 224 q 393 333 446 293 q 326 265 361 301 q 261 179 292 229 q 227 126 246 149 q 183 103 208 103 q 166 112 171 103 q 161 133 161 121 q 165 158 161 146 q 172 179 168 171 q 235 287 194 232 q 321 390 276 342 q 238 454 281 422 q 150 514 196 486 z "},"+":{"ha":1157,"x_min":81,"x_max":1058,"o":"m 101 257 q 81 286 81 261 q 93 340 81 311 q 126 390 106 368 q 168 413 147 413 q 334 410 253 406 q 496 431 415 415 q 484 564 489 497 q 479 701 479 631 q 485 728 479 714 q 499 756 490 742 q 516 781 507 769 q 533 801 525 793 q 575 806 558 818 q 592 769 592 793 q 598 613 592 690 q 613 456 604 535 q 818 524 717 483 q 1024 613 919 564 q 1044 611 1036 617 q 1054 597 1051 606 q 1058 577 1057 588 q 1058 558 1058 567 q 1031 500 1049 524 q 978 469 1013 476 q 625 328 806 385 q 632 226 629 276 q 635 122 635 175 q 629 97 635 111 q 615 70 624 83 q 597 45 607 57 q 579 25 588 33 q 540 20 554 7 q 525 58 525 33 q 521 177 525 118 q 510 297 517 236 q 308 263 410 274 q 101 257 207 253 z "},"=":{"ha":1122,"x_min":265,"x_max":910,"o":"m 288 421 q 266 445 267 425 q 277 489 265 465 q 308 531 289 513 q 343 550 326 550 q 599 534 469 536 q 861 532 729 532 q 879 512 879 532 q 869 467 879 492 q 841 423 858 443 q 806 403 824 403 l 288 421 m 329 215 q 311 234 311 215 q 322 276 311 253 q 350 317 332 299 q 386 336 368 336 q 638 338 513 336 q 890 354 763 340 q 905 351 900 358 q 910 333 910 344 q 907 309 910 321 q 900 290 904 297 q 891 274 896 283 q 878 255 886 264 q 858 240 869 246 q 833 233 847 233 q 581 217 707 219 q 329 215 456 215 z "},"#":{"ha":1157,"x_min":54,"x_max":1043,"o":"m 253 386 q 231 409 229 386 q 250 459 233 432 q 290 509 267 486 q 333 532 314 532 l 526 532 q 567 632 546 582 q 614 731 589 682 q 649 784 629 761 q 697 822 669 807 q 716 822 710 826 q 724 808 722 817 q 724 790 726 800 q 715 771 722 779 q 611 532 654 649 l 678 532 l 704 658 q 729 708 710 681 q 776 750 749 735 q 806 754 794 765 q 813 721 817 743 l 772 532 l 1021 532 q 1041 509 1043 532 q 1022 459 1039 486 q 981 409 1006 432 q 938 386 957 386 l 742 386 l 724 304 l 1013 304 q 1033 281 1036 304 q 1014 231 1031 258 q 974 181 997 204 q 931 158 950 158 l 693 158 l 679 94 q 653 45 674 72 q 607 3 633 18 q 573 -2 579 -14 q 571 32 567 10 l 599 158 l 506 158 l 501 138 q 475 87 496 114 q 429 43 454 60 q 394 40 401 28 q 393 75 388 51 l 411 158 l 78 158 q 57 181 54 158 q 76 231 60 204 q 117 281 93 258 q 161 304 142 304 l 450 304 q 475 386 461 347 l 253 386 m 564 386 q 551 345 557 365 q 539 304 544 325 l 629 304 l 647 386 l 564 386 z "},"":{"ha":554,"x_min":118,"x_max":482,"o":"m 379 50 q 403 36 400 54 q 399 -6 407 18 q 376 -51 392 -31 q 343 -75 361 -72 q 278 -94 308 -81 q 225 -131 247 -107 q 461 -147 338 -172 q 481 -170 479 -147 q 475 -211 482 -193 q 451 -249 469 -232 q 407 -272 433 -267 q 337 -279 374 -279 q 265 -274 300 -279 q 197 -258 229 -268 q 139 -237 164 -249 q 125 -224 129 -233 q 119 -205 121 -215 q 120 -186 118 -194 q 125 -174 122 -178 q 222 -32 160 -94 q 379 50 285 31 z "},"":{"ha":571,"x_min":121,"x_max":486,"o":"m 143 849 q 122 868 122 849 q 131 910 121 888 q 160 951 142 933 q 196 965 179 969 q 245 956 221 965 q 292 930 269 946 q 336 894 315 914 q 376 856 357 875 q 392 878 386 867 q 404 903 399 890 q 425 956 414 933 q 456 985 436 978 q 481 978 475 992 q 482 940 486 964 q 437 829 463 876 q 371 740 411 782 q 347 726 360 726 q 326 733 333 726 q 285 769 306 750 q 241 804 264 788 q 194 833 218 821 q 143 849 169 846 z "},"":{"ha":565,"x_min":160,"x_max":501,"o":"m 160 896 q 165 944 160 924 q 197 985 171 965 q 213 993 204 989 q 231 999 222 997 q 244 997 239 1000 q 250 985 250 994 q 260 949 254 968 q 275 914 265 931 q 299 887 285 897 q 332 876 313 876 q 389 907 367 883 q 432 958 411 931 q 442 974 436 965 q 456 990 449 983 q 474 998 464 996 q 493 994 483 1000 q 501 981 500 990 q 499 961 501 972 q 493 940 497 950 q 486 922 489 929 q 452 867 472 894 q 407 817 432 840 q 351 779 382 794 q 286 761 321 764 q 234 767 256 757 q 197 797 213 778 q 173 842 182 817 q 160 896 164 868 z "},"":{"ha":600,"x_min":150,"x_max":439,"o":"m 425 919 q 436 885 439 906 q 422 844 433 865 q 395 805 410 824 q 371 775 381 786 q 331 741 354 758 q 284 713 308 724 q 235 703 260 703 q 190 719 211 703 q 156 781 163 744 q 158 854 150 817 q 187 924 167 892 q 235 974 207 957 q 324 976 275 990 q 361 982 343 992 q 407 935 393 964 q 417 926 413 931 q 425 919 421 922 m 246 856 q 263 819 244 832 q 314 835 281 807 q 301 844 310 839 q 283 852 293 849 q 262 856 272 856 q 246 856 251 857 z "},"":{"ha":949,"x_min":219,"x_max":732,"o":"m 281 721 q 249 707 265 708 q 226 732 232 706 q 228 772 219 751 q 260 814 238 793 q 326 872 294 846 q 392 922 358 897 q 460 969 425 946 q 535 1019 494 992 q 569 1023 556 1033 q 582 992 582 1013 q 572 951 582 972 q 535 911 563 929 q 464 860 494 883 q 404 816 433 838 q 346 772 375 794 q 281 721 317 749 m 479 694 q 442 680 460 679 q 419 703 424 681 q 447 772 407 735 q 503 821 476 799 q 558 863 531 843 q 615 903 586 883 q 678 946 644 922 q 714 949 696 957 q 732 922 732 940 q 724 888 732 906 q 692 854 715 869 q 574 769 625 807 q 479 694 524 731 z "},"":{"ha":678,"x_min":169,"x_max":588,"o":"m 250 736 q 224 690 239 708 q 189 672 208 672 q 174 680 178 672 q 169 698 169 688 q 172 719 169 708 q 178 736 175 729 q 227 856 199 799 q 294 961 256 913 q 317 978 306 975 q 340 968 329 981 q 444 859 388 910 q 575 781 500 808 q 585 751 588 774 q 569 705 582 728 q 538 667 557 682 q 503 663 519 653 q 385 731 436 686 q 288 829 335 776 q 265 777 272 800 q 250 736 257 754 z "},"":{"ha":706,"x_min":153,"x_max":607,"o":"m 229 736 q 197 707 215 715 q 167 710 178 699 q 163 752 153 729 q 185 799 172 775 q 223 844 201 824 q 270 876 244 864 q 324 891 296 889 q 383 881 353 893 q 428 853 406 867 q 472 833 450 839 q 516 830 493 826 q 563 854 539 833 q 594 858 582 869 q 607 826 607 847 q 592 781 607 800 q 563 747 576 761 q 463 704 514 707 q 365 728 411 701 q 324 755 344 743 q 285 771 304 767 q 250 760 264 771 q 229 736 236 750 z "},"":{"ha":949,"x_min":219,"x_max":582,"o":"m 281 721 q 249 707 265 708 q 226 732 232 706 q 228 772 219 751 q 260 814 238 793 q 326 872 294 846 q 392 922 358 897 q 460 969 425 946 q 535 1019 494 992 q 569 1023 556 1033 q 582 992 582 1013 q 572 951 582 972 q 535 911 563 929 q 464 860 494 883 q 404 816 433 838 q 346 772 375 794 q 281 721 317 749 z "},"":{"ha":603,"x_min":64,"x_max":485,"o":"m 214 -57 q 215 -15 207 -40 q 238 31 224 11 q 269 58 253 50 q 296 50 286 67 q 313 17 306 33 q 329 -15 321 0 q 349 -44 338 -31 q 378 -67 360 -57 q 388 -99 390 -78 q 375 -140 386 -119 q 347 -174 364 -160 q 313 -183 329 -187 q 259 -181 286 -183 q 204 -182 232 -179 q 331 -225 263 -218 q 467 -218 400 -232 q 481 -224 476 -217 q 485 -242 485 -231 q 482 -265 485 -253 q 476 -283 479 -276 q 454 -321 469 -304 q 413 -337 439 -337 q 323 -346 375 -344 q 221 -337 271 -347 q 129 -305 171 -328 q 71 -239 88 -282 q 68 -195 64 -218 q 83 -151 72 -172 q 110 -112 94 -129 q 143 -83 126 -94 q 217 -61 176 -65 q 215 -59 215 -60 q 214 -57 215 -58 z "},"`":{"ha":722,"x_min":138,"x_max":589,"o":"m 575 860 q 584 826 589 849 q 567 781 579 803 q 538 745 554 758 q 511 743 521 732 q 426 801 471 776 q 335 849 382 826 q 241 896 288 872 q 150 949 194 919 q 142 982 138 958 q 160 1028 146 1006 q 191 1064 174 1050 q 222 1068 208 1078 q 308 1013 264 1038 q 399 966 353 989 q 489 918 444 943 q 575 860 533 893 z "},"":{"ha":489,"x_min":74,"x_max":642,"o":"m 81 238 q 90 303 74 268 q 131 361 107 338 q 178 390 156 385 q 208 365 201 394 q 229 308 218 339 q 253 248 240 278 q 285 190 267 218 q 331 142 304 163 q 458 106 394 99 q 585 156 521 114 q 624 163 606 167 q 642 126 642 158 q 622 62 642 94 q 571 0 603 29 q 499 -47 539 -28 q 415 -73 458 -65 q 328 -74 372 -81 q 246 -42 285 -67 q 135 81 171 11 q 81 238 99 151 z "},"":{"ha":489,"x_min":-6,"x_max":397,"o":"m 32 468 q 3 482 11 468 q -3 516 -6 496 q 9 560 -1 536 q 34 605 19 585 q 67 639 49 625 q 103 653 85 653 q 230 654 167 653 q 357 667 293 656 q 388 662 379 672 q 396 632 397 651 q 384 589 394 613 q 358 543 374 565 q 324 504 343 521 q 286 483 306 488 q 159 470 222 472 q 32 468 96 468 z "},"$":{"ha":1261,"x_min":88,"x_max":1129,"o":"m 735 997 q 749 1038 735 1014 q 783 1079 764 1063 q 818 1094 801 1096 q 839 1057 835 1093 q 841 976 842 1017 q 838 894 840 935 q 874 881 856 888 q 910 864 892 874 q 914 952 913 908 q 913 1040 915 996 q 928 1079 913 1054 q 964 1120 944 1104 q 999 1135 983 1136 q 1015 1100 1015 1135 q 1003 806 1021 951 q 1085 718 1051 767 q 1129 611 1118 669 q 1117 563 1129 589 q 1088 521 1104 536 q 1070 506 1079 513 q 1053 497 1061 499 q 1038 499 1044 494 q 1026 521 1031 504 q 1008 574 1022 544 q 974 628 994 603 q 949 517 963 572 q 918 408 935 463 q 1013 333 967 372 q 1100 250 1060 294 q 1111 218 1115 238 q 1094 179 1107 199 q 1065 144 1082 160 q 1036 125 1047 129 q 915 74 976 94 q 786 42 853 54 q 722 -109 754 -35 q 654 -258 689 -183 q 624 -310 640 -286 q 579 -333 607 -335 q 563 -324 567 -333 q 558 -303 558 -315 q 562 -279 558 -292 q 569 -258 565 -267 q 631 -117 600 -187 q 690 26 661 -46 q 642 22 667 24 q 594 21 618 21 q 565 -47 579 -14 q 536 -115 551 -81 q 505 -165 522 -143 q 467 -187 488 -186 q 451 -179 456 -187 q 447 -159 447 -171 q 450 -135 447 -147 q 457 -115 453 -122 q 485 -49 471 -82 q 513 18 499 -15 q 303 28 407 15 q 103 82 200 40 q 91 115 88 90 q 109 166 94 140 q 144 209 124 192 q 185 218 165 226 q 369 167 271 183 q 564 151 468 151 q 654 415 615 283 q 594 468 625 440 q 536 527 563 496 q 491 592 510 558 q 467 663 472 625 q 485 761 463 714 q 546 844 507 808 q 634 899 585 879 q 736 917 683 919 q 736 957 736 936 q 735 997 736 978 m 697 582 q 715 678 708 631 q 728 775 722 726 q 710 778 718 778 q 693 781 701 779 q 644 781 671 781 q 590 769 618 782 q 578 738 571 758 q 600 696 586 718 q 645 636 621 664 q 697 582 669 608 m 840 465 q 869 582 856 524 q 892 701 882 640 q 819 743 854 726 q 771 518 803 632 q 840 465 806 489 m 744 165 q 794 311 771 238 q 759 335 776 324 q 724 360 742 347 q 687 257 706 308 q 649 156 668 206 q 697 160 672 158 q 744 165 721 163 m 869 257 q 856 220 863 238 q 843 183 850 203 q 888 194 865 189 q 932 207 910 200 q 901 233 917 219 q 869 257 885 246 z "},"@":{"ha":1267,"x_min":68,"x_max":1199,"o":"m 872 250 q 879 219 879 238 l 1018 219 q 1061 233 1053 219 q 1060 266 1069 246 q 1027 311 1050 286 q 976 359 1004 336 q 920 400 949 382 q 872 426 892 418 q 746 469 810 449 q 610 489 682 489 q 509 479 560 489 q 411 451 458 469 q 322 405 364 432 q 249 343 279 378 q 214 297 232 328 q 185 228 196 265 q 174 152 174 190 q 197 85 175 114 q 284 4 232 33 q 395 -39 336 -25 q 516 -55 454 -53 q 632 -53 578 -57 q 651 -75 651 -53 q 640 -124 651 -97 q 610 -174 629 -151 q 571 -196 590 -196 q 474 -197 526 -199 q 367 -185 421 -194 q 263 -156 314 -175 q 172 -108 213 -137 q 104 -35 131 -78 q 72 65 78 7 q 90 209 68 138 q 151 344 111 281 q 245 462 190 408 q 361 551 300 515 q 583 625 464 607 q 819 615 703 643 q 906 586 858 606 q 1001 540 954 567 q 1089 480 1047 514 q 1158 405 1131 446 q 1192 317 1185 364 q 1178 219 1199 271 q 1147 165 1165 192 q 1103 119 1128 139 q 1048 86 1078 99 q 986 74 1018 74 l 404 74 q 384 91 389 74 q 383 126 379 108 q 422 216 399 172 q 478 295 446 260 q 552 354 511 331 q 643 386 593 378 q 785 357 722 393 q 872 250 849 321 m 622 250 q 575 238 600 246 q 531 219 550 231 l 714 219 q 622 250 672 250 z "},"":{"ha":1422,"x_min":-99,"x_max":1311,"o":"m 108 463 q 89 485 89 463 q 100 536 89 508 q 131 587 111 564 q 169 610 150 610 l 421 610 q 624 769 507 708 q 865 836 740 829 q 948 835 901 836 q 1043 827 994 833 q 1139 808 1092 821 q 1224 774 1186 796 q 1285 719 1261 751 q 1311 639 1308 686 q 1297 594 1311 619 q 1264 553 1282 569 q 1229 535 1246 536 q 1210 567 1213 535 q 1187 610 1207 592 q 1140 640 1167 628 q 1085 660 1113 653 q 1042 672 1058 668 q 912 692 979 686 q 781 690 844 697 q 663 663 717 683 q 558 607 610 643 q 788 600 674 604 q 1021 588 903 596 q 1040 560 1040 583 q 1028 510 1040 536 q 998 462 1017 483 q 960 440 979 440 q 691 456 825 451 q 421 461 557 460 q 408 400 408 432 l 408 393 q 679 377 544 381 q 950 400 814 374 q 976 384 972 404 q 972 336 981 364 q 945 283 963 308 q 908 254 928 258 q 700 232 804 235 q 490 236 596 229 q 551 200 518 215 q 620 175 585 185 q 692 160 656 165 q 761 151 728 154 q 989 149 872 144 q 1210 192 1106 154 q 1233 192 1224 196 q 1248 179 1243 188 q 1253 160 1253 171 q 1250 139 1254 149 q 1222 87 1242 108 q 1178 57 1201 65 q 1131 41 1154 49 q 1078 25 1108 33 q 806 -3 944 -7 q 532 46 667 0 q 478 66 506 54 q 424 94 450 78 q 378 133 399 111 q 346 181 358 154 q 331 215 338 197 q 319 250 324 232 q 120 268 219 260 q -79 276 21 276 q -99 299 -99 276 q -87 349 -99 322 q -56 399 -75 376 q -18 422 -37 422 q 147 416 65 422 q 313 401 229 410 q 319 432 315 417 q 328 463 322 447 l 108 463 l 108 463 z "},"":{"ha":1283,"x_min":31,"x_max":1467,"o":"m 940 368 q 922 369 928 364 q 913 383 915 375 q 909 402 910 392 q 908 419 908 413 q 933 476 915 451 q 982 515 950 500 q 1028 526 1006 522 q 1074 535 1050 531 q 1067 611 1071 575 q 1058 675 1063 647 q 1027 633 1044 657 q 994 594 1010 610 q 834 444 914 514 q 667 324 754 375 q 480 242 579 272 q 263 211 381 213 q 135 258 183 218 q 63 357 88 297 q 34 491 38 417 q 40 641 31 565 q 70 789 50 717 q 114 917 90 861 q 122 935 117 925 q 136 956 128 946 q 155 972 144 965 q 176 979 165 979 q 190 971 186 979 q 193 952 193 963 q 190 931 193 942 q 185 917 188 921 q 158 810 169 864 q 139 704 146 757 q 131 622 132 667 q 138 535 129 576 q 165 460 146 493 q 219 410 185 426 q 366 382 289 376 q 522 419 443 388 q 678 501 601 450 q 825 609 756 551 q 952 726 894 667 q 1049 833 1010 785 q 1095 881 1072 863 q 1138 903 1118 899 q 1173 899 1158 908 q 1193 865 1188 890 q 1210 727 1200 811 q 1221 546 1219 643 q 1319 546 1269 547 q 1425 542 1369 544 q 1444 518 1444 542 q 1433 467 1444 494 q 1403 416 1422 439 q 1365 394 1383 393 q 1288 399 1325 397 q 1215 401 1251 400 q 1213 374 1214 388 q 1208 344 1211 360 q 1326 357 1267 351 q 1447 363 1385 363 q 1467 340 1467 363 q 1455 290 1467 317 q 1423 240 1443 263 q 1382 218 1403 218 q 1274 212 1322 218 q 1174 197 1226 206 q 1106 67 1147 125 q 997 -26 1064 10 q 684 -98 846 -111 q 361 26 522 -85 q 354 60 349 42 q 376 94 360 78 q 415 126 392 111 q 462 150 439 140 q 505 163 485 160 q 535 160 525 165 q 684 94 618 118 q 801 64 750 71 q 890 64 851 57 q 957 90 928 71 q 998 128 981 106 q 1029 178 1015 150 q 951 173 993 175 q 858 171 908 171 q 838 194 839 171 q 849 244 838 217 q 880 294 861 271 q 918 317 899 317 q 992 321 954 318 q 1068 328 1031 324 q 1072 362 1071 344 q 1074 396 1072 379 q 1009 386 1042 393 q 940 368 976 379 z "},"":{"ha":1185,"x_min":71,"x_max":1258,"o":"m 143 406 q 116 422 119 401 q 121 470 113 443 q 147 523 129 497 q 185 553 165 549 q 283 567 233 563 q 382 575 332 572 q 319 744 344 658 q 299 925 294 831 q 304 954 299 936 q 320 989 310 972 q 347 1017 331 1006 q 382 1029 363 1029 q 600 994 488 1025 q 804 901 713 963 q 953 748 896 840 q 1006 531 1010 656 q 988 479 1006 506 q 953 436 969 453 q 915 433 929 421 q 900 468 900 444 q 860 637 904 564 q 745 760 817 710 q 585 839 674 810 q 410 879 496 868 q 459 726 425 800 q 531 576 493 651 q 664 574 597 575 q 799 572 731 572 q 817 549 817 572 q 806 499 817 526 q 775 449 794 472 q 736 426 756 426 q 667 426 701 426 q 597 428 632 426 q 605 408 601 418 q 611 389 608 399 q 808 406 708 393 q 824 396 819 406 q 829 374 829 386 q 826 349 829 361 q 819 333 824 338 q 794 290 811 311 q 744 261 776 268 q 694 256 719 258 q 643 250 668 253 q 636 176 644 213 q 608 106 628 139 q 919 104 764 108 q 1233 74 1075 100 q 1258 45 1257 69 q 1246 -7 1258 21 q 1213 -56 1233 -35 q 1172 -72 1192 -76 q 957 -47 1065 -54 q 740 -38 849 -39 q 521 -42 631 -37 q 301 -49 411 -46 l 299 -49 l 293 -49 q 190 -53 240 -53 q 90 -53 139 -53 q 71 -30 71 -53 q 82 21 71 -7 q 113 72 93 49 q 151 94 132 94 q 263 95 207 94 q 374 97 318 96 q 428 102 400 94 q 479 128 456 110 q 517 175 503 146 q 532 243 532 204 q 380 240 456 240 q 226 239 304 239 q 207 261 207 239 q 218 310 207 283 q 249 360 229 338 q 289 383 269 383 q 379 383 333 383 q 472 383 425 382 q 450 431 461 411 q 296 426 372 431 q 143 406 219 421 z "},"":{"ha":1157,"x_min":125,"x_max":1085,"o":"m 481 564 q 501 542 499 560 q 582 578 536 564 q 669 583 628 593 q 770 746 717 668 q 874 907 824 824 q 885 924 878 914 q 903 943 893 935 q 924 957 913 951 q 947 958 936 963 q 960 937 958 950 q 958 910 961 924 q 948 885 954 897 q 938 865 942 872 q 854 738 900 799 q 774 611 808 678 q 826 589 799 600 q 878 563 853 578 q 924 531 903 549 q 958 489 944 513 q 971 376 986 435 q 917 272 956 318 q 906 259 911 265 q 896 247 901 253 q 976 213 936 228 q 1061 189 1017 199 q 1085 160 1085 185 q 1072 108 1085 135 q 1038 60 1060 81 q 996 43 1017 39 q 869 85 933 58 q 742 144 806 111 q 699 128 721 135 q 657 118 676 122 q 581 101 621 108 q 500 94 540 94 q 468 42 482 65 q 438 -8 454 19 q 426 -27 433 -17 q 408 -45 418 -37 q 388 -56 399 -53 q 365 -51 376 -58 q 353 -23 350 -46 q 369 26 357 0 q 394 76 381 51 q 415 111 408 100 q 386 128 399 117 q 337 190 349 153 q 331 269 325 228 q 353 352 336 311 q 389 425 369 393 q 253 505 313 453 q 136 615 194 557 q 125 642 125 626 q 132 676 125 658 q 151 710 139 693 q 175 738 163 726 q 200 753 188 750 q 221 750 213 757 q 276 692 247 722 q 337 637 304 663 q 405 592 369 611 q 481 564 440 572 m 833 317 q 821 325 825 317 q 731 401 782 372 q 624 438 681 431 q 548 434 585 438 q 481 408 511 431 q 448 369 460 390 q 438 325 436 349 l 438 304 q 456 263 438 278 q 503 240 474 247 q 567 234 532 233 q 635 240 601 235 q 698 251 669 244 q 742 267 726 258 q 769 291 754 282 q 799 293 783 300 q 800 292 799 293 l 821 304 l 833 317 z "},"":{"ha":974,"x_min":17,"x_max":944,"o":"m 211 -281 q 221 -318 226 -292 q 200 -369 215 -344 q 163 -410 185 -394 q 126 -414 142 -425 q 35 -261 53 -351 q 33 -74 17 -171 q 88 118 50 24 q 165 283 126 213 q 284 467 221 375 q 424 644 347 560 q 575 784 493 724 q 743 876 657 844 q 775 867 765 883 q 785 833 785 850 q 758 727 781 783 q 701 615 735 671 q 629 506 668 560 q 556 407 590 453 q 644 378 599 390 q 735 352 689 365 q 826 323 781 339 q 917 283 872 307 q 940 257 936 275 q 937 218 944 239 q 915 176 929 197 q 882 139 900 154 q 790 75 838 100 q 679 33 742 50 q 586 15 631 19 q 501 19 542 11 q 488 53 486 28 q 501 106 489 79 q 533 155 514 133 q 574 175 553 176 q 627 183 599 174 q 683 206 656 193 q 550 242 617 225 q 418 292 483 260 q 404 313 406 300 q 408 341 403 326 q 421 370 413 356 q 438 396 429 385 q 498 474 464 428 q 561 565 532 521 q 608 643 590 610 q 619 682 625 676 q 597 672 615 686 q 554 635 578 658 q 504 586 531 613 q 460 542 478 560 q 349 400 397 471 q 253 250 300 329 q 193 128 225 199 q 146 -16 161 58 q 142 -160 131 -90 q 211 -281 153 -231 z "},"(":{"ha":740,"x_min":88,"x_max":849,"o":"m 831 1004 q 847 976 849 1000 q 832 925 846 951 q 797 880 818 899 q 756 869 775 861 q 672 882 713 885 q 595 864 632 879 q 525 822 558 849 q 464 765 492 796 q 345 604 393 694 q 258 411 297 514 q 226 311 243 369 q 201 190 210 253 q 192 63 192 126 q 212 -51 193 0 q 272 -133 231 -101 q 382 -168 313 -165 q 408 -197 406 -172 q 399 -247 410 -221 q 369 -295 389 -274 q 332 -317 350 -317 q 260 -307 292 -317 q 196 -274 228 -297 q 139 -208 161 -246 q 105 -128 117 -171 q 90 -40 93 -86 q 92 50 88 6 q 131 290 100 174 q 215 515 161 407 q 333 728 264 624 q 497 910 401 832 q 571 967 532 940 q 651 1008 610 993 q 738 1023 693 1022 q 831 1004 783 1024 z "},")":{"ha":767,"x_min":53,"x_max":706,"o":"m 81 914 q 55 941 57 918 q 64 990 53 964 q 94 1037 75 1015 q 133 1058 114 1058 q 342 970 250 1039 q 501 807 433 901 q 614 603 569 713 q 682 393 658 494 q 703 158 706 279 q 665 -75 701 36 q 555 -277 629 -186 q 360 -418 481 -368 q 341 -418 349 -422 q 329 -406 333 -414 q 325 -386 325 -397 q 329 -365 325 -375 q 351 -317 336 -342 q 390 -283 367 -292 q 526 -182 478 -243 q 590 -46 575 -121 q 604 59 601 6 q 603 164 607 113 q 590 263 599 215 q 569 351 581 311 q 498 531 542 438 q 394 706 454 625 q 256 844 333 788 q 81 914 178 901 z "},"{":{"ha":667,"x_min":22,"x_max":704,"o":"m 689 940 q 701 906 704 929 q 683 860 697 882 q 647 825 668 838 q 606 822 625 813 q 522 860 568 843 q 425 889 475 878 q 325 903 375 900 q 231 896 275 906 q 190 869 197 889 q 191 822 182 849 q 219 768 200 796 q 260 721 239 740 q 307 680 282 701 q 352 633 332 658 q 383 580 372 608 q 390 521 394 551 q 333 411 382 454 q 219 342 285 368 q 243 269 240 310 q 240 186 246 229 q 221 101 233 143 q 197 22 208 58 q 185 -23 193 1 q 169 -72 176 -47 q 160 -123 163 -97 q 167 -171 158 -149 q 200 -205 175 -194 q 257 -217 225 -215 q 322 -216 289 -219 q 382 -207 356 -212 q 409 -219 406 -203 q 403 -258 413 -236 q 377 -299 394 -279 q 342 -324 360 -319 q 279 -336 315 -331 q 206 -340 243 -342 q 137 -326 169 -337 q 85 -286 104 -314 q 65 -235 69 -262 q 63 -181 61 -208 q 72 -127 65 -154 q 85 -76 78 -100 q 102 -15 90 -50 q 125 57 114 19 q 142 131 136 94 q 142 199 149 168 q 114 253 136 231 q 46 285 92 275 q 23 311 24 292 q 34 352 22 331 q 63 392 46 374 q 96 414 81 410 q 165 440 126 431 q 232 458 203 449 q 275 482 261 468 q 271 521 289 496 q 220 575 247 549 q 168 629 193 601 q 124 686 143 657 q 96 749 104 715 q 90 842 81 797 q 128 922 100 886 q 198 983 156 958 q 292 1014 240 1007 q 497 1008 392 1026 q 689 940 603 989 z "},"}":{"ha":663,"x_min":51,"x_max":617,"o":"m 103 793 q 65 790 78 781 q 51 822 51 800 q 69 865 51 842 q 103 903 88 889 q 263 998 178 958 q 447 1057 347 1038 q 467 1052 454 1057 q 479 1040 479 1047 q 476 950 488 996 q 444 860 465 904 q 399 774 424 815 q 356 694 375 732 q 332 638 339 665 q 336 596 325 610 q 375 573 350 578 q 428 569 400 568 q 483 576 456 571 q 529 586 510 582 q 560 574 556 590 q 558 537 565 558 q 535 494 550 515 q 508 465 521 472 l 508 458 q 513 416 508 443 q 529 357 517 389 q 578 228 554 294 q 610 94 603 161 q 599 -58 617 18 q 521 -196 582 -133 q 436 -266 482 -237 q 340 -315 390 -294 q 234 -350 289 -336 q 122 -375 179 -364 q 98 -356 100 -375 q 103 -314 96 -337 q 125 -276 110 -293 q 172 -251 140 -258 q 294 -231 235 -246 q 407 -187 354 -215 q 464 -154 438 -171 q 500 -114 490 -137 q 511 2 519 -60 q 479 122 503 64 q 453 196 468 156 q 425 278 438 236 q 405 363 413 321 q 404 444 397 406 q 326 445 364 440 q 264 476 288 450 q 236 507 244 489 q 226 544 228 525 q 228 583 224 564 q 242 619 233 603 q 290 716 267 668 q 336 813 313 764 q 360 868 347 839 q 376 924 374 897 q 233 872 301 907 q 103 793 165 838 z "},"[":{"ha":525,"x_min":44,"x_max":664,"o":"m 440 1024 q 465 998 464 1019 q 453 952 465 976 q 419 910 440 928 q 378 896 397 892 q 265 903 321 906 q 150 897 208 900 q 163 603 149 750 q 199 309 176 456 q 252 17 222 163 q 314 -272 282 -129 q 472 -266 396 -281 q 613 -204 549 -251 q 650 -201 636 -190 q 664 -232 664 -211 q 647 -276 664 -253 q 613 -314 629 -300 q 433 -389 529 -368 q 236 -394 336 -410 q 222 -390 228 -394 q 217 -378 217 -385 q 153 -53 186 -217 q 96 274 121 110 q 58 603 71 439 q 51 932 44 768 q 57 958 51 942 q 73 988 63 974 q 99 1013 83 1003 q 135 1024 115 1024 q 287 1027 211 1024 q 440 1024 363 1031 z "},"]":{"ha":815,"x_min":61,"x_max":756,"o":"m 81 903 q 61 922 61 903 q 73 966 61 942 q 103 1010 85 990 q 142 1029 122 1029 q 342 1031 242 1029 q 553 1046 442 1033 q 570 1031 568 1046 q 572 1008 572 1017 q 598 690 572 849 q 656 374 624 532 q 717 57 688 215 q 756 -261 747 -101 q 749 -291 756 -276 q 730 -318 742 -306 q 703 -340 718 -331 q 672 -351 688 -349 q 490 -366 582 -364 q 306 -368 397 -368 q 287 -349 286 -368 q 299 -306 288 -329 q 329 -264 310 -283 q 367 -244 349 -244 q 505 -244 436 -244 q 644 -236 574 -243 q 604 51 632 -92 q 547 338 576 194 q 495 625 518 481 q 469 918 472 769 q 279 905 374 907 q 81 903 185 903 z "},"":{"ha":815,"x_min":49,"x_max":849,"o":"m 131 567 q 80 551 101 551 q 51 576 58 551 q 52 603 49 589 q 63 629 56 617 q 81 653 71 642 q 100 674 90 665 q 153 708 124 692 q 213 738 182 724 q 162 760 188 749 q 111 781 136 771 q 98 821 93 793 q 119 874 103 849 q 160 917 136 900 q 207 922 185 933 q 318 872 261 897 q 431 818 375 846 q 622 885 526 858 q 814 943 718 911 q 834 947 826 950 q 844 937 842 944 q 848 918 847 929 q 849 899 849 907 q 776 800 832 838 q 672 768 724 783 q 568 738 621 753 q 690 631 636 693 q 775 474 754 560 q 775 307 796 389 q 776 277 781 294 q 763 242 772 260 q 740 208 754 224 q 713 182 726 192 q 619 103 674 133 q 549 59 592 81 q 458 20 507 38 q 356 -6 408 3 q 257 -9 304 -14 q 171 16 210 -4 q 111 79 132 36 q 87 203 85 139 q 118 319 89 267 q 203 406 147 371 q 342 444 260 440 q 466 432 404 444 q 583 404 528 419 q 624 390 603 396 q 664 374 644 383 q 658 405 663 390 q 646 435 653 419 q 522 568 597 510 q 360 671 447 626 q 244 623 304 651 q 131 567 183 594 m 403 135 q 515 161 457 143 q 618 215 572 179 q 558 242 590 231 q 496 264 526 253 q 392 292 442 278 q 286 303 343 307 q 256 301 271 303 q 229 292 240 299 q 212 275 218 286 q 210 246 206 264 q 279 153 229 179 q 403 135 329 126 z "},"":{"ha":1276,"x_min":-76,"x_max":1285,"o":"m -12 353 q -71 353 -61 328 q -74 380 -76 367 q -63 406 -71 393 q -47 428 -56 418 q -31 446 -37 438 q 49 504 3 475 q 144 560 94 533 q 247 608 194 586 q 344 643 299 629 q 353 778 351 711 q 356 917 356 846 q 366 958 356 938 q 408 1000 376 979 q 446 1013 431 1011 q 470 1008 461 1014 q 483 992 479 1003 q 488 972 488 982 q 483 824 488 897 q 472 678 479 751 q 641 714 557 699 q 828 735 725 729 q 932 735 875 738 q 1044 722 989 733 q 1150 690 1100 711 q 1233 635 1200 668 q 1276 548 1268 597 q 1272 448 1285 499 q 1229 351 1260 397 q 1157 272 1199 304 q 940 164 1057 204 q 700 96 822 124 q 517 65 615 72 q 324 56 418 57 q 298 -8 311 24 q 269 -72 285 -40 q 252 -98 264 -86 q 227 -118 240 -110 q 199 -131 214 -126 q 172 -136 185 -136 q 157 -128 161 -136 q 153 -110 153 -121 q 156 -90 153 -100 q 163 -72 158 -79 q 265 208 225 67 q 326 494 304 349 q 201 453 264 475 q 71 403 138 431 q 56 394 67 400 q 32 381 44 388 q 7 366 19 374 q -12 353 -6 358 m 453 528 q 378 208 426 368 q 649 244 511 215 q 917 317 786 274 q 982 340 939 322 q 1068 379 1025 357 q 1143 426 1111 401 q 1174 471 1175 450 q 1132 539 1165 515 q 1054 574 1099 563 q 962 587 1010 585 q 876 589 914 589 q 656 567 760 582 q 453 528 553 551 z "},"/":{"ha":688,"x_min":-37,"x_max":753,"o":"m 82 -133 q 55 -180 69 -156 q 25 -222 40 -204 q -4 -244 10 -239 q -29 -233 -18 -250 q -26 -188 -37 -212 q -8 -144 -15 -164 q 167 182 88 39 q 324 449 246 325 q 487 690 403 574 q 676 938 571 807 q 710 968 690 957 q 739 960 731 979 q 742 917 753 939 q 715 874 732 896 q 524 603 615 742 q 338 310 432 464 q 265 190 299 246 q 202 80 232 133 q 143 -26 172 26 q 82 -133 114 -78 z "},"&":{"ha":938,"x_min":68,"x_max":928,"o":"m 844 551 q 859 567 849 557 q 881 585 869 578 q 904 592 893 592 q 921 579 915 592 q 922 531 928 563 q 893 469 915 500 q 779 326 842 399 q 647 182 717 253 q 726 159 688 169 q 803 139 765 149 q 829 105 828 132 q 817 49 831 78 q 781 -2 803 19 q 739 -18 760 -24 q 620 14 681 -3 q 499 53 560 31 q 335 -39 421 -4 q 153 -76 249 -74 q 136 -69 142 -76 q 128 -53 131 -61 q 124 18 119 -18 q 142 89 129 54 q 174 156 154 124 q 214 217 193 189 q 117 344 154 272 q 74 508 81 415 q 102 693 68 600 q 199 857 136 786 q 350 963 263 928 q 539 975 438 999 q 600 959 568 968 q 663 937 632 950 q 719 906 693 924 q 765 863 746 888 q 794 774 796 824 q 774 682 793 725 q 712 576 749 625 q 631 484 675 528 q 540 399 588 440 q 449 319 493 358 q 428 302 438 311 q 408 285 419 293 q 474 249 440 265 q 542 218 507 232 q 627 296 586 254 q 706 381 668 338 q 778 468 743 425 q 844 551 813 511 m 214 501 q 263 414 233 453 q 328 343 292 375 q 461 463 393 406 q 593 583 529 519 q 631 619 617 606 q 661 657 644 633 q 677 692 675 676 q 665 724 679 708 q 633 753 651 742 q 596 775 615 765 q 514 807 557 793 q 427 824 471 821 q 342 818 383 828 q 263 782 300 808 q 210 724 228 757 q 189 654 193 692 q 192 577 185 617 q 214 501 199 538 m 238 81 q 367 111 307 88 q 325 135 346 122 q 285 161 304 147 q 281 156 283 158 q 255 122 269 142 q 238 83 240 103 l 238 81 z "},"*":{"ha":643,"x_min":68,"x_max":542,"o":"m 153 488 q 128 510 131 488 q 137 558 126 532 q 167 606 147 583 q 206 628 186 628 l 210 628 q 183 647 194 638 q 165 658 175 651 q 143 673 154 665 q 122 685 132 681 q 103 690 111 690 q 72 701 76 683 q 77 744 68 719 q 103 792 86 769 q 135 819 119 815 q 170 819 153 824 q 205 805 188 814 q 238 783 222 796 q 269 761 254 771 q 254 810 264 786 q 251 856 243 828 q 274 900 258 885 q 287 918 278 908 q 306 934 296 928 q 326 940 315 940 q 346 928 338 940 q 374 799 374 874 q 369 768 374 786 q 353 735 364 750 q 392 740 374 735 q 428 753 410 746 q 465 765 446 760 q 504 771 483 771 l 506 771 l 515 771 q 534 766 529 774 q 539 747 539 758 q 536 723 539 735 q 533 707 533 711 q 510 665 525 685 q 469 638 496 644 q 495 615 482 625 q 522 590 508 604 q 540 558 542 582 q 524 509 538 533 q 490 468 510 485 q 454 460 469 451 q 390 509 425 482 q 340 571 356 536 q 264 531 300 547 q 185 496 228 515 q 169 490 179 493 q 153 488 160 486 z "},".":{"ha":574,"x_min":167,"x_max":461,"o":"m 206 -22 q 176 -11 185 -24 q 167 22 167 1 q 177 65 168 42 q 199 110 186 89 q 230 148 213 132 q 265 167 247 164 q 334 176 292 172 q 421 185 376 181 q 456 162 450 188 q 449 102 461 136 q 414 37 438 68 q 361 -3 390 6 q 296 -14 338 -8 q 206 -22 254 -19 z "},":":{"ha":574,"x_min":167,"x_max":461,"o":"m 206 -22 q 176 -11 185 -24 q 167 22 167 1 q 177 65 168 42 q 199 110 186 89 q 230 148 213 132 q 265 167 247 164 q 334 176 292 172 q 421 185 376 181 q 456 162 450 188 q 449 102 461 136 q 414 37 438 68 q 361 -3 390 6 q 296 -14 338 -8 q 206 -22 254 -19 m 374 565 q 338 541 354 554 q 304 518 321 528 q 272 503 288 508 q 240 506 256 499 q 225 531 229 514 q 221 557 221 547 q 242 623 221 590 q 300 681 264 656 q 348 703 322 692 q 410 714 374 714 q 431 707 421 714 q 440 692 440 700 q 429 624 440 657 q 374 565 418 590 z "},"":{"ha":689,"x_min":117,"x_max":646,"o":"m 150 625 q 124 636 132 624 q 117 669 117 649 q 126 713 118 689 q 145 758 133 736 q 172 795 157 779 q 201 814 186 811 q 261 824 225 819 q 336 832 297 828 q 367 808 361 835 q 364 745 372 781 q 336 678 356 710 q 292 638 317 646 q 231 630 272 632 q 150 625 190 628 m 456 638 q 424 657 431 632 q 423 715 417 682 q 447 779 429 749 q 485 817 464 810 q 538 832 504 824 q 608 847 572 840 q 639 831 632 853 q 641 780 646 810 q 621 721 636 750 q 583 682 606 692 q 529 660 565 675 q 456 638 493 644 z "},"":{"ha":1411,"x_min":31,"x_max":1383,"o":"m 260 242 q 240 251 246 242 q 235 274 235 261 q 239 302 235 288 q 249 326 243 317 q 276 377 257 354 q 332 411 296 400 q 425 421 372 415 q 539 432 478 426 q 510 473 526 453 q 474 508 493 493 q 433 529 454 522 q 389 529 411 536 q 335 498 361 524 q 286 435 310 472 q 241 352 263 397 q 201 263 219 307 q 166 178 182 218 q 139 113 150 139 q 128 83 135 99 q 110 56 121 68 q 87 35 100 43 q 56 28 74 28 q 36 38 42 28 q 31 61 31 47 q 35 90 31 75 q 43 113 39 104 q 79 204 58 151 q 126 315 100 257 q 182 431 151 372 q 247 540 213 489 q 320 629 282 590 q 400 686 358 668 q 470 697 436 700 q 535 677 504 693 q 592 635 565 661 q 642 578 618 610 q 713 449 681 517 q 832 460 772 454 q 948 472 892 467 q 1054 483 1004 478 q 1144 493 1104 489 q 1164 482 1158 493 q 1169 456 1169 471 q 1164 428 1168 442 q 1156 408 1160 414 q 1128 358 1147 382 q 1072 325 1108 335 q 939 310 1017 318 q 774 293 861 301 q 801 197 789 244 q 825 104 814 150 q 890 150 847 139 q 1090 171 990 168 q 1299 174 1190 174 q 1319 161 1314 174 q 1320 131 1324 149 q 1308 90 1317 113 q 1286 50 1299 68 q 1258 19 1274 32 q 1228 7 1243 7 q 1021 3 1125 7 q 808 -17 917 -1 q 796 -33 801 -25 q 785 -46 790 -40 q 744 -69 765 -65 q 713 -46 722 -74 q 678 119 700 38 q 621 279 656 201 q 422 259 517 268 q 260 242 328 250 m 708 536 q 689 548 694 536 q 683 574 683 560 q 688 603 683 589 q 696 622 692 618 q 725 673 706 650 q 781 707 744 696 q 912 723 835 715 q 1071 735 989 731 q 1230 743 1153 740 q 1361 746 1307 746 q 1383 719 1383 746 q 1369 662 1383 693 q 1333 604 1356 631 q 1289 578 1311 578 q 1158 575 1235 578 q 999 567 1081 572 q 840 553 917 561 q 708 536 763 546 z "},"":{"ha":1793,"x_min":44,"x_max":1818,"o":"m 553 726 q 584 727 571 736 q 600 690 597 718 q 584 633 600 663 q 542 583 568 603 q 494 551 518 565 q 443 524 469 538 q 390 495 417 510 q 335 463 363 481 q 282 427 310 444 q 228 390 254 410 q 186 333 194 364 q 190 276 178 303 q 234 227 203 249 q 311 199 265 206 q 453 192 379 188 q 602 215 528 197 q 746 263 676 233 q 876 331 815 293 q 929 365 899 343 q 987 415 960 388 q 1031 473 1014 442 q 1043 536 1049 504 q 1023 598 1039 571 q 982 647 1007 625 q 926 685 957 668 q 863 715 896 701 q 694 751 783 740 q 517 761 606 761 q 487 786 489 761 q 497 842 485 811 q 532 900 510 872 q 576 932 554 928 q 703 929 640 932 q 831 913 767 926 q 849 918 842 918 q 1026 922 944 918 q 1180 931 1107 925 q 1322 945 1253 938 q 1465 961 1392 953 q 1619 977 1539 969 q 1796 990 1700 985 q 1818 966 1818 990 q 1805 911 1818 942 q 1769 854 1792 881 q 1725 824 1747 828 q 1548 809 1629 817 q 1393 793 1467 801 q 1249 776 1319 785 q 1104 763 1179 768 q 1125 733 1115 749 q 1142 703 1135 718 q 1160 613 1158 658 q 1150 526 1161 568 q 1117 442 1139 483 q 1068 365 1096 401 q 787 140 950 221 q 433 31 624 58 q 356 26 396 26 q 278 30 317 25 q 202 47 239 35 q 133 81 165 58 q 56 202 68 133 q 71 343 44 271 q 163 474 107 419 q 285 571 219 528 q 421 650 351 614 q 553 726 490 686 m 1158 54 q 1137 81 1136 54 q 1151 138 1138 107 q 1187 196 1164 169 q 1232 222 1210 222 q 1467 225 1350 222 q 1711 246 1585 228 q 1731 234 1725 246 q 1736 208 1736 222 q 1732 180 1736 193 q 1724 163 1728 167 q 1695 110 1714 135 q 1640 78 1676 86 q 1405 57 1522 60 q 1158 54 1288 54 m 1207 432 q 1185 458 1185 432 q 1198 516 1185 485 q 1234 574 1211 547 q 1279 600 1257 600 q 1426 610 1353 600 q 1581 649 1499 621 q 1611 631 1607 653 q 1605 578 1615 608 q 1574 519 1594 549 q 1532 481 1554 490 q 1369 447 1450 463 q 1207 432 1289 432 z "},"":{"ha":1713,"x_min":54,"x_max":1799,"o":"m 493 417 q 507 399 506 414 q 503 365 508 385 q 485 325 497 346 q 459 288 474 304 q 428 263 444 271 q 397 260 413 254 q 344 278 375 269 q 281 294 313 288 q 224 301 250 300 q 188 296 199 303 q 189 281 185 292 q 201 260 193 271 q 217 239 208 249 q 229 225 225 229 q 270 191 247 207 q 317 164 293 175 q 365 149 342 153 q 408 151 389 144 q 492 219 460 175 q 528 321 525 263 q 551 366 539 349 q 589 404 564 383 q 601 413 593 408 q 618 418 610 417 q 632 417 626 419 q 638 404 638 414 q 744 266 678 317 q 901 211 810 215 l 901 213 q 866 290 874 249 q 867 371 858 331 q 901 448 876 411 q 961 511 925 485 q 1046 547 1001 539 q 1135 550 1090 556 q 1225 528 1181 544 q 1310 489 1269 511 q 1321 429 1328 471 q 1278 317 1306 371 q 1210 217 1250 263 q 1347 185 1276 193 q 1487 178 1417 176 q 1624 193 1557 181 q 1753 225 1692 206 q 1792 212 1785 233 q 1790 160 1799 190 q 1760 102 1781 131 q 1718 69 1740 74 q 1506 27 1618 42 q 1286 32 1394 13 q 1164 51 1225 38 q 1047 92 1103 64 q 936 56 993 65 q 733 69 826 33 q 578 188 640 104 q 492 67 542 121 q 372 -4 443 13 q 233 15 300 -12 q 119 104 165 42 q 60 242 67 168 q 108 381 54 317 q 190 442 144 426 q 287 458 236 458 q 390 444 338 457 q 493 417 443 431 m 982 378 q 987 352 978 368 q 1014 319 996 336 q 1056 288 1032 303 q 1106 265 1079 272 q 1185 349 1158 301 q 1134 368 1163 358 q 1077 384 1106 378 q 1024 390 1049 390 q 982 378 999 389 z "},"":{"ha":1231,"x_min":54,"x_max":1214,"o":"m 601 490 q 628 461 621 482 q 663 490 646 479 q 797 576 725 543 q 950 608 869 608 q 1012 607 978 608 q 1080 599 1046 606 q 1144 578 1114 593 q 1192 536 1174 563 q 1208 468 1214 504 q 1183 399 1203 432 q 1134 338 1163 365 q 1083 297 1106 311 q 1006 265 1047 275 q 919 252 964 254 q 831 253 875 250 q 746 261 786 257 l 740 261 q 938 169 828 193 q 1156 153 1047 144 q 1178 128 1178 153 q 1164 74 1178 104 q 1128 16 1150 43 q 1083 -15 1106 -11 q 921 -3 1001 -15 q 757 38 840 10 q 656 88 706 53 q 575 168 606 122 q 546 97 565 131 q 494 33 526 63 q 390 -26 442 -12 q 267 -40 338 -40 q 214 -34 239 -37 q 167 -24 189 -31 q 124 -3 144 -17 q 85 33 103 10 q 56 116 54 69 q 78 208 57 163 q 131 294 99 254 q 194 357 163 335 q 380 469 276 429 q 601 490 483 508 m 471 215 q 435 285 460 254 q 393 325 411 315 q 322 305 357 318 q 256 272 288 292 q 228 253 243 265 q 200 227 213 242 q 181 199 188 213 q 182 176 175 185 q 235 140 200 154 q 309 122 269 126 q 386 123 349 118 q 446 142 424 128 q 473 169 465 150 q 471 215 481 188 m 890 454 q 829 442 858 450 q 774 425 800 435 q 887 410 832 414 q 997 411 942 407 q 1026 415 1008 411 q 1056 422 1044 419 q 1029 438 1047 431 q 988 449 1011 444 q 940 456 965 454 q 890 454 914 457 z "},"":{"ha":988,"x_min":-21,"x_max":946,"o":"m -1 274 q -19 301 -21 279 q -3 346 -18 322 q 33 388 11 369 q 74 404 54 406 q 158 394 114 399 q 256 390 203 390 q 370 395 308 390 q 507 411 432 400 q 710 456 608 428 q 915 519 811 483 q 934 516 928 521 q 943 503 940 511 q 945 485 946 494 q 944 469 944 476 q 915 427 933 442 q 863 399 897 413 q 663 334 775 367 q 397 282 550 301 q 200 266 299 269 q -1 274 101 263 m 353 -21 q 323 -10 332 -22 q 315 23 314 3 q 324 67 315 43 q 347 112 333 90 q 377 149 360 133 q 413 168 394 165 q 481 178 439 174 q 568 186 524 182 q 603 163 597 189 q 597 103 608 138 q 561 38 585 69 q 508 -1 538 7 q 443 -12 485 -7 q 353 -21 401 -18 m 521 567 q 485 542 501 556 q 451 519 468 529 q 419 505 435 510 q 388 507 403 500 q 372 532 376 515 q 368 558 368 549 q 390 624 368 592 q 447 682 411 657 q 495 704 469 693 q 557 715 521 715 q 578 708 568 715 q 588 693 588 701 q 576 625 588 658 q 521 567 565 592 z "},"":{"ha":1322,"x_min":35,"x_max":1289,"o":"m 856 1047 q 877 1022 876 1044 q 865 974 878 1000 q 832 927 853 949 q 792 906 811 906 q 657 899 726 901 q 519 888 588 897 q 385 859 450 879 q 263 799 319 839 q 179 698 206 757 q 144 572 153 639 q 139 497 140 536 q 143 417 138 457 q 161 340 149 378 q 199 271 174 303 q 292 200 239 222 q 402 174 344 178 q 518 180 460 169 q 628 207 576 190 q 717 240 665 221 q 824 285 768 260 q 935 341 879 310 q 1037 409 990 372 q 1116 490 1083 446 q 1157 583 1149 533 q 1152 638 1161 611 q 1126 687 1143 664 q 1085 730 1108 710 q 1038 767 1061 750 q 1026 810 1021 782 q 1049 864 1032 839 q 1087 903 1065 889 q 1125 906 1108 918 q 1256 732 1222 832 q 1232 518 1289 632 q 1169 411 1207 461 q 1085 318 1132 361 q 987 239 1039 275 q 883 174 935 203 q 757 114 818 140 q 638 69 696 88 q 521 38 579 50 q 403 22 463 26 q 272 38 333 18 q 164 96 211 57 q 85 190 117 135 q 46 314 54 244 q 40 483 35 394 q 71 653 44 571 q 147 807 97 736 q 274 926 196 878 q 410 989 338 967 q 557 1023 482 1011 q 708 1039 632 1035 q 856 1047 783 1043 m 822 799 q 841 792 835 799 q 849 774 847 785 q 849 749 851 763 q 843 725 847 736 q 813 678 835 700 q 757 646 790 657 q 692 635 728 643 q 626 617 657 628 q 571 595 594 607 q 543 575 547 583 q 603 551 560 556 q 697 556 646 547 q 797 586 747 565 q 878 638 847 607 q 913 658 893 654 q 942 638 933 661 q 936 585 949 613 q 899 531 924 557 q 788 457 853 489 q 653 413 724 425 q 513 415 582 401 q 392 476 444 428 q 380 534 368 500 q 425 604 392 568 q 611 730 514 678 q 822 799 708 782 z "},"":{"ha":1157,"x_min":17,"x_max":1144,"o":"m 675 896 q 704 886 700 904 q 700 842 708 868 q 676 790 692 817 q 643 756 660 764 q 554 736 607 749 q 443 706 501 724 q 327 663 385 688 q 223 609 269 639 q 147 544 176 579 q 117 467 118 508 q 127 394 117 433 q 153 331 138 356 q 245 218 186 258 q 385 153 304 178 q 542 129 458 136 q 707 131 626 122 q 865 177 789 147 q 999 272 942 207 q 1035 355 1032 304 q 1021 454 1038 406 q 963 593 1000 526 q 880 720 926 660 q 781 835 833 781 q 675 938 728 889 q 665 978 660 950 q 686 1033 671 1007 q 719 1076 701 1060 q 749 1079 738 1092 q 918 919 840 1007 q 1053 735 996 831 q 1097 647 1076 694 q 1131 548 1118 599 q 1144 446 1143 497 q 1129 346 1144 394 q 1049 201 1100 265 q 932 92 999 138 q 786 21 865 47 q 622 -10 707 -6 q 469 -14 549 -18 q 315 13 389 -10 q 176 79 240 35 q 72 196 113 124 q 44 265 57 228 q 24 341 31 303 q 17 415 17 379 q 28 482 17 451 q 91 606 47 550 q 190 703 135 663 q 421 826 297 782 q 675 896 544 871 m 536 454 q 515 402 536 431 q 471 357 494 374 q 440 348 454 342 q 426 379 426 354 q 448 506 426 444 q 509 617 469 568 q 604 694 549 665 q 729 724 660 724 q 740 717 736 724 q 746 701 744 711 q 746 682 747 692 q 742 664 744 672 q 722 609 732 633 q 701 563 711 585 q 683 517 692 540 q 665 467 674 494 q 656 423 653 442 q 672 390 658 404 q 705 365 685 375 q 749 346 725 354 q 768 318 769 342 q 753 269 767 294 q 717 223 739 243 q 675 207 696 203 q 568 284 603 231 q 557 413 533 338 q 576 458 563 433 q 601 507 589 483 q 621 551 613 531 q 628 579 629 571 q 598 576 614 585 q 568 549 582 567 q 545 506 554 531 q 536 454 536 481 z "},";":{"ha":574,"x_min":183,"x_max":440,"o":"m 374 565 q 338 541 354 554 q 304 518 321 528 q 272 503 288 508 q 240 506 256 499 q 225 531 229 514 q 221 557 221 547 q 242 623 221 590 q 300 681 264 656 q 348 703 322 692 q 410 714 374 714 q 431 707 421 714 q 440 692 440 700 q 429 624 440 657 q 374 565 418 590 m 219 57 q 207 92 203 65 q 226 145 211 118 q 265 191 242 172 q 308 201 288 210 q 377 152 356 185 q 401 78 399 119 q 390 -8 403 38 q 354 -95 376 -53 q 305 -174 332 -137 q 253 -232 278 -210 q 234 -242 244 -236 q 215 -249 224 -247 q 198 -248 206 -251 q 188 -232 190 -244 q 186 -199 183 -215 q 196 -169 189 -183 q 213 -142 203 -154 q 231 -122 222 -131 q 272 -75 256 -101 q 288 -24 288 -49 q 273 23 289 1 q 219 57 257 44 z "},"":{"ha":1208,"x_min":44,"x_max":1161,"o":"m 328 -133 q 301 -180 315 -156 q 271 -222 286 -204 q 242 -244 256 -239 q 217 -233 228 -250 q 219 -188 208 -212 q 238 -144 231 -164 q 283 -57 261 -99 q 326 25 306 -15 q 225 40 275 28 q 133 81 175 51 q 56 202 68 133 q 71 343 44 271 q 163 474 107 419 q 285 571 219 528 q 421 650 351 614 q 553 726 490 686 q 584 727 571 736 q 600 690 597 718 q 584 633 600 663 q 542 583 568 603 q 494 551 518 565 q 443 524 469 538 q 390 495 417 510 q 335 463 363 481 q 282 427 310 444 q 228 390 254 410 q 186 333 194 364 q 190 276 178 303 q 234 227 203 249 q 311 199 265 206 q 417 190 361 190 q 503 340 461 269 q 588 478 546 411 q 675 609 631 544 q 768 739 719 674 q 642 756 706 750 q 517 761 579 761 q 487 786 489 761 q 497 842 485 811 q 532 900 510 872 q 576 932 554 928 q 733 927 656 932 q 889 896 810 922 l 922 938 q 956 968 936 957 q 985 960 976 979 q 988 917 999 939 q 961 874 978 896 q 958 869 958 871 q 1065 801 1011 844 q 1142 703 1118 758 q 1160 613 1158 658 q 1150 526 1161 568 q 1117 442 1139 483 q 1068 365 1096 401 q 787 140 950 221 q 433 31 624 58 q 419 29 428 29 q 374 -51 396 -11 q 328 -133 351 -90 m 863 715 q 856 717 860 717 q 849 719 851 718 q 715 520 781 622 q 583 310 650 418 q 549 253 565 281 q 517 199 532 226 q 705 248 613 214 q 876 331 797 282 q 929 365 899 343 q 987 415 960 388 q 1031 473 1014 442 q 1043 536 1049 504 q 1023 598 1039 571 q 982 647 1007 625 q 926 685 957 668 q 863 715 896 701 z "},"":{"ha":789,"x_min":40,"x_max":742,"o":"m 58 43 q 50 153 40 97 q 86 263 60 208 q 149 367 113 317 q 222 464 186 418 q 197 466 210 465 q 171 467 183 467 q 154 476 158 467 q 149 501 150 486 q 151 529 149 515 q 157 551 154 543 q 171 585 163 568 q 191 617 179 603 q 219 641 203 632 q 256 650 235 650 q 400 643 322 657 q 549 594 478 629 q 590 647 569 621 q 629 700 610 672 q 663 731 643 719 q 692 722 683 742 q 695 680 706 701 q 668 636 685 658 q 637 595 651 614 q 610 558 622 576 q 694 481 660 524 q 739 353 736 422 q 717 218 742 285 q 644 94 692 151 q 539 0 597 36 q 471 -37 510 -19 q 389 -67 432 -54 q 301 -87 346 -81 q 214 -87 256 -93 q 172 -140 193 -121 q 135 -135 150 -158 q 133 -102 128 -119 q 146 -68 139 -85 q 92 -26 114 -53 q 58 43 69 1 m 494 382 q 449 306 474 347 q 390 210 424 265 q 344 136 360 161 q 319 96 329 111 q 385 100 351 94 q 452 117 419 106 q 514 142 485 128 q 565 174 543 157 q 602 228 597 200 q 594 283 607 256 q 554 335 581 310 q 496 382 528 361 l 494 382 m 240 115 q 340 289 296 215 q 422 419 385 363 q 383 434 403 428 q 343 446 364 440 q 326 425 335 433 q 281 373 311 404 q 224 308 251 342 q 183 238 197 274 q 185 169 169 201 q 240 115 206 133 z "},"\\":{"ha":956,"x_min":26,"x_max":949,"o":"m 42 819 q 30 855 26 831 q 47 902 33 879 q 79 939 60 925 q 115 943 99 953 q 224 866 174 907 q 331 782 275 825 q 472 652 401 719 q 611 521 542 585 q 737 383 675 450 q 854 240 799 317 q 919 135 890 192 q 949 15 949 78 q 936 -33 949 -12 q 903 -69 924 -54 q 868 -77 882 -83 q 854 -50 854 -71 q 818 62 854 -1 q 730 190 782 125 q 620 315 678 254 q 519 418 563 375 q 410 526 467 471 q 294 633 354 581 q 172 734 235 686 q 42 819 108 782 z "},"<":{"ha":685,"x_min":122,"x_max":575,"o":"m 547 626 q 563 624 557 629 q 572 609 569 618 q 574 591 574 600 q 575 579 575 582 q 511 496 563 521 q 415 454 464 472 q 317 419 367 436 q 410 365 361 392 q 511 317 458 338 q 522 292 525 313 q 505 249 518 272 q 472 209 492 226 q 435 194 453 192 q 356 233 393 213 q 283 275 318 253 q 211 319 247 297 q 136 363 175 342 q 124 393 122 374 q 137 433 126 413 q 163 470 147 453 q 192 496 178 488 q 366 553 276 524 q 547 626 456 583 z "},">":{"ha":844,"x_min":190,"x_max":753,"o":"m 282 567 q 278 605 271 581 q 302 650 286 629 q 336 682 318 671 q 365 679 354 693 q 448 597 404 633 q 539 531 492 561 q 636 472 586 500 q 739 417 686 444 q 751 391 753 410 q 740 352 750 372 q 714 315 729 332 q 685 296 699 299 q 567 262 625 281 q 449 225 508 243 q 331 195 390 207 q 207 183 271 183 q 190 203 190 183 q 201 249 190 224 q 228 294 211 274 q 264 314 246 314 q 402 328 335 314 q 538 365 469 343 q 404 454 468 406 q 282 567 340 503 z "},"":{"ha":522,"x_min":182,"x_max":313,"o":"m 219 900 q 236 945 219 921 q 267 985 253 969 q 300 985 288 992 q 313 956 313 978 l 313 468 q 297 424 313 447 q 267 386 281 400 q 232 382 244 371 q 219 413 219 393 l 219 900 m 182 133 q 193 183 182 161 q 219 225 204 204 q 235 233 226 229 q 251 238 243 238 q 266 235 260 239 q 276 217 272 231 q 292 18 290 117 q 294 -186 294 -81 q 278 -231 294 -207 q 249 -271 263 -256 q 213 -274 226 -285 q 200 -243 200 -264 q 198 -56 200 -151 q 182 133 196 40 z "},"|":{"ha":574,"x_min":228,"x_max":340,"o":"m 228 883 q 242 924 228 901 q 275 963 257 947 q 308 978 293 978 q 322 949 322 978 q 338 374 336 660 q 340 -193 340 89 q 334 -224 340 -204 q 317 -261 328 -243 q 294 -288 307 -279 q 267 -286 281 -297 q 230 -225 231 -262 q 249 -136 229 -187 q 245 376 249 122 q 228 883 242 629 z "},"-":{"ha":1096,"x_min":318,"x_max":917,"o":"m 336 331 q 318 349 318 331 q 328 391 318 368 q 357 433 339 414 q 393 451 375 451 q 644 453 519 451 q 897 469 769 456 q 912 467 907 474 q 917 448 917 460 q 914 424 917 436 q 907 406 911 413 q 898 389 903 399 q 885 370 893 379 q 865 355 876 361 q 840 349 854 349 q 588 333 714 335 q 336 331 463 331 z "},"":{"ha":654,"x_min":53,"x_max":799,"o":"m 288 646 q 302 687 288 664 q 335 725 317 710 q 367 740 353 740 q 382 711 382 740 q 384 651 383 679 q 386 594 385 622 q 442 592 414 596 q 500 582 471 589 q 522 561 518 578 q 522 522 526 544 q 504 475 517 500 q 474 431 492 450 q 438 401 457 411 q 401 399 419 392 q 397 399 399 399 q 392 400 394 400 q 392 277 393 335 q 390 150 392 219 q 476 153 433 144 q 560 178 519 161 q 639 217 601 194 q 708 264 676 240 q 738 280 722 274 q 767 285 754 286 q 790 278 781 285 q 799 254 799 271 q 780 187 799 211 q 726 129 761 163 q 660 79 699 104 q 578 33 622 54 q 485 -3 533 13 q 389 -24 438 -18 l 389 -96 q 383 -126 389 -107 q 366 -164 376 -146 q 342 -191 356 -182 q 315 -189 329 -200 q 278 -128 279 -165 q 297 -39 278 -90 l 297 -26 q 167 19 226 -19 q 76 144 108 58 q 54 235 56 186 q 66 331 53 283 q 104 422 79 379 q 161 497 129 465 q 290 579 219 558 q 290 611 290 594 q 288 646 289 628 m 274 200 q 286 190 281 194 q 299 182 292 186 q 299 298 299 246 q 297 411 299 350 q 240 401 267 410 q 203 371 214 393 q 196 324 192 350 q 212 275 200 299 q 241 231 224 251 q 274 200 258 211 z "},"":{"ha":554,"x_min":108,"x_max":403,"o":"m 364 618 q 394 607 385 619 q 402 574 403 594 q 392 531 401 554 q 370 485 383 507 q 340 448 357 464 q 304 429 322 432 q 235 419 278 424 q 149 411 193 415 q 114 434 119 408 q 120 494 108 460 q 156 559 132 528 q 208 599 179 590 q 274 610 232 604 q 364 618 315 615 m 396 -503 q 390 -558 403 -528 q 363 -604 378 -587 q 353 -619 363 -608 q 333 -637 344 -629 q 310 -648 322 -646 q 294 -637 299 -650 q 235 -434 258 -537 q 197 -226 211 -331 q 178 -15 183 -121 q 172 197 172 92 q 193 251 172 222 q 239 294 214 279 q 271 299 256 313 q 286 261 286 286 q 292 78 286 169 q 307 -104 297 -12 q 338 -308 322 -206 q 396 -503 354 -411 z "},"":{"ha":756,"x_min":13,"x_max":696,"o":"m 142 -142 q 211 -224 161 -181 q 324 -297 261 -267 q 456 -335 388 -328 q 579 -311 524 -343 q 601 -292 593 -303 q 614 -271 608 -282 q 624 -249 619 -260 q 636 -231 628 -239 q 655 -219 644 -221 q 674 -220 665 -217 q 690 -232 683 -224 q 696 -253 696 -240 q 655 -367 690 -324 q 567 -431 619 -410 q 452 -453 515 -451 q 326 -441 389 -454 q 207 -403 264 -428 q 111 -347 150 -379 q 18 -208 24 -279 q 63 -61 13 -136 q 132 11 90 -19 q 223 65 174 42 q 326 106 272 89 q 435 135 381 122 q 389 178 413 157 q 336 218 365 199 q 326 259 319 231 q 349 314 332 288 q 388 357 365 340 q 426 361 410 374 q 533 266 488 319 q 621 156 578 213 q 628 124 631 143 q 617 84 626 104 q 591 47 607 64 q 554 25 575 31 q 346 -23 449 6 q 154 -104 243 -51 q 141 -122 147 -111 q 142 -142 135 -132 m 554 638 q 584 626 575 639 q 592 594 593 614 q 583 550 592 574 q 560 505 574 526 q 530 467 547 483 q 494 449 513 451 q 426 439 468 443 q 339 431 383 435 q 304 453 310 428 q 310 513 299 479 q 346 578 322 547 q 399 618 369 610 q 464 629 422 624 q 554 638 506 635 z "},"":{"ha":1283,"x_min":-189,"x_max":1265,"o":"m 139 17 q 103 -28 125 -7 q 57 -47 81 -50 q 40 -37 46 -46 q 35 -17 35 -29 q 38 7 35 -6 q 46 28 40 19 l 106 133 q -33 199 35 165 q -169 269 -101 232 q -186 297 -189 275 q -169 340 -183 318 q -134 381 -154 363 q -99 399 -114 399 q 92 410 -3 407 q 285 414 188 414 q 350 522 311 469 q 437 617 389 574 q 540 690 485 660 q 654 733 594 721 q 776 738 714 746 q 901 696 839 729 q 972 636 942 671 q 1027 562 1003 601 q 1072 479 1051 522 q 1113 397 1093 436 l 1238 401 q 1260 390 1254 399 q 1265 369 1265 381 q 1260 344 1264 357 q 1251 325 1256 332 q 1208 278 1226 289 q 1167 261 1190 267 l 1151 258 q 1147 187 1154 222 q 1124 118 1140 151 q 1061 23 1100 61 q 972 -36 1022 -15 q 865 -62 922 -57 q 749 -60 808 -67 q 485 -9 614 -50 q 233 79 356 32 q 209 88 221 83 q 185 99 197 93 q 162 57 174 78 q 139 17 150 36 m 300 297 q 261 233 281 269 q 313 212 288 222 q 365 190 338 201 q 490 149 426 171 q 618 110 553 128 q 749 83 683 93 q 883 72 815 72 q 938 78 913 75 q 981 88 963 81 q 1013 110 1000 96 q 1032 153 1026 125 q 1031 206 1035 181 q 1015 260 1026 232 q 658 278 836 265 q 300 297 479 290 m 772 604 q 647 628 706 633 q 538 594 588 624 q 449 517 488 565 q 386 414 411 469 q 670 406 522 413 q 954 396 818 399 q 868 531 915 479 q 772 604 821 582 m 106 301 q 144 284 125 293 q 183 267 164 275 q 194 283 189 274 q 204 300 199 292 q 156 301 181 300 q 106 301 131 301 m 931 926 q 940 892 944 915 q 922 847 935 869 q 893 812 910 825 q 867 810 876 799 q 782 868 826 843 q 690 916 738 893 q 597 963 643 939 q 506 1015 550 986 q 497 1049 493 1025 q 515 1094 501 1072 q 547 1131 529 1117 q 578 1135 564 1144 q 664 1080 619 1104 q 754 1033 708 1056 q 844 985 800 1010 q 931 926 889 960 z "},"":{"ha":1283,"x_min":-189,"x_max":1265,"o":"m 139 17 q 103 -28 125 -7 q 57 -47 81 -50 q 40 -37 46 -46 q 35 -17 35 -29 q 38 7 35 -6 q 46 28 40 19 l 106 133 q -33 199 35 165 q -169 269 -101 232 q -186 297 -189 275 q -169 340 -183 318 q -134 381 -154 363 q -99 399 -114 399 q 92 410 -3 407 q 285 414 188 414 q 350 522 311 469 q 437 617 389 574 q 540 690 485 660 q 654 733 594 721 q 776 738 714 746 q 901 696 839 729 q 972 636 942 671 q 1027 562 1003 601 q 1072 479 1051 522 q 1113 397 1093 436 l 1238 401 q 1260 390 1254 399 q 1265 369 1265 381 q 1260 344 1264 357 q 1251 325 1256 332 q 1208 278 1226 289 q 1167 261 1190 267 l 1151 258 q 1147 187 1154 222 q 1124 118 1140 151 q 1061 23 1100 61 q 972 -36 1022 -15 q 865 -62 922 -57 q 749 -60 808 -67 q 485 -9 614 -50 q 233 79 356 32 q 209 88 221 83 q 185 99 197 93 q 162 57 174 78 q 139 17 150 36 m 300 297 q 261 233 281 269 q 313 212 288 222 q 365 190 338 201 q 490 149 426 171 q 618 110 553 128 q 749 83 683 93 q 883 72 815 72 q 938 78 913 75 q 981 88 963 81 q 1013 110 1000 96 q 1032 153 1026 125 q 1031 206 1035 181 q 1015 260 1026 232 q 658 278 836 265 q 300 297 479 290 m 772 604 q 647 628 706 633 q 538 594 588 624 q 449 517 488 565 q 386 414 411 469 q 670 406 522 413 q 954 396 818 399 q 868 531 915 479 q 772 604 821 582 m 106 301 q 144 284 125 293 q 183 267 164 275 q 194 283 189 274 q 204 300 199 292 q 156 301 181 300 q 106 301 131 301 m 608 839 q 576 825 593 826 q 554 850 560 824 q 556 890 547 869 q 588 932 565 911 q 654 990 622 964 q 719 1040 686 1015 q 788 1087 753 1064 q 863 1138 822 1110 q 897 1141 883 1151 q 910 1110 910 1131 q 900 1069 910 1090 q 863 1029 890 1047 q 792 978 822 1001 q 732 934 761 956 q 674 890 703 913 q 608 839 644 867 z "},"":{"ha":1283,"x_min":-189,"x_max":1265,"o":"m 139 17 q 103 -28 125 -7 q 57 -47 81 -50 q 40 -37 46 -46 q 35 -17 35 -29 q 38 7 35 -6 q 46 28 40 19 l 106 133 q -33 199 35 165 q -169 269 -101 232 q -186 297 -189 275 q -169 340 -183 318 q -134 381 -154 363 q -99 399 -114 399 q 92 410 -3 407 q 285 414 188 414 q 350 522 311 469 q 437 617 389 574 q 540 690 485 660 q 654 733 594 721 q 776 738 714 746 q 901 696 839 729 q 972 636 942 671 q 1027 562 1003 601 q 1072 479 1051 522 q 1113 397 1093 436 l 1238 401 q 1260 390 1254 399 q 1265 369 1265 381 q 1260 344 1264 357 q 1251 325 1256 332 q 1208 278 1226 289 q 1167 261 1190 267 l 1151 258 q 1147 187 1154 222 q 1124 118 1140 151 q 1061 23 1100 61 q 972 -36 1022 -15 q 865 -62 922 -57 q 749 -60 808 -67 q 485 -9 614 -50 q 233 79 356 32 q 209 88 221 83 q 185 99 197 93 q 162 57 174 78 q 139 17 150 36 m 300 297 q 261 233 281 269 q 313 212 288 222 q 365 190 338 201 q 490 149 426 171 q 618 110 553 128 q 749 83 683 93 q 883 72 815 72 q 938 78 913 75 q 981 88 963 81 q 1013 110 1000 96 q 1032 153 1026 125 q 1031 206 1035 181 q 1015 260 1026 232 q 658 278 836 265 q 300 297 479 290 m 772 604 q 647 628 706 633 q 538 594 588 624 q 449 517 488 565 q 386 414 411 469 q 670 406 522 413 q 954 396 818 399 q 868 531 915 479 q 772 604 821 582 m 106 301 q 144 284 125 293 q 183 267 164 275 q 194 283 189 274 q 204 300 199 292 q 156 301 181 300 q 106 301 131 301 m 567 919 q 540 874 556 892 q 506 856 525 856 q 490 863 494 856 q 486 881 486 871 q 489 902 486 892 q 494 919 492 913 q 544 1039 515 982 q 611 1144 572 1096 q 634 1161 622 1158 q 657 1151 646 1164 q 760 1042 704 1093 q 892 964 817 992 q 901 934 904 957 q 886 888 899 911 q 855 851 874 865 q 819 846 836 836 q 702 915 753 869 q 604 1013 651 960 q 581 960 589 983 q 567 919 574 938 z "},"":{"ha":1283,"x_min":-189,"x_max":1265,"o":"m 139 17 q 103 -28 125 -7 q 57 -47 81 -50 q 40 -37 46 -46 q 35 -17 35 -29 q 38 7 35 -6 q 46 28 40 19 l 106 133 q -33 199 35 165 q -169 269 -101 232 q -186 297 -189 275 q -169 340 -183 318 q -134 381 -154 363 q -99 399 -114 399 q 92 410 -3 407 q 285 414 188 414 q 350 522 311 469 q 437 617 389 574 q 540 690 485 660 q 654 733 594 721 q 776 738 714 746 q 901 696 839 729 q 972 636 942 671 q 1027 562 1003 601 q 1072 479 1051 522 q 1113 397 1093 436 l 1238 401 q 1260 390 1254 399 q 1265 369 1265 381 q 1260 344 1264 357 q 1251 325 1256 332 q 1208 278 1226 289 q 1167 261 1190 267 l 1151 258 q 1147 187 1154 222 q 1124 118 1140 151 q 1061 23 1100 61 q 972 -36 1022 -15 q 865 -62 922 -57 q 749 -60 808 -67 q 485 -9 614 -50 q 233 79 356 32 q 209 88 221 83 q 185 99 197 93 q 162 57 174 78 q 139 17 150 36 m 300 297 q 261 233 281 269 q 313 212 288 222 q 365 190 338 201 q 490 149 426 171 q 618 110 553 128 q 749 83 683 93 q 883 72 815 72 q 938 78 913 75 q 981 88 963 81 q 1013 110 1000 96 q 1032 153 1026 125 q 1031 206 1035 181 q 1015 260 1026 232 q 658 278 836 265 q 300 297 479 290 m 772 604 q 647 628 706 633 q 538 594 588 624 q 449 517 488 565 q 386 414 411 469 q 670 406 522 413 q 954 396 818 399 q 868 531 915 479 q 772 604 821 582 m 106 301 q 144 284 125 293 q 183 267 164 275 q 194 283 189 274 q 204 300 199 292 q 156 301 181 300 q 106 301 131 301 m 497 868 q 465 839 483 847 q 435 842 446 831 q 431 884 421 861 q 453 931 440 907 q 491 976 469 956 q 538 1008 513 996 q 592 1023 564 1021 q 651 1013 621 1025 q 696 985 674 999 q 740 965 718 971 q 784 962 761 958 q 831 986 807 965 q 863 990 850 1001 q 875 958 875 979 q 860 913 875 932 q 831 879 844 893 q 731 836 782 839 q 633 860 679 833 q 592 887 613 875 q 553 903 572 899 q 518 892 532 903 q 497 868 504 882 z "},"":{"ha":1283,"x_min":-189,"x_max":1265,"o":"m 139 17 q 103 -28 125 -7 q 57 -47 81 -50 q 40 -37 46 -46 q 35 -17 35 -29 q 38 7 35 -6 q 46 28 40 19 l 106 133 q -33 199 35 165 q -169 269 -101 232 q -186 297 -189 275 q -169 340 -183 318 q -134 381 -154 363 q -99 399 -114 399 q 92 410 -3 407 q 285 414 188 414 q 350 522 311 469 q 437 617 389 574 q 540 690 485 660 q 654 733 594 721 q 776 738 714 746 q 901 696 839 729 q 972 636 942 671 q 1027 562 1003 601 q 1072 479 1051 522 q 1113 397 1093 436 l 1238 401 q 1260 390 1254 399 q 1265 369 1265 381 q 1260 344 1264 357 q 1251 325 1256 332 q 1208 278 1226 289 q 1167 261 1190 267 l 1151 258 q 1147 187 1154 222 q 1124 118 1140 151 q 1061 23 1100 61 q 972 -36 1022 -15 q 865 -62 922 -57 q 749 -60 808 -67 q 485 -9 614 -50 q 233 79 356 32 q 209 88 221 83 q 185 99 197 93 q 162 57 174 78 q 139 17 150 36 m 300 297 q 261 233 281 269 q 313 212 288 222 q 365 190 338 201 q 490 149 426 171 q 618 110 553 128 q 749 83 683 93 q 883 72 815 72 q 938 78 913 75 q 981 88 963 81 q 1013 110 1000 96 q 1032 153 1026 125 q 1031 206 1035 181 q 1015 260 1026 232 q 658 278 836 265 q 300 297 479 290 m 772 604 q 647 628 706 633 q 538 594 588 624 q 449 517 488 565 q 386 414 411 469 q 670 406 522 413 q 954 396 818 399 q 868 531 915 479 q 772 604 821 582 m 106 301 q 144 284 125 293 q 183 267 164 275 q 194 283 189 274 q 204 300 199 292 q 156 301 181 300 q 106 301 131 301 m 474 843 q 448 854 456 842 q 441 887 440 867 q 449 931 442 907 q 469 976 457 954 q 495 1013 481 997 q 525 1032 510 1029 q 585 1042 549 1038 q 660 1050 621 1046 q 690 1026 685 1053 q 688 963 696 999 q 660 896 679 928 q 615 856 640 864 q 555 848 596 850 q 474 843 514 846 m 779 856 q 747 875 754 850 q 747 933 740 900 q 770 997 753 967 q 808 1035 788 1028 q 862 1050 828 1042 q 932 1065 896 1058 q 963 1049 956 1071 q 965 998 969 1028 q 944 939 960 968 q 907 900 929 910 q 853 878 889 893 q 779 856 817 863 z "},"":{"ha":1283,"x_min":-189,"x_max":1265,"o":"m 139 17 q 103 -28 125 -7 q 57 -47 81 -50 q 40 -37 46 -46 q 35 -17 35 -29 q 38 7 35 -6 q 46 28 40 19 l 106 133 q -33 199 35 165 q -169 269 -101 232 q -186 297 -189 275 q -169 340 -183 318 q -134 381 -154 363 q -99 399 -114 399 q 92 410 -3 407 q 285 414 188 414 q 350 522 311 469 q 437 617 389 574 q 540 690 485 660 q 654 733 594 721 q 776 738 714 746 q 901 696 839 729 q 972 636 942 671 q 1027 562 1003 601 q 1072 479 1051 522 q 1113 397 1093 436 l 1238 401 q 1260 390 1254 399 q 1265 369 1265 381 q 1260 344 1264 357 q 1251 325 1256 332 q 1208 278 1226 289 q 1167 261 1190 267 l 1151 258 q 1147 187 1154 222 q 1124 118 1140 151 q 1061 23 1100 61 q 972 -36 1022 -15 q 865 -62 922 -57 q 749 -60 808 -67 q 485 -9 614 -50 q 233 79 356 32 q 209 88 221 83 q 185 99 197 93 q 162 57 174 78 q 139 17 150 36 m 300 297 q 261 233 281 269 q 313 212 288 222 q 365 190 338 201 q 490 149 426 171 q 618 110 553 128 q 749 83 683 93 q 883 72 815 72 q 938 78 913 75 q 981 88 963 81 q 1013 110 1000 96 q 1032 153 1026 125 q 1031 206 1035 181 q 1015 260 1026 232 q 658 278 836 265 q 300 297 479 290 m 772 604 q 647 628 706 633 q 538 594 588 624 q 449 517 488 565 q 386 414 411 469 q 670 406 522 413 q 954 396 818 399 q 868 531 915 479 q 772 604 821 582 m 106 301 q 144 284 125 293 q 183 267 164 275 q 194 283 189 274 q 204 300 199 292 q 156 301 181 300 q 106 301 131 301 m 850 985 q 861 951 864 971 q 847 910 858 931 q 820 870 835 889 q 796 840 806 851 q 756 806 779 824 q 709 778 733 789 q 660 768 685 768 q 615 785 636 768 q 581 846 588 810 q 583 919 575 882 q 612 990 592 957 q 660 1039 632 1022 q 749 1042 700 1056 q 786 1047 768 1057 q 832 1000 818 1029 q 842 992 838 996 q 850 985 846 988 m 671 921 q 688 885 669 897 q 739 900 706 872 q 726 909 735 904 q 708 917 718 914 q 687 922 697 921 q 671 921 676 922 z "},"":{"ha":829,"x_min":44,"x_max":988,"o":"m 356 -57 q 354 -27 350 -44 q 365 6 358 -10 q 308 1 338 1 q 249 3 278 0 q 192 14 219 6 q 142 38 164 22 q 72 128 94 78 q 47 235 50 179 q 58 350 44 292 q 93 463 71 408 q 143 567 115 518 q 197 653 171 615 q 467 903 324 818 q 782 982 611 988 q 801 954 801 978 q 790 903 801 931 q 758 855 778 876 q 718 833 738 833 q 579 818 644 833 q 456 770 514 803 q 347 687 399 738 q 247 564 294 636 q 184 434 207 496 q 167 307 161 372 q 205 219 175 251 q 280 172 235 186 q 382 158 325 157 q 501 170 439 158 q 624 201 563 182 q 741 241 686 219 q 841 283 796 263 q 914 321 886 304 q 969 340 950 342 q 988 306 988 338 q 965 255 988 282 q 897 203 942 228 q 803 153 857 179 q 690 103 750 128 q 569 58 631 79 q 451 22 507 36 q 478 -28 465 -4 q 519 -67 492 -51 q 530 -99 532 -78 q 517 -140 528 -119 q 488 -174 506 -160 q 454 -183 471 -187 q 401 -181 428 -183 q 346 -182 374 -179 q 473 -225 404 -218 q 608 -218 542 -232 q 622 -224 618 -217 q 626 -242 626 -231 q 624 -265 626 -253 q 618 -283 621 -276 q 596 -321 611 -304 q 554 -337 581 -337 q 465 -346 517 -344 q 363 -337 413 -347 q 271 -305 313 -328 q 213 -239 229 -282 q 210 -195 206 -218 q 225 -151 214 -172 q 252 -112 236 -129 q 285 -83 268 -94 q 358 -61 318 -65 q 357 -59 357 -60 q 356 -57 357 -58 z "},"":{"ha":1215,"x_min":-1,"x_max":1261,"o":"m 1135 801 q 1151 796 1147 804 q 1156 775 1156 788 q 1152 749 1156 763 q 1144 726 1149 735 q 1120 683 1138 703 q 1069 663 1103 663 q 936 648 1003 654 q 801 632 869 642 q 965 607 883 617 q 1135 589 1047 597 q 1159 569 1158 589 q 1148 524 1160 549 q 1117 478 1136 500 q 1082 451 1097 456 q 916 421 1010 438 q 724 386 822 404 q 532 349 626 368 q 362 313 438 331 q 238 281 286 296 q 186 254 190 265 q 216 224 181 242 q 316 191 251 207 q 469 162 381 175 q 658 144 557 149 q 944 148 801 138 q 1239 165 1088 158 q 1260 149 1260 169 q 1249 101 1261 128 q 1217 51 1238 74 q 1178 28 1197 28 q 875 6 1025 13 q 572 7 725 -1 q 428 20 501 11 q 283 48 354 29 q 145 98 211 67 q 24 176 79 129 q 3 215 8 188 q 5 271 -1 242 q 28 326 11 300 q 72 361 44 351 q 328 454 186 417 q 618 517 469 492 q 468 558 543 533 q 454 584 453 565 q 463 621 456 603 q 490 666 471 644 q 532 696 508 688 q 673 740 599 724 q 824 768 747 757 q 980 786 901 779 q 1135 801 1058 793 m 1004 969 q 1013 935 1018 958 q 996 890 1008 913 q 967 855 983 868 q 940 853 950 842 q 856 911 900 886 q 764 959 811 936 q 670 1006 717 982 q 579 1058 624 1029 q 571 1092 567 1068 q 589 1138 575 1115 q 620 1174 603 1160 q 651 1178 638 1188 q 738 1123 693 1147 q 828 1076 782 1099 q 918 1028 874 1053 q 1004 969 963 1003 z "},"":{"ha":1215,"x_min":-1,"x_max":1261,"o":"m 1135 801 q 1151 796 1147 804 q 1156 775 1156 788 q 1152 749 1156 763 q 1144 726 1149 735 q 1120 683 1138 703 q 1069 663 1103 663 q 936 648 1003 654 q 801 632 869 642 q 965 607 883 617 q 1135 589 1047 597 q 1159 569 1158 589 q 1148 524 1160 549 q 1117 478 1136 500 q 1082 451 1097 456 q 916 421 1010 438 q 724 386 822 404 q 532 349 626 368 q 362 313 438 331 q 238 281 286 296 q 186 254 190 265 q 216 224 181 242 q 316 191 251 207 q 469 162 381 175 q 658 144 557 149 q 944 148 801 138 q 1239 165 1088 158 q 1260 149 1260 169 q 1249 101 1261 128 q 1217 51 1238 74 q 1178 28 1197 28 q 875 6 1025 13 q 572 7 725 -1 q 428 20 501 11 q 283 48 354 29 q 145 98 211 67 q 24 176 79 129 q 3 215 8 188 q 5 271 -1 242 q 28 326 11 300 q 72 361 44 351 q 328 454 186 417 q 618 517 469 492 q 468 558 543 533 q 454 584 453 565 q 463 621 456 603 q 490 666 471 644 q 532 696 508 688 q 673 740 599 724 q 824 768 747 757 q 980 786 901 779 q 1135 801 1058 793 m 689 897 q 657 883 674 885 q 635 908 640 882 q 637 949 628 928 q 668 990 646 969 q 735 1048 703 1022 q 800 1098 767 1074 q 868 1145 833 1122 q 943 1196 903 1168 q 977 1199 964 1210 q 990 1168 990 1189 q 981 1127 990 1149 q 943 1088 971 1106 q 872 1037 903 1060 q 813 992 842 1014 q 754 948 783 971 q 689 897 725 925 z "},"":{"ha":1215,"x_min":-1,"x_max":1261,"o":"m 1135 801 q 1151 796 1147 804 q 1156 775 1156 788 q 1152 749 1156 763 q 1144 726 1149 735 q 1120 683 1138 703 q 1069 663 1103 663 q 936 648 1003 654 q 801 632 869 642 q 965 607 883 617 q 1135 589 1047 597 q 1159 569 1158 589 q 1148 524 1160 549 q 1117 478 1136 500 q 1082 451 1097 456 q 916 421 1010 438 q 724 386 822 404 q 532 349 626 368 q 362 313 438 331 q 238 281 286 296 q 186 254 190 265 q 216 224 181 242 q 316 191 251 207 q 469 162 381 175 q 658 144 557 149 q 944 148 801 138 q 1239 165 1088 158 q 1260 149 1260 169 q 1249 101 1261 128 q 1217 51 1238 74 q 1178 28 1197 28 q 875 6 1025 13 q 572 7 725 -1 q 428 20 501 11 q 283 48 354 29 q 145 98 211 67 q 24 176 79 129 q 3 215 8 188 q 5 271 -1 242 q 28 326 11 300 q 72 361 44 351 q 328 454 186 417 q 618 517 469 492 q 468 558 543 533 q 454 584 453 565 q 463 621 456 603 q 490 666 471 644 q 532 696 508 688 q 673 740 599 724 q 824 768 747 757 q 980 786 901 779 q 1135 801 1058 793 m 668 953 q 642 907 657 925 q 607 889 626 889 q 592 897 596 889 q 588 915 588 904 q 590 935 588 925 q 596 953 593 946 q 645 1072 617 1015 q 713 1178 674 1129 q 735 1194 724 1192 q 758 1185 747 1197 q 862 1076 806 1126 q 993 997 918 1025 q 1003 967 1006 990 q 988 922 1000 944 q 956 884 975 899 q 921 879 938 869 q 803 948 854 903 q 706 1046 753 993 q 683 994 690 1017 q 668 953 675 971 z "},"":{"ha":1215,"x_min":-1,"x_max":1261,"o":"m 1135 801 q 1151 796 1147 804 q 1156 775 1156 788 q 1152 749 1156 763 q 1144 726 1149 735 q 1120 683 1138 703 q 1069 663 1103 663 q 936 648 1003 654 q 801 632 869 642 q 965 607 883 617 q 1135 589 1047 597 q 1159 569 1158 589 q 1148 524 1160 549 q 1117 478 1136 500 q 1082 451 1097 456 q 916 421 1010 438 q 724 386 822 404 q 532 349 626 368 q 362 313 438 331 q 238 281 286 296 q 186 254 190 265 q 216 224 181 242 q 316 191 251 207 q 469 162 381 175 q 658 144 557 149 q 944 148 801 138 q 1239 165 1088 158 q 1260 149 1260 169 q 1249 101 1261 128 q 1217 51 1238 74 q 1178 28 1197 28 q 875 6 1025 13 q 572 7 725 -1 q 428 20 501 11 q 283 48 354 29 q 145 98 211 67 q 24 176 79 129 q 3 215 8 188 q 5 271 -1 242 q 28 326 11 300 q 72 361 44 351 q 328 454 186 417 q 618 517 469 492 q 468 558 543 533 q 454 584 453 565 q 463 621 456 603 q 490 666 471 644 q 532 696 508 688 q 673 740 599 724 q 824 768 747 757 q 980 786 901 779 q 1135 801 1058 793 m 556 868 q 530 879 538 867 q 523 912 522 892 q 531 956 524 932 q 551 1001 539 979 q 577 1038 563 1022 q 607 1057 592 1054 q 667 1067 631 1063 q 742 1075 703 1071 q 772 1051 767 1078 q 769 988 778 1024 q 742 921 761 953 q 697 881 722 889 q 637 873 678 875 q 556 868 596 871 m 861 881 q 829 900 836 875 q 828 958 822 925 q 852 1022 835 992 q 890 1060 869 1053 q 944 1075 910 1067 q 1014 1090 978 1083 q 1044 1074 1038 1096 q 1047 1023 1051 1053 q 1026 964 1042 993 q 989 925 1011 935 q 935 903 971 918 q 861 881 899 888 z "},"":{"ha":668,"x_min":-8,"x_max":663,"o":"m 33 785 q -1 797 6 776 q -1 844 -8 817 q 24 898 7 872 q 61 928 42 924 q 156 947 110 943 q 264 944 203 951 q 446 876 368 933 q 573 737 524 819 q 642 556 622 654 q 651 361 663 457 q 597 168 642 265 q 471 0 551 71 q 384 -55 432 -36 q 285 -78 336 -74 q 180 -75 233 -82 q 76 -51 126 -68 q 62 -18 60 -43 q 77 33 64 7 q 113 76 90 58 q 158 88 135 94 q 243 72 197 76 q 338 75 289 67 q 428 120 390 89 q 492 194 467 151 q 528 291 517 238 q 542 404 540 344 q 504 581 543 496 q 392 721 465 665 q 308 776 351 757 q 219 801 265 794 q 127 802 174 807 q 33 785 81 797 m 543 1132 q 552 1098 557 1121 q 535 1053 547 1075 q 506 1017 522 1031 q 479 1015 489 1004 q 394 1074 439 1049 q 303 1122 350 1099 q 209 1168 256 1144 q 118 1221 163 1192 q 110 1254 106 1231 q 128 1300 114 1278 q 159 1336 142 1322 q 190 1340 176 1350 q 276 1285 232 1310 q 367 1238 321 1261 q 457 1190 413 1215 q 543 1132 501 1165 z "},"":{"ha":668,"x_min":-8,"x_max":663,"o":"m 33 785 q -1 797 6 776 q -1 844 -8 817 q 24 898 7 872 q 61 928 42 924 q 156 947 110 943 q 264 944 203 951 q 446 876 368 933 q 573 737 524 819 q 642 556 622 654 q 651 361 663 457 q 597 168 642 265 q 471 0 551 71 q 384 -55 432 -36 q 285 -78 336 -74 q 180 -75 233 -82 q 76 -51 126 -68 q 62 -18 60 -43 q 77 33 64 7 q 113 76 90 58 q 158 88 135 94 q 243 72 197 76 q 338 75 289 67 q 428 120 390 89 q 492 194 467 151 q 528 291 517 238 q 542 404 540 344 q 504 581 543 496 q 392 721 465 665 q 308 776 351 757 q 219 801 265 794 q 127 802 174 807 q 33 785 81 797 m 176 1008 q 144 994 161 996 q 122 1019 128 993 q 124 1060 115 1039 q 156 1101 133 1081 q 222 1159 190 1133 q 288 1209 254 1185 q 356 1256 321 1233 q 431 1307 390 1279 q 465 1310 451 1321 q 478 1279 478 1300 q 468 1238 478 1260 q 431 1199 458 1217 q 360 1148 390 1171 q 300 1103 329 1125 q 242 1059 271 1082 q 176 1008 213 1036 z "},"":{"ha":668,"x_min":-8,"x_max":663,"o":"m 33 785 q -1 797 6 776 q -1 844 -8 817 q 24 898 7 872 q 61 928 42 924 q 156 947 110 943 q 264 944 203 951 q 446 876 368 933 q 573 737 524 819 q 642 556 622 654 q 651 361 663 457 q 597 168 642 265 q 471 0 551 71 q 384 -55 432 -36 q 285 -78 336 -74 q 180 -75 233 -82 q 76 -51 126 -68 q 62 -18 60 -43 q 77 33 64 7 q 113 76 90 58 q 158 88 135 94 q 243 72 197 76 q 338 75 289 67 q 428 120 390 89 q 492 194 467 151 q 528 291 517 238 q 542 404 540 344 q 504 581 543 496 q 392 721 465 665 q 308 776 351 757 q 219 801 265 794 q 127 802 174 807 q 33 785 81 797 m 201 1135 q 175 1089 190 1107 q 140 1071 160 1071 q 125 1078 129 1071 q 121 1097 121 1086 q 124 1117 121 1107 q 129 1135 126 1128 q 178 1254 150 1197 q 246 1360 207 1311 q 269 1376 257 1374 q 292 1367 281 1379 q 395 1258 339 1308 q 526 1179 451 1207 q 536 1149 539 1172 q 521 1103 533 1126 q 490 1066 508 1081 q 454 1061 471 1051 q 337 1130 388 1085 q 239 1228 286 1175 q 216 1176 224 1199 q 201 1135 208 1153 z "},"":{"ha":668,"x_min":-8,"x_max":663,"o":"m 33 785 q -1 797 6 776 q -1 844 -8 817 q 24 898 7 872 q 61 928 42 924 q 156 947 110 943 q 264 944 203 951 q 446 876 368 933 q 573 737 524 819 q 642 556 622 654 q 651 361 663 457 q 597 168 642 265 q 471 0 551 71 q 384 -55 432 -36 q 285 -78 336 -74 q 180 -75 233 -82 q 76 -51 126 -68 q 62 -18 60 -43 q 77 33 64 7 q 113 76 90 58 q 158 88 135 94 q 243 72 197 76 q 338 75 289 67 q 428 120 390 89 q 492 194 467 151 q 528 291 517 238 q 542 404 540 344 q 504 581 543 496 q 392 721 465 665 q 308 776 351 757 q 219 801 265 794 q 127 802 174 807 q 33 785 81 797 m 57 1021 q 31 1032 39 1019 q 24 1065 24 1044 q 33 1108 25 1085 q 52 1153 40 1132 q 78 1191 64 1175 q 108 1210 93 1207 q 168 1219 132 1215 q 243 1228 204 1224 q 274 1203 268 1231 q 271 1141 279 1176 q 243 1074 263 1106 q 199 1033 224 1042 q 138 1026 179 1028 q 57 1021 97 1024 m 363 1033 q 331 1053 338 1028 q 330 1111 324 1078 q 353 1175 336 1144 q 392 1213 371 1206 q 445 1228 411 1219 q 515 1243 479 1236 q 546 1227 539 1249 q 548 1176 553 1206 q 528 1117 543 1146 q 490 1078 513 1088 q 436 1056 472 1071 q 363 1033 400 1040 z "},"":{"ha":915,"x_min":-512,"x_max":914,"o":"m -11 343 q -29 362 -29 343 q -19 403 -29 381 q 10 445 -8 426 q 46 464 28 464 l 224 464 q 272 561 247 513 q 321 665 296 610 q 331 679 325 671 q 344 696 338 688 q 159 708 253 708 q -22 703 65 708 q -252 684 -139 696 q -474 635 -365 672 q -505 644 -497 628 q -506 685 -512 661 q -481 730 -499 706 q -429 761 -462 754 q -210 810 -328 789 q 31 838 -93 831 q 321 839 188 846 q 572 801 454 832 q 679 765 626 788 q 776 712 732 743 q 851 640 819 681 q 893 549 882 600 q 903 411 914 476 q 858 290 892 346 q 774 186 825 233 q 661 103 722 139 q 531 40 603 65 q 379 3 458 15 q 219 -8 300 -10 q 63 11 138 -7 q 42 26 50 15 q 43 60 33 36 q 101 208 71 139 q 164 343 132 276 l -11 343 m 518 656 q 469 670 494 664 q 418 683 444 676 q 415 667 417 674 q 410 656 413 660 q 365 556 386 601 q 325 467 344 510 q 438 472 382 469 q 550 482 493 475 q 565 479 560 486 q 569 460 569 472 q 567 437 569 449 q 560 418 564 425 q 551 401 556 411 q 538 383 546 392 q 518 367 529 374 q 493 361 507 361 q 381 351 436 354 q 269 346 325 349 q 231 260 250 306 q 190 160 213 214 q 224 145 186 153 q 326 140 261 138 q 474 161 390 143 q 646 224 557 179 q 693 256 668 235 q 738 301 718 276 q 772 354 758 326 q 785 407 785 382 q 763 501 785 461 q 706 569 742 540 q 621 619 669 599 q 518 656 572 640 z "},"":{"ha":1157,"x_min":71,"x_max":1124,"o":"m 232 175 q 217 116 232 147 q 183 65 201 85 q 161 49 174 57 q 137 40 149 42 q 117 43 125 38 q 110 65 110 49 q 83 380 94 221 q 82 703 71 539 q 91 738 82 715 q 115 779 100 760 q 151 810 131 799 q 194 811 171 821 q 364 728 283 779 q 517 615 444 678 q 656 483 590 553 q 778 343 721 413 q 886 207 836 274 q 979 86 936 140 q 990 101 986 85 q 996 146 994 118 q 996 209 997 174 q 991 280 994 244 q 983 348 988 315 q 974 403 979 381 q 840 786 938 604 q 844 835 832 804 q 877 892 857 867 q 919 929 897 918 q 950 919 940 940 q 1052 686 1008 811 q 1110 433 1096 561 q 1099 179 1124 304 q 999 -54 1075 54 q 966 -85 989 -72 q 924 -87 943 -99 q 776 96 856 4 q 617 269 697 188 q 461 421 536 351 q 328 538 386 490 q 236 604 271 585 q 201 608 201 624 q 210 393 201 500 q 232 175 218 286 m 389 964 q 356 935 375 943 q 326 938 338 926 q 322 980 313 957 q 344 1026 332 1003 q 383 1072 361 1051 q 430 1104 404 1092 q 484 1119 456 1117 q 543 1108 513 1121 q 588 1081 565 1094 q 631 1060 610 1067 q 676 1058 653 1054 q 722 1082 699 1061 q 754 1086 742 1097 q 767 1054 767 1075 q 751 1008 767 1028 q 722 975 736 989 q 622 932 674 935 q 525 956 571 929 q 484 983 504 971 q 444 999 464 994 q 410 988 424 999 q 389 964 396 978 z "},"":{"ha":1208,"x_min":44,"x_max":1161,"o":"m 553 726 q 584 727 571 736 q 600 690 597 718 q 584 633 600 663 q 542 583 568 603 q 494 551 518 565 q 443 524 469 538 q 390 495 417 510 q 335 463 363 481 q 282 427 310 444 q 228 390 254 410 q 186 333 194 364 q 190 276 178 303 q 234 227 203 249 q 311 199 265 206 q 453 192 379 188 q 602 215 528 197 q 746 263 676 233 q 876 331 815 293 q 929 365 899 343 q 987 415 960 388 q 1031 473 1014 442 q 1043 536 1049 504 q 1023 598 1039 571 q 982 647 1007 625 q 926 685 957 668 q 863 715 896 701 q 694 751 783 740 q 517 761 606 761 q 487 786 489 761 q 497 842 485 811 q 532 900 510 872 q 576 932 554 928 q 738 926 658 932 q 900 893 818 921 q 963 868 926 885 q 1033 826 999 851 q 1097 770 1068 801 q 1142 703 1126 739 q 1160 613 1158 658 q 1150 526 1161 568 q 1117 442 1139 483 q 1068 365 1096 401 q 787 140 950 221 q 433 31 624 58 q 356 26 396 26 q 278 30 317 25 q 202 47 239 35 q 133 81 165 58 q 56 202 68 133 q 71 343 44 271 q 163 474 107 419 q 285 571 219 528 q 421 650 351 614 q 553 726 490 686 m 826 1075 q 835 1041 840 1064 q 818 996 831 1018 q 789 960 806 974 q 763 958 772 947 q 678 1017 722 992 q 586 1065 633 1042 q 492 1111 539 1088 q 401 1164 446 1135 q 393 1197 389 1174 q 411 1243 397 1221 q 442 1279 425 1265 q 474 1283 460 1293 q 560 1228 515 1253 q 650 1181 604 1204 q 740 1133 696 1158 q 826 1075 785 1108 z "},"":{"ha":1208,"x_min":44,"x_max":1161,"o":"m 553 726 q 584 727 571 736 q 600 690 597 718 q 584 633 600 663 q 542 583 568 603 q 494 551 518 565 q 443 524 469 538 q 390 495 417 510 q 335 463 363 481 q 282 427 310 444 q 228 390 254 410 q 186 333 194 364 q 190 276 178 303 q 234 227 203 249 q 311 199 265 206 q 453 192 379 188 q 602 215 528 197 q 746 263 676 233 q 876 331 815 293 q 929 365 899 343 q 987 415 960 388 q 1031 473 1014 442 q 1043 536 1049 504 q 1023 598 1039 571 q 982 647 1007 625 q 926 685 957 668 q 863 715 896 701 q 694 751 783 740 q 517 761 606 761 q 487 786 489 761 q 497 842 485 811 q 532 900 510 872 q 576 932 554 928 q 738 926 658 932 q 900 893 818 921 q 963 868 926 885 q 1033 826 999 851 q 1097 770 1068 801 q 1142 703 1126 739 q 1160 613 1158 658 q 1150 526 1161 568 q 1117 442 1139 483 q 1068 365 1096 401 q 787 140 950 221 q 433 31 624 58 q 356 26 396 26 q 278 30 317 25 q 202 47 239 35 q 133 81 165 58 q 56 202 68 133 q 71 343 44 271 q 163 474 107 419 q 285 571 219 528 q 421 650 351 614 q 553 726 490 686 m 488 983 q 456 969 472 971 q 433 994 439 968 q 435 1035 426 1014 q 467 1076 444 1056 q 533 1134 501 1108 q 599 1184 565 1160 q 667 1231 632 1208 q 742 1282 701 1254 q 776 1285 763 1296 q 789 1254 789 1275 q 779 1213 789 1235 q 742 1174 769 1192 q 671 1123 701 1146 q 611 1078 640 1100 q 553 1034 582 1057 q 488 983 524 1011 z "},"":{"ha":1208,"x_min":44,"x_max":1161,"o":"m 553 726 q 584 727 571 736 q 600 690 597 718 q 584 633 600 663 q 542 583 568 603 q 494 551 518 565 q 443 524 469 538 q 390 495 417 510 q 335 463 363 481 q 282 427 310 444 q 228 390 254 410 q 186 333 194 364 q 190 276 178 303 q 234 227 203 249 q 311 199 265 206 q 453 192 379 188 q 602 215 528 197 q 746 263 676 233 q 876 331 815 293 q 929 365 899 343 q 987 415 960 388 q 1031 473 1014 442 q 1043 536 1049 504 q 1023 598 1039 571 q 982 647 1007 625 q 926 685 957 668 q 863 715 896 701 q 694 751 783 740 q 517 761 606 761 q 487 786 489 761 q 497 842 485 811 q 532 900 510 872 q 576 932 554 928 q 738 926 658 932 q 900 893 818 921 q 963 868 926 885 q 1033 826 999 851 q 1097 770 1068 801 q 1142 703 1126 739 q 1160 613 1158 658 q 1150 526 1161 568 q 1117 442 1139 483 q 1068 365 1096 401 q 787 140 950 221 q 433 31 624 58 q 356 26 396 26 q 278 30 317 25 q 202 47 239 35 q 133 81 165 58 q 56 202 68 133 q 71 343 44 271 q 163 474 107 419 q 285 571 219 528 q 421 650 351 614 q 553 726 490 686 m 510 1088 q 483 1042 499 1060 q 449 1024 468 1024 q 433 1031 438 1024 q 429 1049 429 1039 q 432 1070 429 1060 q 438 1088 435 1081 q 487 1207 458 1150 q 554 1313 515 1264 q 577 1329 565 1326 q 600 1319 589 1332 q 703 1210 647 1261 q 835 1132 760 1160 q 844 1102 847 1125 q 829 1056 842 1079 q 798 1019 817 1033 q 763 1014 779 1004 q 645 1083 696 1038 q 547 1181 594 1128 q 524 1128 532 1151 q 510 1088 517 1106 z "},"":{"ha":1208,"x_min":44,"x_max":1161,"o":"m 553 726 q 584 727 571 736 q 600 690 597 718 q 584 633 600 663 q 542 583 568 603 q 494 551 518 565 q 443 524 469 538 q 390 495 417 510 q 335 463 363 481 q 282 427 310 444 q 228 390 254 410 q 186 333 194 364 q 190 276 178 303 q 234 227 203 249 q 311 199 265 206 q 453 192 379 188 q 602 215 528 197 q 746 263 676 233 q 876 331 815 293 q 929 365 899 343 q 987 415 960 388 q 1031 473 1014 442 q 1043 536 1049 504 q 1023 598 1039 571 q 982 647 1007 625 q 926 685 957 668 q 863 715 896 701 q 694 751 783 740 q 517 761 606 761 q 487 786 489 761 q 497 842 485 811 q 532 900 510 872 q 576 932 554 928 q 738 926 658 932 q 900 893 818 921 q 963 868 926 885 q 1033 826 999 851 q 1097 770 1068 801 q 1142 703 1126 739 q 1160 613 1158 658 q 1150 526 1161 568 q 1117 442 1139 483 q 1068 365 1096 401 q 787 140 950 221 q 433 31 624 58 q 356 26 396 26 q 278 30 317 25 q 202 47 239 35 q 133 81 165 58 q 56 202 68 133 q 71 343 44 271 q 163 474 107 419 q 285 571 219 528 q 421 650 351 614 q 553 726 490 686 m 456 1061 q 423 1032 442 1040 q 393 1035 404 1024 q 389 1077 379 1054 q 411 1124 399 1100 q 449 1169 428 1149 q 497 1201 471 1189 q 551 1216 522 1214 q 610 1206 579 1218 q 654 1178 632 1192 q 698 1158 676 1164 q 742 1155 719 1151 q 789 1179 765 1158 q 821 1183 808 1194 q 833 1151 833 1172 q 818 1106 833 1125 q 789 1072 803 1086 q 689 1029 740 1032 q 592 1053 638 1026 q 551 1080 571 1068 q 511 1096 531 1092 q 476 1085 490 1096 q 456 1061 463 1075 z "},"":{"ha":1208,"x_min":44,"x_max":1161,"o":"m 553 726 q 584 727 571 736 q 600 690 597 718 q 584 633 600 663 q 542 583 568 603 q 494 551 518 565 q 443 524 469 538 q 390 495 417 510 q 335 463 363 481 q 282 427 310 444 q 228 390 254 410 q 186 333 194 364 q 190 276 178 303 q 234 227 203 249 q 311 199 265 206 q 453 192 379 188 q 602 215 528 197 q 746 263 676 233 q 876 331 815 293 q 929 365 899 343 q 987 415 960 388 q 1031 473 1014 442 q 1043 536 1049 504 q 1023 598 1039 571 q 982 647 1007 625 q 926 685 957 668 q 863 715 896 701 q 694 751 783 740 q 517 761 606 761 q 487 786 489 761 q 497 842 485 811 q 532 900 510 872 q 576 932 554 928 q 738 926 658 932 q 900 893 818 921 q 963 868 926 885 q 1033 826 999 851 q 1097 770 1068 801 q 1142 703 1126 739 q 1160 613 1158 658 q 1150 526 1161 568 q 1117 442 1139 483 q 1068 365 1096 401 q 787 140 950 221 q 433 31 624 58 q 356 26 396 26 q 278 30 317 25 q 202 47 239 35 q 133 81 165 58 q 56 202 68 133 q 71 343 44 271 q 163 474 107 419 q 285 571 219 528 q 421 650 351 614 q 553 726 490 686 m 381 1014 q 355 1025 363 1013 q 348 1058 347 1038 q 356 1101 349 1078 q 376 1147 364 1125 q 402 1184 388 1168 q 432 1203 417 1200 q 492 1213 456 1208 q 567 1221 528 1217 q 597 1197 592 1224 q 594 1134 603 1169 q 567 1067 586 1099 q 522 1026 547 1035 q 462 1019 503 1021 q 381 1014 421 1017 m 686 1026 q 654 1046 661 1021 q 653 1104 647 1071 q 677 1168 660 1138 q 715 1206 694 1199 q 769 1221 735 1213 q 839 1236 803 1229 q 869 1220 863 1242 q 872 1169 876 1199 q 851 1110 867 1139 q 814 1071 836 1081 q 760 1049 796 1064 q 686 1026 724 1033 z "},"":{"ha":1314,"x_min":89,"x_max":1300,"o":"m 89 631 q 105 687 89 657 q 149 735 121 717 q 189 739 172 751 q 206 700 206 726 q 210 601 206 660 q 228 481 214 543 q 266 358 242 418 q 328 254 290 297 q 440 182 379 194 q 569 188 500 169 q 740 278 658 221 q 890 409 821 336 q 1013 565 958 482 q 1107 735 1068 649 q 1128 756 1114 743 q 1157 775 1142 768 q 1186 780 1172 782 q 1208 757 1200 778 q 1235 633 1221 706 q 1261 482 1249 560 q 1284 328 1274 404 q 1300 197 1294 253 q 1285 133 1300 163 q 1253 85 1271 103 q 1240 75 1249 81 q 1220 67 1231 69 q 1199 69 1210 65 q 1185 85 1189 72 q 1172 189 1181 129 q 1153 313 1164 249 q 1131 437 1143 376 q 1111 542 1119 497 q 1031 407 1079 475 q 919 276 982 339 q 837 198 881 239 q 746 120 793 157 q 647 55 699 83 q 542 14 596 26 q 451 2 497 1 q 359 15 404 3 q 274 53 314 28 q 206 117 235 78 q 138 231 161 168 q 103 360 114 293 q 91 497 93 428 q 89 631 89 567 m 776 1004 q 785 970 790 993 q 768 925 781 947 q 739 890 756 903 q 713 888 722 876 q 628 946 672 921 q 536 994 583 971 q 442 1040 489 1017 q 351 1093 396 1064 q 343 1126 339 1103 q 361 1172 347 1150 q 392 1208 375 1194 q 424 1213 410 1222 q 510 1158 465 1182 q 600 1110 554 1133 q 690 1063 646 1088 q 776 1004 735 1038 z "},"":{"ha":1314,"x_min":89,"x_max":1300,"o":"m 89 631 q 105 687 89 657 q 149 735 121 717 q 189 739 172 751 q 206 700 206 726 q 210 601 206 660 q 228 481 214 543 q 266 358 242 418 q 328 254 290 297 q 440 182 379 194 q 569 188 500 169 q 740 278 658 221 q 890 409 821 336 q 1013 565 958 482 q 1107 735 1068 649 q 1128 756 1114 743 q 1157 775 1142 768 q 1186 780 1172 782 q 1208 757 1200 778 q 1235 633 1221 706 q 1261 482 1249 560 q 1284 328 1274 404 q 1300 197 1294 253 q 1285 133 1300 163 q 1253 85 1271 103 q 1240 75 1249 81 q 1220 67 1231 69 q 1199 69 1210 65 q 1185 85 1189 72 q 1172 189 1181 129 q 1153 313 1164 249 q 1131 437 1143 376 q 1111 542 1119 497 q 1031 407 1079 475 q 919 276 982 339 q 837 198 881 239 q 746 120 793 157 q 647 55 699 83 q 542 14 596 26 q 451 2 497 1 q 359 15 404 3 q 274 53 314 28 q 206 117 235 78 q 138 231 161 168 q 103 360 114 293 q 91 497 93 428 q 89 631 89 567 m 563 928 q 531 914 547 915 q 508 939 514 913 q 510 979 501 958 q 542 1021 519 1000 q 608 1078 576 1053 q 674 1128 640 1104 q 742 1176 707 1153 q 817 1226 776 1199 q 851 1230 838 1240 q 864 1199 864 1219 q 854 1158 864 1179 q 817 1118 844 1136 q 746 1067 776 1090 q 686 1023 715 1044 q 628 978 657 1001 q 563 928 599 956 z "},"":{"ha":1314,"x_min":89,"x_max":1300,"o":"m 89 631 q 105 687 89 657 q 149 735 121 717 q 189 739 172 751 q 206 700 206 726 q 210 601 206 660 q 228 481 214 543 q 266 358 242 418 q 328 254 290 297 q 440 182 379 194 q 569 188 500 169 q 740 278 658 221 q 890 409 821 336 q 1013 565 958 482 q 1107 735 1068 649 q 1128 756 1114 743 q 1157 775 1142 768 q 1186 780 1172 782 q 1208 757 1200 778 q 1235 633 1221 706 q 1261 482 1249 560 q 1284 328 1274 404 q 1300 197 1294 253 q 1285 133 1300 163 q 1253 85 1271 103 q 1240 75 1249 81 q 1220 67 1231 69 q 1199 69 1210 65 q 1185 85 1189 72 q 1172 189 1181 129 q 1153 313 1164 249 q 1131 437 1143 376 q 1111 542 1119 497 q 1031 407 1079 475 q 919 276 982 339 q 837 198 881 239 q 746 120 793 157 q 647 55 699 83 q 542 14 596 26 q 451 2 497 1 q 359 15 404 3 q 274 53 314 28 q 206 117 235 78 q 138 231 161 168 q 103 360 114 293 q 91 497 93 428 q 89 631 89 567 m 504 1051 q 478 1006 493 1024 q 443 988 463 988 q 428 995 432 988 q 424 1013 424 1003 q 426 1034 424 1024 q 432 1051 429 1044 q 481 1171 453 1114 q 549 1276 510 1228 q 572 1293 560 1290 q 594 1283 583 1296 q 698 1174 642 1225 q 829 1096 754 1124 q 839 1066 842 1089 q 824 1020 836 1043 q 792 983 811 997 q 757 978 774 968 q 640 1047 690 1001 q 542 1144 589 1092 q 519 1092 526 1115 q 504 1051 511 1069 z "},"":{"ha":1314,"x_min":89,"x_max":1300,"o":"m 89 631 q 105 687 89 657 q 149 735 121 717 q 189 739 172 751 q 206 700 206 726 q 210 601 206 660 q 228 481 214 543 q 266 358 242 418 q 328 254 290 297 q 440 182 379 194 q 569 188 500 169 q 740 278 658 221 q 890 409 821 336 q 1013 565 958 482 q 1107 735 1068 649 q 1128 756 1114 743 q 1157 775 1142 768 q 1186 780 1172 782 q 1208 757 1200 778 q 1235 633 1221 706 q 1261 482 1249 560 q 1284 328 1274 404 q 1300 197 1294 253 q 1285 133 1300 163 q 1253 85 1271 103 q 1240 75 1249 81 q 1220 67 1231 69 q 1199 69 1210 65 q 1185 85 1189 72 q 1172 189 1181 129 q 1153 313 1164 249 q 1131 437 1143 376 q 1111 542 1119 497 q 1031 407 1079 475 q 919 276 982 339 q 837 198 881 239 q 746 120 793 157 q 647 55 699 83 q 542 14 596 26 q 451 2 497 1 q 359 15 404 3 q 274 53 314 28 q 206 117 235 78 q 138 231 161 168 q 103 360 114 293 q 91 497 93 428 q 89 631 89 567 m 429 953 q 403 964 411 951 q 397 997 396 976 q 405 1040 397 1017 q 424 1085 413 1064 q 451 1123 436 1107 q 481 1142 465 1139 q 540 1151 504 1147 q 615 1160 576 1156 q 646 1135 640 1163 q 643 1073 651 1108 q 615 1006 635 1038 q 571 965 596 974 q 510 958 551 960 q 429 953 469 956 m 735 965 q 703 985 710 960 q 702 1043 696 1010 q 726 1107 708 1076 q 764 1144 743 1138 q 817 1160 783 1151 q 888 1175 851 1168 q 918 1159 911 1181 q 920 1108 925 1138 q 900 1049 915 1078 q 863 1010 885 1019 q 808 988 844 1003 q 735 965 772 972 z "},"":{"ha":1283,"x_min":31,"x_max":1224,"o":"m 114 917 q 122 935 117 925 q 136 956 128 946 q 155 972 144 965 q 176 979 165 979 q 190 971 186 979 q 193 952 193 963 q 190 931 193 942 q 185 917 188 921 q 158 810 169 864 q 139 704 146 757 q 131 622 132 667 q 138 535 129 576 q 165 460 146 493 q 219 410 185 426 q 366 382 289 376 q 522 419 443 388 q 678 501 601 450 q 825 609 756 551 q 952 726 894 667 q 1049 833 1010 785 q 1095 881 1072 863 q 1138 903 1118 899 q 1173 899 1158 908 q 1193 865 1188 890 q 1209 742 1200 817 q 1221 583 1218 668 q 1217 406 1224 497 q 1185 233 1210 315 q 1116 82 1161 150 q 997 -26 1071 14 q 684 -98 846 -111 q 361 26 522 -85 q 354 60 349 42 q 376 94 360 78 q 415 126 392 111 q 462 150 439 140 q 505 163 485 160 q 535 160 525 165 q 684 94 618 118 q 801 64 750 71 q 890 64 851 57 q 957 90 928 71 q 1018 156 994 114 q 1055 251 1042 199 q 1072 362 1068 303 q 1076 478 1076 421 q 1069 586 1075 535 q 1058 675 1064 638 q 1027 633 1044 657 q 994 594 1010 610 q 834 444 914 514 q 667 324 754 375 q 480 242 579 272 q 263 211 381 213 q 135 258 183 218 q 63 357 88 297 q 34 491 38 417 q 40 641 31 565 q 70 789 50 717 q 114 917 90 861 m 544 1014 q 513 1000 529 1001 q 490 1025 496 999 q 492 1065 483 1044 q 524 1107 501 1086 q 590 1165 558 1139 q 656 1215 622 1190 q 724 1262 689 1239 q 799 1313 758 1285 q 833 1316 819 1326 q 846 1285 846 1306 q 836 1244 846 1265 q 799 1204 826 1222 q 728 1153 758 1176 q 668 1109 697 1131 q 610 1065 639 1088 q 544 1014 581 1042 z "},"":{"ha":994,"x_min":17,"x_max":957,"o":"m 639 504 q 663 477 658 497 q 660 432 667 457 q 713 478 686 456 q 767 519 739 500 q 794 527 782 529 q 822 504 807 525 q 861 446 843 479 q 896 375 879 413 q 926 299 913 338 q 950 222 939 260 q 948 155 957 190 q 893 81 939 119 q 869 69 882 75 q 845 61 857 63 q 824 67 833 60 q 808 94 814 74 q 764 217 789 151 q 700 335 739 283 q 655 275 675 303 q 608 218 635 247 q 543 157 581 189 q 446 85 506 125 q 367 45 408 64 q 284 15 326 26 q 199 5 242 4 q 115 24 157 6 q 32 116 47 58 q 35 236 17 174 q 97 358 54 299 q 188 456 139 418 q 404 546 288 535 q 639 504 521 557 m 342 208 q 443 256 396 226 q 535 322 490 286 q 447 352 493 339 q 354 367 400 365 q 265 356 308 369 q 186 307 222 343 q 165 246 154 269 q 206 210 175 222 q 276 197 236 197 q 342 208 315 197 m 682 790 q 691 756 696 779 q 674 711 686 733 q 644 676 661 689 q 618 674 628 663 q 533 732 578 707 q 442 780 489 757 q 348 826 394 803 q 257 879 301 850 q 249 913 244 889 q 267 958 253 936 q 298 994 281 981 q 329 999 315 1008 q 415 944 371 968 q 506 897 460 919 q 596 849 551 874 q 682 790 640 824 z "},"":{"ha":994,"x_min":17,"x_max":957,"o":"m 639 504 q 663 477 658 497 q 660 432 667 457 q 713 478 686 456 q 767 519 739 500 q 794 527 782 529 q 822 504 807 525 q 861 446 843 479 q 896 375 879 413 q 926 299 913 338 q 950 222 939 260 q 948 155 957 190 q 893 81 939 119 q 869 69 882 75 q 845 61 857 63 q 824 67 833 60 q 808 94 814 74 q 764 217 789 151 q 700 335 739 283 q 655 275 675 303 q 608 218 635 247 q 543 157 581 189 q 446 85 506 125 q 367 45 408 64 q 284 15 326 26 q 199 5 242 4 q 115 24 157 6 q 32 116 47 58 q 35 236 17 174 q 97 358 54 299 q 188 456 139 418 q 404 546 288 535 q 639 504 521 557 m 342 208 q 443 256 396 226 q 535 322 490 286 q 447 352 493 339 q 354 367 400 365 q 265 356 308 369 q 186 307 222 343 q 165 246 154 269 q 206 210 175 222 q 276 197 236 197 q 342 208 315 197 m 367 649 q 335 635 351 636 q 313 660 318 633 q 315 700 306 679 q 346 742 324 721 q 413 799 381 774 q 478 849 444 825 q 546 897 511 874 q 621 947 581 919 q 655 951 642 961 q 668 919 668 940 q 658 878 668 900 q 621 839 649 857 q 550 788 581 811 q 490 744 519 765 q 432 699 461 722 q 367 649 403 676 z "},"":{"ha":994,"x_min":17,"x_max":957,"o":"m 639 504 q 663 477 658 497 q 660 432 667 457 q 713 478 686 456 q 767 519 739 500 q 794 527 782 529 q 822 504 807 525 q 861 446 843 479 q 896 375 879 413 q 926 299 913 338 q 950 222 939 260 q 948 155 957 190 q 893 81 939 119 q 869 69 882 75 q 845 61 857 63 q 824 67 833 60 q 808 94 814 74 q 764 217 789 151 q 700 335 739 283 q 655 275 675 303 q 608 218 635 247 q 543 157 581 189 q 446 85 506 125 q 367 45 408 64 q 284 15 326 26 q 199 5 242 4 q 115 24 157 6 q 32 116 47 58 q 35 236 17 174 q 97 358 54 299 q 188 456 139 418 q 404 546 288 535 q 639 504 521 557 m 342 208 q 443 256 396 226 q 535 322 490 286 q 447 352 493 339 q 354 367 400 365 q 265 356 308 369 q 186 307 222 343 q 165 246 154 269 q 206 210 175 222 q 276 197 236 197 q 342 208 315 197 m 338 708 q 311 663 326 681 q 276 644 296 644 q 261 652 265 644 q 257 670 257 660 q 260 691 257 681 q 265 708 263 701 q 315 828 286 771 q 382 933 343 885 q 405 950 393 947 q 428 940 417 953 q 531 831 475 882 q 663 753 588 781 q 672 723 675 746 q 657 677 669 700 q 626 640 644 654 q 590 635 607 625 q 473 703 524 658 q 375 801 422 749 q 352 749 360 772 q 338 708 344 726 z "},"":{"ha":994,"x_min":17,"x_max":957,"o":"m 639 504 q 663 477 658 497 q 660 432 667 457 q 713 478 686 456 q 767 519 739 500 q 794 527 782 529 q 822 504 807 525 q 861 446 843 479 q 896 375 879 413 q 926 299 913 338 q 950 222 939 260 q 948 155 957 190 q 893 81 939 119 q 869 69 882 75 q 845 61 857 63 q 824 67 833 60 q 808 94 814 74 q 764 217 789 151 q 700 335 739 283 q 655 275 675 303 q 608 218 635 247 q 543 157 581 189 q 446 85 506 125 q 367 45 408 64 q 284 15 326 26 q 199 5 242 4 q 115 24 157 6 q 32 116 47 58 q 35 236 17 174 q 97 358 54 299 q 188 456 139 418 q 404 546 288 535 q 639 504 521 557 m 342 208 q 443 256 396 226 q 535 322 490 286 q 447 352 493 339 q 354 367 400 365 q 265 356 308 369 q 186 307 222 343 q 165 246 154 269 q 206 210 175 222 q 276 197 236 197 q 342 208 315 197 m 349 736 q 316 707 335 715 q 286 710 297 699 q 282 752 272 729 q 304 799 292 775 q 342 844 321 824 q 390 876 364 864 q 444 891 415 889 q 503 881 472 893 q 547 853 525 867 q 591 833 569 839 q 635 830 613 826 q 682 854 658 833 q 714 858 701 869 q 726 826 726 847 q 711 781 726 800 q 682 747 696 761 q 582 704 633 707 q 485 728 531 701 q 444 755 464 743 q 404 771 424 767 q 369 760 383 771 q 349 736 356 750 z "},"":{"ha":994,"x_min":17,"x_max":957,"o":"m 639 504 q 663 477 658 497 q 660 432 667 457 q 713 478 686 456 q 767 519 739 500 q 794 527 782 529 q 822 504 807 525 q 861 446 843 479 q 896 375 879 413 q 926 299 913 338 q 950 222 939 260 q 948 155 957 190 q 893 81 939 119 q 869 69 882 75 q 845 61 857 63 q 824 67 833 60 q 808 94 814 74 q 764 217 789 151 q 700 335 739 283 q 655 275 675 303 q 608 218 635 247 q 543 157 581 189 q 446 85 506 125 q 367 45 408 64 q 284 15 326 26 q 199 5 242 4 q 115 24 157 6 q 32 116 47 58 q 35 236 17 174 q 97 358 54 299 q 188 456 139 418 q 404 546 288 535 q 639 504 521 557 m 342 208 q 443 256 396 226 q 535 322 490 286 q 447 352 493 339 q 354 367 400 365 q 265 356 308 369 q 186 307 222 343 q 165 246 154 269 q 206 210 175 222 q 276 197 236 197 q 342 208 315 197 m 274 625 q 248 636 256 624 q 241 669 240 649 q 249 713 242 689 q 269 758 257 736 q 295 795 281 779 q 325 814 310 811 q 385 824 349 819 q 460 832 421 828 q 490 808 485 835 q 488 745 496 781 q 460 678 479 710 q 415 638 440 646 q 355 630 396 632 q 274 625 314 628 m 579 638 q 547 657 554 632 q 547 715 540 682 q 570 779 553 749 q 608 817 588 810 q 662 832 628 824 q 732 847 696 840 q 763 831 756 853 q 765 780 769 810 q 744 721 760 750 q 707 682 729 692 q 653 660 689 675 q 579 638 617 644 z "},"":{"ha":994,"x_min":17,"x_max":957,"o":"m 639 504 q 663 477 658 497 q 660 432 667 457 q 713 478 686 456 q 767 519 739 500 q 794 527 782 529 q 822 504 807 525 q 861 446 843 479 q 896 375 879 413 q 926 299 913 338 q 950 222 939 260 q 948 155 957 190 q 893 81 939 119 q 869 69 882 75 q 845 61 857 63 q 824 67 833 60 q 808 94 814 74 q 764 217 789 151 q 700 335 739 283 q 655 275 675 303 q 608 218 635 247 q 543 157 581 189 q 446 85 506 125 q 367 45 408 64 q 284 15 326 26 q 199 5 242 4 q 115 24 157 6 q 32 116 47 58 q 35 236 17 174 q 97 358 54 299 q 188 456 139 418 q 404 546 288 535 q 639 504 521 557 m 342 208 q 443 256 396 226 q 535 322 490 286 q 447 352 493 339 q 354 367 400 365 q 265 356 308 369 q 186 307 222 343 q 165 246 154 269 q 206 210 175 222 q 276 197 236 197 q 342 208 315 197 m 599 810 q 610 776 613 796 q 595 735 607 756 q 569 695 583 714 q 544 665 554 676 q 505 631 528 649 q 458 603 482 614 q 409 593 433 593 q 364 610 385 593 q 330 671 336 635 q 332 744 324 707 q 360 815 340 782 q 408 864 381 847 q 497 867 449 881 q 535 872 517 882 q 581 825 567 854 q 590 817 586 821 q 599 810 594 813 m 419 746 q 436 710 418 722 q 488 725 454 697 q 475 734 483 729 q 456 742 467 739 q 435 747 446 746 q 419 746 425 747 z "},"":{"ha":654,"x_min":53,"x_max":799,"o":"m 268 -57 q 268 -21 261 -42 q 155 29 206 -10 q 76 144 104 68 q 54 235 56 186 q 66 331 53 283 q 104 422 79 379 q 161 497 129 465 q 320 588 236 572 q 500 582 404 604 q 522 561 518 578 q 522 522 526 544 q 504 475 517 500 q 474 431 492 450 q 438 401 457 411 q 401 399 419 392 q 351 408 381 404 q 292 411 321 413 q 238 401 263 410 q 203 371 214 392 q 196 324 192 350 q 212 275 200 299 q 241 231 224 251 q 274 200 258 211 q 385 151 326 158 q 501 158 444 143 q 612 202 558 172 q 708 264 665 232 q 738 280 722 274 q 767 285 754 286 q 790 278 781 285 q 799 254 799 271 q 780 187 799 211 q 726 129 761 163 q 660 79 699 104 q 578 33 622 54 q 485 -3 533 13 q 389 -24 438 -18 q 406 -47 396 -36 q 432 -67 417 -58 q 442 -99 444 -78 q 429 -140 440 -119 q 401 -174 418 -160 q 367 -183 383 -187 q 313 -181 340 -183 q 258 -182 286 -179 q 385 -225 317 -218 q 521 -218 454 -232 q 535 -224 531 -217 q 539 -242 539 -231 q 536 -265 539 -253 q 531 -283 533 -276 q 508 -321 524 -304 q 467 -337 493 -337 q 377 -346 429 -344 q 275 -337 325 -347 q 183 -305 225 -328 q 125 -239 142 -282 q 122 -195 118 -218 q 138 -151 126 -172 q 165 -112 149 -129 q 197 -83 181 -94 q 271 -61 231 -65 q 269 -59 269 -60 q 268 -57 269 -58 z "},"":{"ha":718,"x_min":3,"x_max":814,"o":"m 28 258 q 6 290 10 269 q 9 335 3 311 q 29 382 15 358 q 60 423 43 406 q 94 447 76 440 q 126 442 113 453 q 144 432 135 436 q 164 422 154 428 q 187 455 175 439 q 211 485 199 471 q 261 540 235 514 q 319 588 288 567 q 391 625 351 610 q 481 649 431 640 q 588 645 544 656 q 650 613 632 635 q 674 533 678 581 q 650 442 671 485 q 567 332 619 378 q 454 257 515 286 q 329 214 393 228 q 211 199 265 200 q 273 135 233 156 q 360 110 313 114 q 463 118 408 107 q 569 149 517 129 q 670 196 622 169 q 754 250 718 222 q 797 269 782 271 q 813 236 811 268 q 785 161 814 204 q 707 76 757 118 q 590 6 654 36 q 457 -40 525 -25 q 322 -53 389 -56 q 197 -24 256 -50 q 99 85 122 18 q 88 226 76 153 q 58 241 72 233 q 28 258 43 249 m 538 424 q 528 447 542 439 q 490 455 515 454 q 433 449 465 456 q 368 433 400 443 q 306 409 336 424 q 258 379 276 394 q 351 357 303 364 q 451 364 399 350 q 507 389 486 375 q 538 424 528 403 m 572 860 q 581 826 586 849 q 564 781 576 803 q 535 745 551 758 q 508 743 518 732 q 424 801 468 776 q 332 849 379 826 q 238 896 285 872 q 147 949 192 919 q 139 982 135 958 q 157 1028 143 1006 q 188 1064 171 1050 q 219 1068 206 1078 q 306 1013 261 1038 q 396 966 350 989 q 486 918 442 943 q 572 860 531 893 z "},"":{"ha":718,"x_min":3,"x_max":814,"o":"m 28 258 q 6 290 10 269 q 9 335 3 311 q 29 382 15 358 q 60 423 43 406 q 94 447 76 440 q 126 442 113 453 q 144 432 135 436 q 164 422 154 428 q 187 455 175 439 q 211 485 199 471 q 261 540 235 514 q 319 588 288 567 q 391 625 351 610 q 481 649 431 640 q 588 645 544 656 q 650 613 632 635 q 674 533 678 581 q 650 442 671 485 q 567 332 619 378 q 454 257 515 286 q 329 214 393 228 q 211 199 265 200 q 273 135 233 156 q 360 110 313 114 q 463 118 408 107 q 569 149 517 129 q 670 196 622 169 q 754 250 718 222 q 797 269 782 271 q 813 236 811 268 q 785 161 814 204 q 707 76 757 118 q 590 6 654 36 q 457 -40 525 -25 q 322 -53 389 -56 q 197 -24 256 -50 q 99 85 122 18 q 88 226 76 153 q 58 241 72 233 q 28 258 43 249 m 538 424 q 528 447 542 439 q 490 455 515 454 q 433 449 465 456 q 368 433 400 443 q 306 409 336 424 q 258 379 276 394 q 351 357 303 364 q 451 364 399 350 q 507 389 486 375 q 538 424 528 403 m 279 685 q 247 671 264 672 q 225 696 231 669 q 227 736 218 715 q 258 778 236 757 q 325 835 293 810 q 390 885 357 861 q 458 933 424 910 q 533 983 493 956 q 567 987 554 997 q 581 956 581 976 q 571 915 581 936 q 533 875 561 893 q 463 824 493 847 q 403 780 432 801 q 344 735 374 758 q 279 685 315 713 z "},"":{"ha":718,"x_min":3,"x_max":814,"o":"m 28 258 q 6 290 10 269 q 9 335 3 311 q 29 382 15 358 q 60 423 43 406 q 94 447 76 440 q 126 442 113 453 q 144 432 135 436 q 164 422 154 428 q 187 455 175 439 q 211 485 199 471 q 261 540 235 514 q 319 588 288 567 q 391 625 351 610 q 481 649 431 640 q 588 645 544 656 q 650 613 632 635 q 674 533 678 581 q 650 442 671 485 q 567 332 619 378 q 454 257 515 286 q 329 214 393 228 q 211 199 265 200 q 273 135 233 156 q 360 110 313 114 q 463 118 408 107 q 569 149 517 129 q 670 196 622 169 q 754 250 718 222 q 797 269 782 271 q 813 236 811 268 q 785 161 814 204 q 707 76 757 118 q 590 6 654 36 q 457 -40 525 -25 q 322 -53 389 -56 q 197 -24 256 -50 q 99 85 122 18 q 88 226 76 153 q 58 241 72 233 q 28 258 43 249 m 538 424 q 528 447 542 439 q 490 455 515 454 q 433 449 465 456 q 368 433 400 443 q 306 409 336 424 q 258 379 276 394 q 351 357 303 364 q 451 364 399 350 q 507 389 486 375 q 538 424 528 403 m 336 796 q 310 750 325 768 q 275 732 294 732 q 260 740 264 732 q 256 758 256 747 q 258 778 256 768 q 264 796 261 789 q 313 915 285 858 q 381 1021 342 972 q 403 1038 392 1035 q 426 1028 415 1040 q 530 919 474 969 q 661 840 586 868 q 671 810 674 833 q 656 765 668 788 q 624 727 643 742 q 589 722 606 713 q 472 791 522 746 q 374 889 421 836 q 351 837 358 860 q 336 796 343 814 z "},"":{"ha":718,"x_min":3,"x_max":814,"o":"m 28 258 q 6 290 10 269 q 9 335 3 311 q 29 382 15 358 q 60 423 43 406 q 94 447 76 440 q 126 442 113 453 q 144 432 135 436 q 164 422 154 428 q 187 455 175 439 q 211 485 199 471 q 261 540 235 514 q 319 588 288 567 q 391 625 351 610 q 481 649 431 640 q 588 645 544 656 q 650 613 632 635 q 674 533 678 581 q 650 442 671 485 q 567 332 619 378 q 454 257 515 286 q 329 214 393 228 q 211 199 265 200 q 273 135 233 156 q 360 110 313 114 q 463 118 408 107 q 569 149 517 129 q 670 196 622 169 q 754 250 718 222 q 797 269 782 271 q 813 236 811 268 q 785 161 814 204 q 707 76 757 118 q 590 6 654 36 q 457 -40 525 -25 q 322 -53 389 -56 q 197 -24 256 -50 q 99 85 122 18 q 88 226 76 153 q 58 241 72 233 q 28 258 43 249 m 538 424 q 528 447 542 439 q 490 455 515 454 q 433 449 465 456 q 368 433 400 443 q 306 409 336 424 q 258 379 276 394 q 351 357 303 364 q 451 364 399 350 q 507 389 486 375 q 538 424 528 403 m 196 703 q 170 714 178 701 q 163 747 163 726 q 172 790 164 767 q 191 835 179 814 q 217 873 203 857 q 247 892 232 889 q 307 901 271 897 q 382 910 343 906 q 413 885 407 913 q 410 823 418 858 q 382 756 401 788 q 338 715 363 724 q 277 708 318 710 q 196 703 236 706 m 501 715 q 469 735 476 710 q 469 793 463 760 q 492 857 475 826 q 531 894 510 888 q 584 910 550 901 q 654 925 618 918 q 685 909 678 931 q 687 858 692 888 q 667 799 682 828 q 629 760 651 769 q 575 738 611 753 q 501 715 539 722 z "},"":{"ha":489,"x_min":-82,"x_max":642,"o":"m 81 238 q 90 303 74 268 q 131 361 107 338 q 178 390 156 385 q 208 365 201 394 q 229 308 218 339 q 253 248 240 278 q 285 190 267 218 q 331 142 304 163 q 458 106 394 99 q 585 156 521 114 q 624 163 606 167 q 642 126 642 158 q 622 62 642 94 q 571 0 603 29 q 499 -47 539 -28 q 415 -73 458 -65 q 328 -74 372 -81 q 246 -42 285 -67 q 135 81 171 11 q 81 238 99 151 m 356 589 q 365 555 369 578 q 347 510 360 532 q 318 474 335 488 q 292 472 301 461 q 207 531 251 506 q 115 578 163 556 q 22 625 68 601 q -69 678 -25 649 q -78 711 -82 688 q -60 757 -74 735 q -28 793 -46 779 q 3 797 -11 807 q 89 742 44 767 q 179 695 133 718 q 269 647 225 672 q 356 589 314 622 z "},"":{"ha":489,"x_min":71,"x_max":642,"o":"m 81 238 q 90 303 74 268 q 131 361 107 338 q 178 390 156 385 q 208 365 201 394 q 229 308 218 339 q 253 248 240 278 q 285 190 267 218 q 331 142 304 163 q 458 106 394 99 q 585 156 521 114 q 624 163 606 167 q 642 126 642 158 q 622 62 642 94 q 571 0 603 29 q 499 -47 539 -28 q 415 -73 458 -65 q 328 -74 372 -81 q 246 -42 285 -67 q 135 81 171 11 q 81 238 99 151 m 132 515 q 100 501 117 503 q 78 526 83 500 q 80 567 71 546 q 111 608 89 588 q 178 666 146 640 q 243 716 210 692 q 311 763 276 740 q 386 814 346 786 q 420 817 407 828 q 433 786 433 807 q 424 745 433 767 q 386 706 414 724 q 315 655 346 678 q 256 610 285 632 q 197 566 226 589 q 132 515 168 543 z "},"":{"ha":489,"x_min":60,"x_max":642,"o":"m 140 557 q 114 511 129 529 q 79 493 99 493 q 64 501 68 493 q 60 519 60 508 q 63 540 60 529 q 68 557 65 550 q 117 676 89 619 q 185 782 146 733 q 208 799 196 796 q 231 789 219 801 q 334 680 278 731 q 465 601 390 629 q 475 572 478 594 q 460 526 472 549 q 428 488 447 503 q 393 483 410 474 q 276 552 326 507 q 178 650 225 597 q 155 598 163 621 q 140 557 147 575 m 81 238 q 90 303 74 268 q 131 361 107 338 q 178 390 156 385 q 208 365 201 394 q 229 308 218 339 q 253 248 240 278 q 285 190 267 218 q 331 142 304 163 q 458 106 394 99 q 585 156 521 114 q 624 163 606 167 q 642 126 642 158 q 622 62 642 94 q 571 0 603 29 q 499 -47 539 -28 q 415 -73 458 -65 q 328 -74 372 -81 q 246 -42 285 -67 q 135 81 171 11 q 81 238 99 151 z "},"":{"ha":489,"x_min":-24,"x_max":642,"o":"m 10 529 q -16 540 -8 528 q -23 573 -24 553 q -15 617 -22 593 q 5 662 -7 640 q 31 699 17 683 q 61 718 46 715 q 121 728 85 724 q 196 736 157 732 q 226 712 221 739 q 224 649 232 685 q 196 582 215 614 q 151 542 176 550 q 91 534 132 536 q 10 529 50 532 m 315 542 q 283 561 290 536 q 283 619 276 586 q 306 683 289 653 q 344 721 324 714 q 398 736 364 728 q 468 751 432 744 q 499 735 492 757 q 501 684 506 714 q 481 625 496 654 q 443 586 465 596 q 389 564 425 579 q 315 542 353 549 m 81 238 q 90 303 74 268 q 131 361 107 338 q 178 390 156 385 q 208 365 201 394 q 229 308 218 339 q 253 248 240 278 q 285 190 267 218 q 331 142 304 163 q 458 106 394 99 q 585 156 521 114 q 624 163 606 167 q 642 126 642 158 q 622 62 642 94 q 571 0 603 29 q 499 -47 539 -28 q 415 -73 458 -65 q 328 -74 372 -81 q 246 -42 285 -67 q 135 81 171 11 q 81 238 99 151 z "},"":{"ha":865,"x_min":47,"x_max":840,"o":"m 60 321 q 82 390 65 353 q 131 449 99 426 q 181 459 163 469 q 200 406 200 449 q 197 325 200 374 q 196 236 193 276 q 206 208 196 215 q 249 222 215 200 q 347 291 292 251 q 456 363 403 331 q 519 398 482 379 q 598 427 557 417 q 679 435 639 438 q 751 406 719 432 q 802 344 783 379 q 830 269 821 308 q 840 188 839 229 q 838 108 840 147 q 824 40 835 76 q 781 -18 813 3 q 751 -33 767 -28 q 724 -35 736 -37 q 703 -25 711 -33 q 696 0 696 -17 q 696 67 697 26 q 684 144 694 107 q 650 209 674 182 q 582 236 626 236 q 513 228 544 236 q 449 205 481 221 q 385 165 418 189 q 314 108 353 142 q 272 74 297 93 q 219 42 247 56 q 164 25 192 28 q 115 38 136 22 q 69 95 83 58 q 51 172 54 132 q 51 253 47 213 q 60 321 56 293 m 283 633 q 251 604 269 613 q 221 607 232 596 q 217 649 207 626 q 239 696 226 672 q 277 741 256 721 q 324 774 299 761 q 378 788 350 786 q 438 778 407 790 q 482 750 460 764 q 526 730 504 736 q 570 727 547 724 q 617 751 593 731 q 649 756 636 767 q 661 724 661 744 q 646 678 661 697 q 617 644 631 658 q 517 601 568 604 q 419 625 465 599 q 378 652 399 640 q 339 668 358 664 q 304 658 318 668 q 283 633 290 647 z "},"":{"ha":789,"x_min":40,"x_max":742,"o":"m 58 43 q 50 153 40 97 q 86 263 60 208 q 149 367 113 317 q 222 464 186 418 q 197 466 210 465 q 171 467 183 467 q 154 476 158 467 q 149 501 150 486 q 151 529 149 515 q 157 551 154 543 q 171 585 163 568 q 191 617 179 603 q 219 641 203 632 q 256 650 235 650 q 370 648 308 656 q 492 619 432 640 q 604 563 551 597 q 694 481 657 528 q 739 353 736 422 q 717 218 742 285 q 644 94 692 151 q 539 0 597 36 q 463 -41 507 -21 q 369 -74 418 -61 q 272 -90 321 -86 q 179 -81 222 -93 q 104 -40 136 -69 q 58 43 72 -10 m 496 382 q 343 446 429 425 q 326 425 335 433 q 281 373 311 404 q 224 308 251 342 q 183 238 197 274 q 185 169 169 201 q 260 107 211 122 q 365 98 310 92 q 474 126 419 104 q 565 174 528 147 q 602 228 597 200 q 594 283 607 256 q 554 335 581 310 q 496 382 528 361 m 606 860 q 615 826 619 849 q 597 781 610 803 q 568 745 585 758 q 542 743 551 732 q 457 801 501 776 q 365 849 413 826 q 272 896 318 872 q 181 949 225 919 q 172 982 168 958 q 190 1028 176 1006 q 222 1064 204 1050 q 253 1068 239 1078 q 339 1013 294 1038 q 429 966 383 989 q 519 918 475 943 q 606 860 564 893 z "},"":{"ha":789,"x_min":40,"x_max":742,"o":"m 58 43 q 50 153 40 97 q 86 263 60 208 q 149 367 113 317 q 222 464 186 418 q 197 466 210 465 q 171 467 183 467 q 154 476 158 467 q 149 501 150 486 q 151 529 149 515 q 157 551 154 543 q 171 585 163 568 q 191 617 179 603 q 219 641 203 632 q 256 650 235 650 q 370 648 308 656 q 492 619 432 640 q 604 563 551 597 q 694 481 657 528 q 739 353 736 422 q 717 218 742 285 q 644 94 692 151 q 539 0 597 36 q 463 -41 507 -21 q 369 -74 418 -61 q 272 -90 321 -86 q 179 -81 222 -93 q 104 -40 136 -69 q 58 43 72 -10 m 496 382 q 343 446 429 425 q 326 425 335 433 q 281 373 311 404 q 224 308 251 342 q 183 238 197 274 q 185 169 169 201 q 260 107 211 122 q 365 98 310 92 q 474 126 419 104 q 565 174 528 147 q 602 228 597 200 q 594 283 607 256 q 554 335 581 310 q 496 382 528 361 m 399 728 q 367 714 383 715 q 344 739 350 713 q 347 779 338 758 q 378 821 356 800 q 444 878 413 853 q 510 928 476 904 q 578 976 543 953 q 653 1026 613 999 q 687 1030 674 1040 q 700 999 700 1019 q 690 958 700 979 q 653 918 681 936 q 582 867 613 890 q 522 823 551 844 q 464 778 493 801 q 399 728 435 756 z "},"":{"ha":789,"x_min":40,"x_max":742,"o":"m 58 43 q 50 153 40 97 q 86 263 60 208 q 149 367 113 317 q 222 464 186 418 q 197 466 210 465 q 171 467 183 467 q 154 476 158 467 q 149 501 150 486 q 151 529 149 515 q 157 551 154 543 q 171 585 163 568 q 191 617 179 603 q 219 641 203 632 q 256 650 235 650 q 370 648 308 656 q 492 619 432 640 q 604 563 551 597 q 694 481 657 528 q 739 353 736 422 q 717 218 742 285 q 644 94 692 151 q 539 0 597 36 q 463 -41 507 -21 q 369 -74 418 -61 q 272 -90 321 -86 q 179 -81 222 -93 q 104 -40 136 -69 q 58 43 72 -10 m 496 382 q 343 446 429 425 q 326 425 335 433 q 281 373 311 404 q 224 308 251 342 q 183 238 197 274 q 185 169 169 201 q 260 107 211 122 q 365 98 310 92 q 474 126 419 104 q 565 174 528 147 q 602 228 597 200 q 594 283 607 256 q 554 335 581 310 q 496 382 528 361 m 267 792 q 240 746 256 764 q 206 728 225 728 q 190 735 194 728 q 186 753 186 743 q 189 774 186 764 q 194 792 192 785 q 244 911 215 854 q 311 1017 272 968 q 334 1033 322 1031 q 357 1024 346 1036 q 460 915 404 965 q 592 836 517 864 q 601 806 604 829 q 586 760 599 783 q 555 723 574 738 q 519 718 536 708 q 402 787 453 742 q 304 885 351 832 q 281 833 289 856 q 267 792 274 810 z "},"":{"ha":789,"x_min":40,"x_max":742,"o":"m 58 43 q 50 153 40 97 q 86 263 60 208 q 149 367 113 317 q 222 464 186 418 q 197 466 210 465 q 171 467 183 467 q 154 476 158 467 q 149 501 150 486 q 151 529 149 515 q 157 551 154 543 q 171 585 163 568 q 191 617 179 603 q 219 641 203 632 q 256 650 235 650 q 370 648 308 656 q 492 619 432 640 q 604 563 551 597 q 694 481 657 528 q 739 353 736 422 q 717 218 742 285 q 644 94 692 151 q 539 0 597 36 q 463 -41 507 -21 q 369 -74 418 -61 q 272 -90 321 -86 q 179 -81 222 -93 q 104 -40 136 -69 q 58 43 72 -10 m 496 382 q 343 446 429 425 q 326 425 335 433 q 281 373 311 404 q 224 308 251 342 q 183 238 197 274 q 185 169 169 201 q 260 107 211 122 q 365 98 310 92 q 474 126 419 104 q 565 174 528 147 q 602 228 597 200 q 594 283 607 256 q 554 335 581 310 q 496 382 528 361 m 246 736 q 213 707 232 715 q 183 710 194 699 q 179 752 169 729 q 201 799 189 775 q 240 844 218 824 q 287 876 261 864 q 341 891 313 889 q 400 881 369 893 q 444 853 422 867 q 488 833 467 839 q 533 830 510 826 q 579 854 556 833 q 611 858 599 869 q 624 826 624 847 q 608 781 624 800 q 579 747 593 761 q 479 704 531 707 q 382 728 428 701 q 341 755 361 743 q 301 771 321 767 q 267 760 281 771 q 246 736 253 750 z "},"":{"ha":789,"x_min":40,"x_max":742,"o":"m 58 43 q 50 153 40 97 q 86 263 60 208 q 149 367 113 317 q 222 464 186 418 q 197 466 210 465 q 171 467 183 467 q 154 476 158 467 q 149 501 150 486 q 151 529 149 515 q 157 551 154 543 q 171 585 163 568 q 191 617 179 603 q 219 641 203 632 q 256 650 235 650 q 370 648 308 656 q 492 619 432 640 q 604 563 551 597 q 694 481 657 528 q 739 353 736 422 q 717 218 742 285 q 644 94 692 151 q 539 0 597 36 q 463 -41 507 -21 q 369 -74 418 -61 q 272 -90 321 -86 q 179 -81 222 -93 q 104 -40 136 -69 q 58 43 72 -10 m 496 382 q 343 446 429 425 q 326 425 335 433 q 281 373 311 404 q 224 308 251 342 q 183 238 197 274 q 185 169 169 201 q 260 107 211 122 q 365 98 310 92 q 474 126 419 104 q 565 174 528 147 q 602 228 597 200 q 594 283 607 256 q 554 335 581 310 q 496 382 528 361 m 210 732 q 184 743 192 731 q 177 776 176 756 q 185 819 178 796 q 205 865 193 843 q 231 902 217 886 q 261 921 246 918 q 321 931 285 926 q 396 939 357 935 q 426 915 421 942 q 424 852 432 888 q 396 785 415 817 q 351 744 376 753 q 291 737 332 739 q 210 732 250 735 m 515 744 q 483 764 490 739 q 483 822 476 789 q 506 886 489 856 q 544 924 524 917 q 598 939 564 931 q 668 954 632 947 q 699 938 692 960 q 701 887 706 917 q 681 828 696 857 q 643 789 665 799 q 589 767 625 782 q 515 744 553 751 z "},"":{"ha":879,"x_min":18,"x_max":881,"o":"m 125 454 q 176 515 149 489 q 235 539 203 542 q 258 524 256 538 q 254 492 261 510 q 237 455 247 474 q 221 425 226 436 q 199 376 210 404 q 182 319 189 347 q 176 263 175 290 q 188 216 176 236 q 223 187 199 196 q 290 185 247 178 q 411 233 360 196 q 506 319 463 269 q 587 428 549 369 q 667 539 625 486 q 690 560 672 549 q 726 578 707 572 q 763 578 746 583 q 788 550 781 572 q 797 469 797 513 q 800 381 797 426 q 814 292 803 336 q 858 211 825 249 q 878 176 875 197 q 872 133 881 156 q 848 90 864 111 q 813 56 832 69 q 776 38 794 42 q 743 44 757 33 q 688 98 710 68 q 652 161 665 128 q 633 229 639 194 q 625 299 626 264 q 567 215 599 258 q 486 119 535 172 q 415 53 456 82 q 330 6 375 24 q 238 -18 285 -12 q 150 -12 192 -24 q 65 27 93 -3 q 27 99 36 57 q 26 189 18 140 q 49 286 33 238 q 86 378 65 335 q 125 454 107 422 m 599 792 q 608 758 613 781 q 590 713 603 735 q 561 677 578 690 q 535 675 544 664 q 450 733 494 708 q 358 781 406 758 q 265 828 311 804 q 174 881 218 851 q 165 914 161 890 q 183 960 169 938 q 215 996 197 982 q 246 1000 232 1010 q 332 945 288 969 q 422 898 376 921 q 513 850 468 875 q 599 792 557 825 z "},"":{"ha":879,"x_min":18,"x_max":881,"o":"m 125 454 q 176 515 149 489 q 235 539 203 542 q 258 524 256 538 q 254 492 261 510 q 237 455 247 474 q 221 425 226 436 q 199 376 210 404 q 182 319 189 347 q 176 263 175 290 q 188 216 176 236 q 223 187 199 196 q 290 185 247 178 q 411 233 360 196 q 506 319 463 269 q 587 428 549 369 q 667 539 625 486 q 690 560 672 549 q 726 578 707 572 q 763 578 746 583 q 788 550 781 572 q 797 469 797 513 q 800 381 797 426 q 814 292 803 336 q 858 211 825 249 q 878 176 875 197 q 872 133 881 156 q 848 90 864 111 q 813 56 832 69 q 776 38 794 42 q 743 44 757 33 q 688 98 710 68 q 652 161 665 128 q 633 229 639 194 q 625 299 626 264 q 567 215 599 258 q 486 119 535 172 q 415 53 456 82 q 330 6 375 24 q 238 -18 285 -12 q 150 -12 192 -24 q 65 27 93 -3 q 27 99 36 57 q 26 189 18 140 q 49 286 33 238 q 86 378 65 335 q 125 454 107 422 m 428 676 q 396 663 413 664 q 374 688 379 661 q 376 728 367 707 q 407 769 385 749 q 474 827 442 801 q 539 877 506 853 q 607 924 572 901 q 682 975 642 947 q 716 978 703 989 q 729 947 729 968 q 719 906 729 928 q 682 867 710 885 q 611 816 642 839 q 551 772 581 793 q 493 727 522 750 q 428 676 464 704 z "},"":{"ha":879,"x_min":18,"x_max":881,"o":"m 125 454 q 176 515 149 489 q 235 539 203 542 q 258 524 256 538 q 254 492 261 510 q 237 455 247 474 q 221 425 226 436 q 199 376 210 404 q 182 319 189 347 q 176 263 175 290 q 188 216 176 236 q 223 187 199 196 q 290 185 247 178 q 411 233 360 196 q 506 319 463 269 q 587 428 549 369 q 667 539 625 486 q 690 560 672 549 q 726 578 707 572 q 763 578 746 583 q 788 550 781 572 q 797 469 797 513 q 800 381 797 426 q 814 292 803 336 q 858 211 825 249 q 878 176 875 197 q 872 133 881 156 q 848 90 864 111 q 813 56 832 69 q 776 38 794 42 q 743 44 757 33 q 688 98 710 68 q 652 161 665 128 q 633 229 639 194 q 625 299 626 264 q 567 215 599 258 q 486 119 535 172 q 415 53 456 82 q 330 6 375 24 q 238 -18 285 -12 q 150 -12 192 -24 q 65 27 93 -3 q 27 99 36 57 q 26 189 18 140 q 49 286 33 238 q 86 378 65 335 q 125 454 107 422 m 304 736 q 278 690 293 708 q 243 672 263 672 q 228 680 232 672 q 224 698 224 688 q 226 719 224 708 q 232 736 229 729 q 281 856 253 799 q 349 961 310 913 q 372 978 360 975 q 394 968 383 981 q 498 859 442 910 q 629 781 554 808 q 639 751 642 774 q 624 705 636 728 q 592 667 611 682 q 557 663 574 653 q 440 731 490 686 q 342 829 389 776 q 319 777 326 800 q 304 736 311 754 z "},"":{"ha":879,"x_min":18,"x_max":881,"o":"m 125 454 q 176 515 149 489 q 235 539 203 542 q 258 524 256 538 q 254 492 261 510 q 237 455 247 474 q 221 425 226 436 q 199 376 210 404 q 182 319 189 347 q 176 263 175 290 q 188 216 176 236 q 223 187 199 196 q 290 185 247 178 q 411 233 360 196 q 506 319 463 269 q 587 428 549 369 q 667 539 625 486 q 690 560 672 549 q 726 578 707 572 q 763 578 746 583 q 788 550 781 572 q 797 469 797 513 q 800 381 797 426 q 814 292 803 336 q 858 211 825 249 q 878 176 875 197 q 872 133 881 156 q 848 90 864 111 q 813 56 832 69 q 776 38 794 42 q 743 44 757 33 q 688 98 710 68 q 652 161 665 128 q 633 229 639 194 q 625 299 626 264 q 567 215 599 258 q 486 119 535 172 q 415 53 456 82 q 330 6 375 24 q 238 -18 285 -12 q 150 -12 192 -24 q 65 27 93 -3 q 27 99 36 57 q 26 189 18 140 q 49 286 33 238 q 86 378 65 335 q 125 454 107 422 m 215 625 q 190 636 197 624 q 183 669 182 649 q 191 713 183 689 q 210 758 199 736 q 237 795 222 779 q 267 814 251 811 q 326 824 290 819 q 401 832 363 828 q 432 808 426 835 q 429 745 438 781 q 401 678 421 710 q 357 638 382 646 q 297 630 338 632 q 215 625 256 628 m 521 638 q 489 657 496 632 q 488 715 482 682 q 512 779 494 749 q 550 817 529 810 q 603 832 569 824 q 674 847 638 840 q 704 831 697 853 q 706 780 711 810 q 686 721 701 750 q 649 682 671 692 q 594 660 631 675 q 521 638 558 644 z "},"":{"ha":1157,"x_min":31,"x_max":1010,"o":"m 39 233 q 42 311 31 278 q 96 375 53 344 q 153 397 128 397 q 181 375 178 397 q 192 319 186 349 q 211 269 199 290 q 243 239 224 247 q 294 247 263 231 q 358 288 326 264 q 424 338 390 313 q 491 384 457 363 q 563 417 525 406 q 753 403 669 449 q 901 261 838 357 q 985 73 960 176 q 995 -131 1010 -31 q 924 -319 981 -232 q 761 -460 867 -407 q 582 -513 675 -503 q 393 -503 489 -524 q 312 -474 356 -492 q 225 -431 268 -456 q 144 -374 182 -406 q 82 -304 106 -342 q 69 -219 61 -262 q 101 -135 76 -175 q 163 -61 126 -94 q 238 -7 200 -28 q 414 74 322 46 q 590 135 506 103 q 627 132 615 142 q 640 103 639 122 q 633 58 640 83 q 613 10 626 33 q 583 -30 600 -12 q 549 -50 567 -47 q 489 -67 524 -57 q 417 -90 454 -78 q 342 -116 379 -103 q 278 -141 306 -129 q 234 -162 250 -153 q 222 -178 218 -172 q 290 -235 253 -212 q 365 -276 326 -257 q 522 -319 440 -308 q 690 -318 604 -329 q 747 -304 717 -312 q 801 -281 776 -296 q 843 -245 826 -267 q 860 -192 860 -224 q 849 -83 863 -142 q 810 31 836 -25 q 746 133 783 86 q 663 208 708 181 q 567 238 618 236 q 464 204 517 239 q 402 158 432 183 q 342 111 372 133 q 279 72 311 89 q 210 49 247 54 q 137 53 167 38 q 88 99 107 69 q 56 165 68 128 q 39 233 44 201 m 424 618 q 392 604 408 606 q 369 629 375 603 q 372 669 363 649 q 403 711 381 690 q 469 769 438 743 q 535 819 501 794 q 603 866 568 843 q 678 917 638 889 q 712 920 699 931 q 725 889 725 910 q 715 848 725 869 q 678 808 706 826 q 607 758 638 781 q 547 713 576 735 q 489 669 518 692 q 424 618 460 646 z "},"":{"ha":1157,"x_min":31,"x_max":1010,"o":"m 39 233 q 42 311 31 278 q 96 375 53 344 q 153 397 128 397 q 181 375 178 397 q 192 319 186 349 q 211 269 199 290 q 243 239 224 247 q 294 247 263 231 q 358 288 326 264 q 424 338 390 313 q 491 384 457 363 q 563 417 525 406 q 753 403 669 449 q 901 261 838 357 q 985 73 960 176 q 995 -131 1010 -31 q 924 -319 981 -232 q 761 -460 867 -407 q 582 -513 675 -503 q 393 -503 489 -524 q 312 -474 356 -492 q 225 -431 268 -456 q 144 -374 182 -406 q 82 -304 106 -342 q 69 -219 61 -262 q 101 -135 76 -175 q 163 -61 126 -94 q 238 -7 200 -28 q 414 74 322 46 q 590 135 506 103 q 627 132 615 142 q 640 103 639 122 q 633 58 640 83 q 613 10 626 33 q 583 -30 600 -12 q 549 -50 567 -47 q 489 -67 524 -57 q 417 -90 454 -78 q 342 -116 379 -103 q 278 -141 306 -129 q 234 -162 250 -153 q 222 -178 218 -172 q 290 -235 253 -212 q 365 -276 326 -257 q 522 -319 440 -308 q 690 -318 604 -329 q 747 -304 717 -312 q 801 -281 776 -296 q 843 -245 826 -267 q 860 -192 860 -224 q 849 -83 863 -142 q 810 31 836 -25 q 746 133 783 86 q 663 208 708 181 q 567 238 618 236 q 464 204 517 239 q 402 158 432 183 q 342 111 372 133 q 279 72 311 89 q 210 49 247 54 q 137 53 167 38 q 88 99 107 69 q 56 165 68 128 q 39 233 44 201 m 354 625 q 328 636 336 624 q 322 669 321 649 q 330 713 322 689 q 349 758 338 736 q 376 795 361 779 q 406 814 390 811 q 465 824 429 819 q 540 832 501 828 q 571 808 565 835 q 568 745 576 781 q 540 678 560 710 q 496 638 521 646 q 435 630 476 632 q 354 625 394 628 m 660 638 q 628 657 635 632 q 627 715 621 682 q 651 779 633 749 q 689 817 668 810 q 742 832 708 824 q 813 847 776 840 q 843 831 836 853 q 845 780 850 810 q 825 721 840 750 q 788 682 810 692 q 733 660 769 675 q 660 638 697 644 z "},"'":{"ha":526,"x_min":175,"x_max":394,"o":"m 211 913 q 199 947 194 921 q 218 1001 203 974 q 256 1047 233 1028 q 300 1057 279 1065 q 369 1008 347 1040 q 392 934 390 975 q 381 848 394 893 q 346 760 368 803 q 297 682 324 718 q 244 624 269 646 q 226 614 236 619 q 206 606 215 608 q 190 608 197 604 q 179 624 182 611 q 178 656 175 640 q 188 687 181 672 q 204 713 194 701 q 222 733 214 725 q 263 781 247 754 q 280 832 279 807 q 265 878 281 857 q 211 913 249 900 z "},"":{"ha":490,"x_min":199,"x_max":418,"o":"m 382 756 q 394 721 399 747 q 375 667 390 694 q 337 622 360 640 q 293 611 314 603 q 224 660 246 628 q 201 734 203 693 q 212 820 199 775 q 247 908 225 865 q 297 986 269 950 q 349 1044 324 1022 q 367 1054 357 1049 q 386 1062 376 1060 q 403 1060 396 1064 q 414 1044 411 1057 q 415 1012 418 1028 q 406 981 413 996 q 389 955 399 967 q 371 935 379 943 q 330 888 346 914 q 313 836 314 861 q 328 790 313 811 q 382 756 344 768 z "},"":{"ha":582,"x_min":218,"x_max":438,"o":"m 254 913 q 242 947 238 921 q 261 1001 246 974 q 299 1047 276 1028 q 343 1057 322 1065 q 412 1008 390 1040 q 435 934 433 975 q 424 848 438 893 q 389 760 411 803 q 340 682 367 718 q 288 624 313 646 q 269 614 279 619 q 249 606 258 608 q 233 608 240 604 q 222 624 225 611 q 221 656 218 640 q 231 687 224 672 q 247 713 238 701 q 265 733 257 725 q 306 781 290 754 q 323 832 322 807 q 308 878 324 857 q 254 913 292 900 z "},"\"":{"ha":851,"x_min":218,"x_max":694,"o":"m 254 913 q 242 947 238 921 q 261 1001 246 974 q 299 1047 276 1028 q 343 1057 322 1065 q 412 1008 390 1040 q 435 934 433 975 q 424 848 438 893 q 389 760 411 803 q 340 682 367 718 q 288 624 313 646 q 269 614 279 619 q 249 606 258 608 q 233 608 240 604 q 222 624 225 611 q 221 656 218 640 q 231 687 224 672 q 247 713 238 701 q 265 733 257 725 q 306 781 290 754 q 323 832 322 807 q 308 878 324 857 q 254 913 292 900 m 497 967 q 485 1001 481 975 q 504 1055 489 1028 q 542 1101 519 1082 q 586 1111 565 1119 q 658 1065 633 1094 q 688 999 682 1035 q 685 922 694 963 q 657 842 676 881 q 611 769 638 804 q 556 711 585 735 q 536 701 547 707 q 514 694 525 696 q 494 695 503 692 q 482 711 485 699 q 481 746 478 728 q 491 781 483 764 q 508 811 499 797 q 526 833 518 825 q 545 910 549 875 q 497 967 542 944 z "},"":{"ha":851,"x_min":290,"x_max":767,"o":"m 731 810 q 743 775 747 801 q 724 722 739 749 q 685 676 708 694 q 642 665 663 657 q 573 715 594 682 q 549 788 551 747 q 560 874 547 829 q 596 962 574 919 q 645 1040 618 1004 q 697 1099 672 1076 q 715 1108 706 1103 q 735 1116 725 1114 q 752 1115 744 1118 q 763 1099 760 1111 q 764 1066 767 1082 q 754 1035 761 1050 q 738 1009 747 1021 q 719 989 728 997 q 678 942 694 968 q 662 890 663 915 q 677 844 661 865 q 731 810 693 822 m 488 756 q 500 721 504 747 q 481 667 496 694 q 442 622 465 640 q 399 611 419 603 q 327 658 351 628 q 297 724 303 688 q 299 801 290 760 q 328 880 308 842 q 374 953 347 918 q 429 1011 400 988 q 449 1021 438 1015 q 471 1028 460 1026 q 491 1027 482 1031 q 503 1011 500 1024 q 504 976 507 994 q 494 942 501 958 q 476 911 486 925 q 458 889 467 897 q 440 813 436 847 q 488 756 443 778 z "},"":{"ha":851,"x_min":218,"x_max":694,"o":"m 254 913 q 242 947 238 921 q 261 1001 246 974 q 299 1047 276 1028 q 343 1057 322 1065 q 412 1008 390 1040 q 435 934 433 975 q 424 848 438 893 q 389 760 411 803 q 340 682 367 718 q 288 624 313 646 q 269 614 279 619 q 249 606 258 608 q 233 608 240 604 q 222 624 225 611 q 221 656 218 640 q 231 687 224 672 q 247 713 238 701 q 265 733 257 725 q 306 781 290 754 q 323 832 322 807 q 308 878 324 857 q 254 913 292 900 m 497 967 q 485 1001 481 975 q 504 1055 489 1028 q 542 1101 519 1082 q 586 1111 565 1119 q 658 1065 633 1094 q 688 999 682 1035 q 685 922 694 963 q 657 842 676 881 q 611 769 638 804 q 556 711 585 735 q 536 701 547 707 q 514 694 525 696 q 494 695 503 692 q 482 711 485 699 q 481 746 478 728 q 491 781 483 764 q 508 811 499 797 q 526 833 518 825 q 545 910 549 875 q 497 967 542 944 z "},"":{"ha":896,"x_min":49,"x_max":881,"o":"m 56 6 q 65 60 49 33 q 108 111 82 88 q 163 153 135 135 q 207 185 192 172 q 309 277 261 226 q 406 375 357 328 q 624 606 521 483 q 801 871 726 728 q 812 885 806 876 q 827 901 818 894 q 846 909 836 907 q 867 906 856 911 q 878 894 876 903 q 878 874 881 885 q 873 851 876 863 q 867 833 869 840 q 662 542 778 678 q 425 283 546 407 q 273 148 350 217 q 100 -3 196 79 q 74 -12 86 -17 q 56 6 63 -8 z "},"":{"ha":789,"x_min":40,"x_max":742,"o":"m 58 43 q 50 153 40 97 q 86 263 60 208 q 149 367 113 317 q 222 464 186 418 q 197 466 210 465 q 171 467 183 467 q 154 476 158 467 q 149 501 150 486 q 151 529 149 515 q 157 551 154 543 q 171 585 163 568 q 191 617 179 603 q 219 641 203 632 q 256 650 235 650 q 370 648 308 656 q 492 619 432 640 q 604 563 551 597 q 694 481 657 528 q 739 353 736 422 q 717 218 742 285 q 644 94 692 151 q 539 0 597 36 q 463 -41 507 -21 q 369 -74 418 -61 q 272 -90 321 -86 q 179 -81 222 -93 q 104 -40 136 -69 q 58 43 72 -10 m 496 382 q 343 446 429 425 q 326 425 335 433 q 281 373 311 404 q 224 308 251 342 q 183 238 197 274 q 185 169 169 201 q 260 107 211 122 q 365 98 310 92 q 474 126 419 104 q 565 174 528 147 q 602 228 597 200 q 594 283 607 256 q 554 335 581 310 q 496 382 528 361 m 203 721 q 171 707 188 708 q 149 732 154 706 q 151 772 142 751 q 182 814 160 793 q 249 872 217 846 q 314 922 281 897 q 382 969 347 946 q 457 1019 417 992 q 491 1023 478 1033 q 504 992 504 1013 q 494 951 504 972 q 457 911 485 929 q 386 860 417 883 q 326 816 356 838 q 268 772 297 794 q 203 721 239 749 m 401 694 q 364 680 382 679 q 342 703 346 681 q 369 772 329 735 q 426 821 399 799 q 481 863 453 843 q 538 903 508 883 q 600 946 567 922 q 636 949 618 957 q 654 922 654 940 q 646 888 654 906 q 614 854 638 869 q 497 769 547 807 q 401 694 446 731 z "},"":{"ha":1208,"x_min":44,"x_max":1161,"o":"m 553 726 q 584 727 571 736 q 600 690 597 718 q 584 633 600 663 q 542 583 568 603 q 494 551 518 565 q 443 524 469 538 q 390 495 417 510 q 335 463 363 481 q 282 427 310 444 q 228 390 254 410 q 186 333 194 364 q 190 276 178 303 q 234 227 203 249 q 311 199 265 206 q 453 192 379 188 q 602 215 528 197 q 746 263 676 233 q 876 331 815 293 q 929 365 899 343 q 987 415 960 388 q 1031 473 1014 442 q 1043 536 1049 504 q 1023 598 1039 571 q 982 647 1007 625 q 926 685 957 668 q 863 715 896 701 q 694 751 783 740 q 517 761 606 761 q 487 786 489 761 q 497 842 485 811 q 532 900 510 872 q 576 932 554 928 q 738 926 658 932 q 900 893 818 921 q 963 868 926 885 q 1033 826 999 851 q 1097 770 1068 801 q 1142 703 1126 739 q 1160 613 1158 658 q 1150 526 1161 568 q 1117 442 1139 483 q 1068 365 1096 401 q 787 140 950 221 q 433 31 624 58 q 356 26 396 26 q 278 30 317 25 q 202 47 239 35 q 133 81 165 58 q 56 202 68 133 q 71 343 44 271 q 163 474 107 419 q 285 571 219 528 q 421 650 351 614 q 553 726 490 686 m 561 1033 q 529 1019 546 1021 q 507 1044 513 1018 q 509 1085 500 1064 q 540 1126 518 1106 q 607 1184 575 1158 q 672 1234 639 1210 q 740 1281 706 1258 q 815 1332 775 1304 q 849 1335 836 1346 q 863 1304 863 1325 q 853 1263 863 1285 q 815 1224 843 1242 q 744 1173 775 1196 q 685 1128 714 1150 q 626 1084 656 1107 q 561 1033 597 1061 m 760 1007 q 722 992 740 992 q 700 1015 704 993 q 728 1085 688 1047 q 784 1133 757 1111 q 839 1176 811 1156 q 896 1215 867 1196 q 958 1258 925 1235 q 994 1261 976 1269 q 1013 1235 1013 1253 q 1004 1200 1013 1218 q 972 1167 996 1182 q 855 1081 906 1119 q 760 1007 804 1043 z "},"":{"ha":879,"x_min":18,"x_max":881,"o":"m 125 454 q 176 515 149 489 q 235 539 203 542 q 258 524 256 538 q 254 492 261 510 q 237 455 247 474 q 221 425 226 436 q 199 376 210 404 q 182 319 189 347 q 176 263 175 290 q 188 216 176 236 q 223 187 199 196 q 290 185 247 178 q 411 233 360 196 q 506 319 463 269 q 587 428 549 369 q 667 539 625 486 q 690 560 672 549 q 726 578 707 572 q 763 578 746 583 q 788 550 781 572 q 797 469 797 513 q 800 381 797 426 q 814 292 803 336 q 858 211 825 249 q 878 176 875 197 q 872 133 881 156 q 848 90 864 111 q 813 56 832 69 q 776 38 794 42 q 743 44 757 33 q 688 98 710 68 q 652 161 665 128 q 633 229 639 194 q 625 299 626 264 q 567 215 599 258 q 486 119 535 172 q 415 53 456 82 q 330 6 375 24 q 238 -18 285 -12 q 150 -12 192 -24 q 65 27 93 -3 q 27 99 36 57 q 26 189 18 140 q 49 286 33 238 q 86 378 65 335 q 125 454 107 422 m 342 700 q 310 686 326 688 q 288 711 293 685 q 290 751 281 731 q 321 793 299 772 q 388 851 356 825 q 453 901 419 876 q 521 948 486 925 q 596 999 556 971 q 630 1002 617 1013 q 643 971 643 992 q 633 930 643 951 q 596 890 624 908 q 525 840 556 863 q 465 795 494 817 q 407 751 436 774 q 342 700 378 728 m 540 674 q 503 659 521 658 q 481 682 485 660 q 508 751 468 714 q 565 800 538 778 q 619 842 592 822 q 676 882 647 863 q 739 925 706 901 q 775 928 757 936 q 793 901 793 919 q 785 867 793 885 q 753 833 776 849 q 635 748 686 786 q 540 674 585 710 z "},"":{"ha":1314,"x_min":89,"x_max":1300,"o":"m 89 631 q 105 687 89 657 q 149 735 121 717 q 189 739 172 751 q 206 700 206 726 q 210 601 206 660 q 228 481 214 543 q 266 358 242 418 q 328 254 290 297 q 440 182 379 194 q 569 188 500 169 q 740 278 658 221 q 890 409 821 336 q 1013 565 958 482 q 1107 735 1068 649 q 1128 756 1114 743 q 1157 775 1142 768 q 1186 780 1172 782 q 1208 757 1200 778 q 1235 633 1221 706 q 1261 482 1249 560 q 1284 328 1274 404 q 1300 197 1294 253 q 1285 133 1300 163 q 1253 85 1271 103 q 1240 75 1249 81 q 1220 67 1231 69 q 1199 69 1210 65 q 1185 85 1189 72 q 1172 189 1181 129 q 1153 313 1164 249 q 1131 437 1143 376 q 1111 542 1119 497 q 1031 407 1079 475 q 919 276 982 339 q 837 198 881 239 q 746 120 793 157 q 647 55 699 83 q 542 14 596 26 q 451 2 497 1 q 359 15 404 3 q 274 53 314 28 q 206 117 235 78 q 138 231 161 168 q 103 360 114 293 q 91 497 93 428 q 89 631 89 567 m 551 964 q 519 950 536 951 q 497 975 503 949 q 499 1015 490 994 q 531 1057 508 1036 q 597 1115 565 1089 q 663 1165 629 1140 q 731 1212 696 1189 q 806 1263 765 1235 q 840 1266 826 1276 q 853 1235 853 1256 q 843 1194 853 1215 q 806 1154 833 1172 q 735 1103 765 1126 q 675 1059 704 1081 q 617 1015 646 1038 q 551 964 588 992 m 750 938 q 713 923 731 922 q 690 946 694 924 q 718 1015 678 978 q 774 1064 747 1042 q 829 1106 801 1086 q 886 1146 857 1126 q 949 1189 915 1165 q 985 1192 967 1200 q 1003 1165 1003 1183 q 994 1131 1003 1149 q 963 1097 986 1113 q 845 1012 896 1050 q 750 938 794 974 z "},"":{"ha":1283,"x_min":-189,"x_max":1265,"o":"m 899 -57 q 860 -75 878 -64 q 828 -101 842 -86 q 1064 -118 940 -143 q 1083 -141 1082 -118 q 1078 -182 1085 -164 q 1054 -220 1072 -203 q 1010 -243 1036 -237 q 940 -250 976 -250 q 867 -244 903 -250 q 799 -229 832 -239 q 742 -208 767 -219 q 728 -195 732 -204 q 722 -176 724 -186 q 723 -157 721 -165 q 728 -144 725 -149 q 774 -62 747 -99 q 761 -60 767 -61 q 749 -60 756 -60 q 485 -9 614 -50 q 233 79 356 32 q 209 88 221 83 q 185 99 197 93 q 162 57 174 78 q 139 17 150 36 q 103 -28 125 -7 q 57 -47 81 -50 q 40 -37 46 -46 q 35 -17 35 -29 q 38 7 35 -6 q 46 28 40 19 l 106 133 q -33 199 35 165 q -169 269 -101 232 q -186 297 -189 275 q -169 340 -183 318 q -134 381 -154 363 q -99 399 -114 399 q 92 410 -3 407 q 285 414 188 414 q 350 522 311 469 q 437 617 389 574 q 540 690 485 660 q 654 733 594 721 q 776 738 714 746 q 901 696 839 729 q 972 636 942 671 q 1027 562 1003 601 q 1072 479 1051 522 q 1113 397 1093 436 l 1238 401 q 1260 390 1254 399 q 1265 369 1265 381 q 1260 344 1264 357 q 1251 325 1256 332 q 1208 278 1226 289 q 1167 261 1190 267 l 1151 258 q 1147 187 1154 222 q 1124 118 1140 151 q 1056 17 1099 56 q 960 -40 1013 -21 l 899 -57 m 300 297 q 261 233 281 269 q 313 212 288 222 q 365 190 338 201 q 490 149 426 171 q 618 110 553 128 q 749 83 683 93 q 883 72 815 72 q 938 78 913 75 q 981 88 963 81 q 1013 110 1000 96 q 1032 153 1026 125 q 1031 206 1035 181 q 1015 260 1026 232 q 658 278 836 265 q 300 297 479 290 m 772 604 q 647 628 706 633 q 538 594 588 624 q 449 517 488 565 q 386 414 411 469 q 670 406 522 413 q 954 396 818 399 q 868 531 915 479 q 772 604 821 582 m 106 301 q 144 284 125 293 q 183 267 164 275 q 194 283 189 274 q 204 300 199 292 q 156 301 181 300 q 106 301 131 301 z "},"":{"ha":897,"x_min":-35,"x_max":1024,"o":"m 374 928 q 383 947 378 936 q 399 965 389 957 q 421 976 408 972 q 453 972 433 979 q 462 937 472 961 q 439 883 451 913 q 383 753 414 825 q 321 604 353 682 q 467 667 393 633 q 480 669 475 672 q 488 660 485 667 q 490 644 490 653 q 489 631 490 636 q 477 602 486 619 q 442 575 468 585 q 361 538 401 556 q 281 504 321 521 q 229 370 253 435 q 186 249 206 306 q 386 179 285 206 q 588 151 488 153 q 786 179 688 150 q 978 278 885 208 q 1010 283 996 296 q 1024 244 1024 269 q 1008 191 1024 221 q 968 144 993 161 q 750 33 864 65 q 519 3 636 0 q 286 38 403 6 q 60 121 169 71 q 41 146 43 132 q 53 190 39 160 q 96 315 71 249 q 151 453 121 382 q 71 422 111 438 q -10 392 31 407 q -31 398 -26 386 q -31 427 -35 410 q -15 462 -26 444 q 14 485 -3 479 q 104 518 58 501 q 194 553 150 535 q 288 752 240 656 q 374 928 335 849 z "},"":{"ha":897,"x_min":39,"x_max":1024,"o":"m 374 928 q 383 947 378 936 q 399 965 389 957 q 421 976 408 972 q 453 972 433 979 q 462 937 472 961 q 439 883 451 913 q 378 740 413 821 q 310 574 344 660 q 242 404 275 489 q 186 249 210 319 q 386 179 285 206 q 588 151 488 153 q 786 179 688 150 q 978 278 885 208 q 1010 283 996 296 q 1024 244 1024 269 q 1008 191 1024 221 q 968 144 993 161 q 750 33 864 65 q 519 3 636 0 q 286 38 403 6 q 60 121 169 71 q 41 146 43 132 q 53 190 39 160 q 117 367 78 271 q 200 563 156 464 q 290 758 244 663 q 374 928 336 853 m 604 990 q 592 1025 588 999 q 611 1078 596 1051 q 649 1124 626 1106 q 693 1135 672 1143 q 762 1085 740 1118 q 785 1012 783 1053 q 774 926 788 971 q 739 838 761 881 q 690 760 717 796 q 638 701 663 724 q 619 692 629 697 q 599 684 608 686 q 583 685 590 682 q 572 701 575 689 q 571 734 568 718 q 581 765 574 750 q 597 791 588 779 q 615 811 607 803 q 656 858 640 832 q 673 910 672 885 q 658 956 674 935 q 604 990 642 978 z "},"":{"ha":1261,"x_min":-76,"x_max":1142,"o":"m 1029 825 q 1047 785 1050 813 q 1027 732 1043 758 q 989 688 1011 706 q 951 679 967 671 q 779 788 865 742 q 594 842 693 835 q 593 803 582 833 q 633 732 604 774 q 707 644 663 690 q 804 556 751 597 q 972 408 886 481 q 1129 242 1058 335 q 1139 205 1142 225 q 1126 166 1136 185 q 1100 131 1115 147 q 1072 107 1085 115 q 857 -12 972 25 q 624 -47 742 -49 q 395 -5 507 -44 q 190 106 283 35 q 27 276 96 176 q -72 500 -42 376 q -62 551 -76 521 q -30 602 -49 581 q 6 631 -11 624 q 28 613 24 638 q 133 419 69 501 q 272 281 197 338 q 429 191 347 225 q 590 140 511 157 q 740 120 669 122 q 865 124 811 118 q 948 144 918 131 q 976 172 978 157 q 866 279 926 228 q 745 382 806 331 q 631 488 685 433 q 539 604 576 543 q 485 736 501 665 q 488 892 469 807 q 513 958 497 928 q 569 996 529 989 q 697 992 636 1004 q 815 956 758 981 q 924 897 871 932 q 1029 825 978 863 m 656 1160 q 624 1146 640 1147 q 601 1171 607 1144 q 603 1211 594 1190 q 635 1253 613 1232 q 701 1310 669 1285 q 767 1360 733 1336 q 835 1408 800 1385 q 910 1458 869 1431 q 944 1462 931 1472 q 957 1431 957 1451 q 947 1390 957 1411 q 910 1350 938 1368 q 839 1299 869 1322 q 779 1255 808 1276 q 721 1210 750 1233 q 656 1160 692 1188 z "},"":{"ha":1261,"x_min":-76,"x_max":1142,"o":"m 1029 825 q 1047 785 1050 813 q 1027 732 1043 758 q 989 688 1011 706 q 951 679 967 671 q 779 788 865 742 q 594 842 693 835 q 593 803 582 833 q 633 732 604 774 q 707 644 663 690 q 804 556 751 597 q 972 408 886 481 q 1129 242 1058 335 q 1139 205 1142 225 q 1126 166 1136 185 q 1100 131 1115 147 q 1072 107 1085 115 q 857 -12 972 25 q 624 -47 742 -49 q 395 -5 507 -44 q 190 106 283 35 q 27 276 96 176 q -72 500 -42 376 q -62 551 -76 521 q -30 602 -49 581 q 6 631 -11 624 q 28 613 24 638 q 133 419 69 501 q 272 281 197 338 q 429 191 347 225 q 590 140 511 157 q 740 120 669 122 q 865 124 811 118 q 948 144 918 131 q 976 172 978 157 q 866 279 926 228 q 745 382 806 331 q 631 488 685 433 q 539 604 576 543 q 485 736 501 665 q 488 892 469 807 q 513 958 497 928 q 569 996 529 989 q 697 992 636 1004 q 815 956 758 981 q 924 897 871 932 q 1029 825 978 863 m 513 1250 q 491 1269 492 1250 q 501 1312 490 1289 q 530 1353 511 1335 q 565 1367 549 1371 q 615 1357 590 1367 q 662 1331 639 1347 q 706 1296 685 1315 q 746 1257 726 1276 q 762 1280 756 1268 q 774 1304 768 1292 q 794 1357 783 1335 q 825 1386 806 1379 q 850 1379 844 1393 q 851 1342 856 1365 q 806 1231 832 1278 q 740 1142 781 1183 q 716 1128 729 1128 q 696 1135 703 1128 q 654 1170 675 1151 q 610 1206 633 1189 q 563 1235 588 1222 q 513 1250 539 1247 z "},"":{"ha":1261,"x_min":-76,"x_max":1142,"o":"m 1029 825 q 1047 785 1050 813 q 1027 732 1043 758 q 989 688 1011 706 q 951 679 967 671 q 779 788 865 742 q 594 842 693 835 q 593 803 582 833 q 633 732 604 774 q 707 644 663 690 q 804 556 751 597 q 972 408 886 481 q 1129 242 1058 335 q 1139 205 1142 225 q 1126 166 1136 185 q 1100 131 1115 147 q 1072 107 1085 115 q 857 -12 972 25 q 624 -47 742 -49 q 395 -5 507 -44 q 190 106 283 35 q 27 276 96 176 q -72 500 -42 376 q -62 551 -76 521 q -30 602 -49 581 q 6 631 -11 624 q 28 613 24 638 q 133 419 69 501 q 272 281 197 338 q 429 191 347 225 q 590 140 511 157 q 740 120 669 122 q 865 124 811 118 q 948 144 918 131 q 976 172 978 157 q 866 279 926 228 q 745 382 806 331 q 631 488 685 433 q 539 604 576 543 q 485 736 501 665 q 488 892 469 807 q 513 958 497 928 q 569 996 529 989 q 697 992 636 1004 q 815 956 758 981 q 924 897 871 932 q 1029 825 978 863 m 525 -192 q 513 -157 508 -183 q 532 -103 517 -131 q 570 -58 547 -76 q 614 -47 593 -39 q 683 -97 661 -64 q 706 -170 704 -129 q 695 -256 708 -211 q 660 -344 682 -301 q 610 -422 638 -386 q 558 -481 583 -458 q 540 -490 550 -485 q 520 -498 529 -496 q 503 -497 511 -500 q 493 -481 496 -493 q 492 -448 489 -464 q 501 -417 494 -432 q 518 -391 508 -403 q 536 -371 528 -379 q 577 -324 561 -350 q 594 -272 593 -297 q 578 -226 594 -247 q 525 -192 563 -204 z "}}}
